M48
; DRILL file {KiCad 5.1.5+dfsg1-2build2} date vie 11 sep 2020 16:17:55
; FORMAT={-:-/ absolute / inch / decimal}
; #@! TF.CreationDate,2020-09-11T16:17:55-03:00
; #@! TF.GenerationSoftware,Kicad,Pcbnew,5.1.5+dfsg1-2build2
FMAT,2
INCH
T1C0.0354
T2C0.0394
T3C0.0906
%
G90
G05
T1
X3.075Y-5.375
X3.1152Y-5.275
X3.1553Y-5.375
X3.1955Y-5.275
X3.2356Y-5.375
X3.2758Y-5.275
X3.795Y-3.425
X3.8352Y-3.325
X3.8753Y-3.425
X3.9155Y-3.325
X3.9556Y-3.425
X3.9958Y-3.325
X3.075Y-3.425
X3.1152Y-3.325
X3.1553Y-3.425
X3.1955Y-3.325
X3.2356Y-3.425
X3.2758Y-3.325
X4.515Y-3.425
X4.5552Y-3.325
X4.5953Y-3.425
X4.6355Y-3.325
X4.6756Y-3.425
X4.7158Y-3.325
X5.235Y-3.425
X5.2752Y-3.325
X5.3153Y-3.425
X5.3555Y-3.325
X5.3956Y-3.425
X5.4358Y-3.325
X3.795Y-2.45
X3.8352Y-2.35
X3.8753Y-2.45
X3.9155Y-2.35
X3.9556Y-2.45
X3.9958Y-2.35
X3.795Y-4.4
X3.8352Y-4.3
X3.8753Y-4.4
X3.9155Y-4.3
X3.9556Y-4.4
X3.9958Y-4.3
X5.235Y-4.4
X5.2752Y-4.3
X5.3153Y-4.4
X5.3555Y-4.3
X5.3956Y-4.4
X5.4358Y-4.3
X5.955Y-2.45
X5.9952Y-2.35
X6.0353Y-2.45
X6.0755Y-2.35
X6.1156Y-2.45
X6.1558Y-2.35
X5.955Y-4.4
X5.9952Y-4.3
X6.0353Y-4.4
X6.0755Y-4.3
X6.1156Y-4.4
X6.1558Y-4.3
X4.515Y-2.45
X4.5552Y-2.35
X4.5953Y-2.45
X4.6355Y-2.35
X4.6756Y-2.45
X4.7158Y-2.35
X4.515Y-4.4
X4.5552Y-4.3
X4.5953Y-4.4
X4.6355Y-4.3
X4.6756Y-4.4
X4.7158Y-4.3
X4.515Y-5.375
X4.5552Y-5.275
X4.5953Y-5.375
X4.6355Y-5.275
X4.6756Y-5.375
X4.7158Y-5.275
X3.075Y-4.4
X3.1152Y-4.3
X3.1553Y-4.4
X3.1955Y-4.3
X3.2356Y-4.4
X3.2758Y-4.3
X3.075Y-2.45
X3.1152Y-2.35
X3.1553Y-2.45
X3.1955Y-2.35
X3.2356Y-2.45
X3.2758Y-2.35
X5.955Y-3.425
X5.9952Y-3.325
X6.0353Y-3.425
X6.0755Y-3.325
X6.1156Y-3.425
X6.1558Y-3.325
X3.795Y-5.375
X3.8352Y-5.275
X3.8753Y-5.375
X3.9155Y-5.275
X3.9556Y-5.375
X3.9958Y-5.275
X5.235Y-5.375
X5.2752Y-5.275
X5.3153Y-5.375
X5.3555Y-5.275
X5.3956Y-5.375
X5.4358Y-5.275
X5.955Y-5.375
X5.9952Y-5.275
X6.0353Y-5.375
X6.0755Y-5.275
X6.1156Y-5.375
X6.1558Y-5.275
X5.235Y-2.45
X5.2752Y-2.35
X5.3153Y-2.45
X5.3555Y-2.35
X5.3956Y-2.45
X5.4358Y-2.35
T2
X5.185Y-2.8
X5.285Y-2.8
X5.385Y-2.8
X5.485Y-2.8
X3.075Y-3.575
X3.175Y-3.575
X3.275Y-3.575
X5.235Y-3.575
X5.335Y-3.575
X5.435Y-3.575
X4.465Y-4.75
X4.565Y-4.75
X4.665Y-4.75
X4.765Y-4.75
X3.795Y-5.525
X3.895Y-5.525
X3.995Y-5.525
X3.075Y-3.875
X3.175Y-3.875
X3.275Y-3.875
X5.905Y-5.625
X6.005Y-5.625
X6.105Y-5.625
X6.205Y-5.625
X3.795Y-4.85
X3.895Y-4.85
X3.995Y-4.85
X3.745Y-2.8
X3.845Y-2.8
X3.945Y-2.8
X4.045Y-2.8
X4.515Y-5.525
X4.615Y-5.525
X4.715Y-5.525
X4.515Y-3.875
X4.615Y-3.875
X4.715Y-3.875
X3.795Y-4.55
X3.895Y-4.55
X3.995Y-4.55
X3.795Y-3.875
X3.895Y-3.875
X3.995Y-3.875
X4.515Y-2.9
X4.615Y-2.9
X4.715Y-2.9
X3.745Y-4.65
X3.845Y-4.65
X3.945Y-4.65
X4.045Y-4.65
X5.955Y-5.525
X6.055Y-5.525
X6.155Y-5.525
X4.515Y-5.825
X4.615Y-5.825
X4.715Y-5.825
X5.235Y-4.55
X5.335Y-4.55
X5.435Y-4.55
X5.185Y-5.725
X5.285Y-5.725
X5.385Y-5.725
X5.485Y-5.725
X5.905Y-4.65
X6.005Y-4.65
X6.105Y-4.65
X6.205Y-4.65
X5.905Y-2.7
X6.005Y-2.7
X6.105Y-2.7
X6.205Y-2.7
X4.465Y-2.7
X4.565Y-2.7
X4.665Y-2.7
X4.765Y-2.7
X5.185Y-5.625
X5.285Y-5.625
X5.385Y-5.625
X5.485Y-5.625
X5.235Y-2.6
X5.335Y-2.6
X5.435Y-2.6
X3.745Y-2.7
X3.845Y-2.7
X3.945Y-2.7
X4.045Y-2.7
X3.025Y-4.65
X3.125Y-4.65
X3.225Y-4.65
X3.325Y-4.65
X3.025Y-2.7
X3.125Y-2.7
X3.225Y-2.7
X3.325Y-2.7
X4.515Y-4.55
X4.615Y-4.55
X4.715Y-4.55
X5.955Y-4.55
X6.055Y-4.55
X6.155Y-4.55
X5.235Y-4.85
X5.335Y-4.85
X5.435Y-4.85
X3.025Y-5.725
X3.125Y-5.725
X3.225Y-5.725
X3.325Y-5.725
X5.905Y-5.725
X6.005Y-5.725
X6.105Y-5.725
X6.205Y-5.725
X5.955Y-2.6
X6.055Y-2.6
X6.155Y-2.6
X3.745Y-3.775
X3.845Y-3.775
X3.945Y-3.775
X4.045Y-3.775
X3.075Y-2.9
X3.175Y-2.9
X3.275Y-2.9
X5.185Y-3.675
X5.285Y-3.675
X5.385Y-3.675
X5.485Y-3.675
X3.025Y-2.8
X3.125Y-2.8
X3.225Y-2.8
X3.325Y-2.8
X3.745Y-5.625
X3.845Y-5.625
X3.945Y-5.625
X4.045Y-5.625
X5.905Y-3.775
X6.005Y-3.775
X6.105Y-3.775
X6.205Y-3.775
X4.465Y-3.775
X4.565Y-3.775
X4.665Y-3.775
X4.765Y-3.775
X3.745Y-3.675
X3.845Y-3.675
X3.945Y-3.675
X4.045Y-3.675
X4.515Y-3.575
X4.615Y-3.575
X4.715Y-3.575
X3.795Y-3.575
X3.895Y-3.575
X3.995Y-3.575
X3.075Y-5.825
X3.175Y-5.825
X3.275Y-5.825
X5.955Y-2.9
X6.055Y-2.9
X6.155Y-2.9
X5.955Y-5.825
X6.055Y-5.825
X6.155Y-5.825
X5.955Y-3.575
X6.055Y-3.575
X6.155Y-3.575
X3.025Y-3.775
X3.125Y-3.775
X3.225Y-3.775
X3.325Y-3.775
X5.185Y-2.7
X5.285Y-2.7
X5.385Y-2.7
X5.485Y-2.7
X3.025Y-3.675
X3.125Y-3.675
X3.225Y-3.675
X3.325Y-3.675
X3.075Y-4.55
X3.175Y-4.55
X3.275Y-4.55
X5.905Y-4.75
X6.005Y-4.75
X6.105Y-4.75
X6.205Y-4.75
X3.745Y-4.75
X3.845Y-4.75
X3.945Y-4.75
X4.045Y-4.75
X3.075Y-2.6
X3.175Y-2.6
X3.275Y-2.6
X4.465Y-2.8
X4.565Y-2.8
X4.665Y-2.8
X4.765Y-2.8
X3.025Y-4.75
X3.125Y-4.75
X3.225Y-4.75
X3.325Y-4.75
X5.235Y-2.9
X5.335Y-2.9
X5.435Y-2.9
X4.515Y-2.6
X4.615Y-2.6
X4.715Y-2.6
X4.515Y-4.85
X4.615Y-4.85
X4.715Y-4.85
X5.235Y-5.825
X5.335Y-5.825
X5.435Y-5.825
X3.795Y-5.825
X3.895Y-5.825
X3.995Y-5.825
X5.235Y-5.525
X5.335Y-5.525
X5.435Y-5.525
X3.075Y-5.525
X3.175Y-5.525
X3.275Y-5.525
X3.075Y-4.85
X3.175Y-4.85
X3.275Y-4.85
X5.185Y-4.75
X5.285Y-4.75
X5.385Y-4.75
X5.485Y-4.75
X5.905Y-2.8
X6.005Y-2.8
X6.105Y-2.8
X6.205Y-2.8
X3.795Y-2.9
X3.895Y-2.9
X3.995Y-2.9
X5.905Y-3.675
X6.005Y-3.675
X6.105Y-3.675
X6.205Y-3.675
X3.025Y-5.625
X3.125Y-5.625
X3.225Y-5.625
X3.325Y-5.625
X5.955Y-3.875
X6.055Y-3.875
X6.155Y-3.875
X4.465Y-5.725
X4.565Y-5.725
X4.665Y-5.725
X4.765Y-5.725
X5.235Y-3.875
X5.335Y-3.875
X5.435Y-3.875
X3.745Y-5.725
X3.845Y-5.725
X3.945Y-5.725
X4.045Y-5.725
X5.185Y-3.775
X5.285Y-3.775
X5.385Y-3.775
X5.485Y-3.775
X4.465Y-4.65
X4.565Y-4.65
X4.665Y-4.65
X4.765Y-4.65
X4.465Y-5.625
X4.565Y-5.625
X4.665Y-5.625
X4.765Y-5.625
X3.795Y-2.6
X3.895Y-2.6
X3.995Y-2.6
X5.185Y-4.65
X5.285Y-4.65
X5.385Y-4.65
X5.485Y-4.65
X4.465Y-3.675
X4.565Y-3.675
X4.665Y-3.675
X4.765Y-3.675
X5.955Y-4.85
X6.055Y-4.85
X6.155Y-4.85
T3
X5.0992Y-5.1844
X5.5716Y-5.1844
X5.8192Y-5.1844
X6.2916Y-5.1844
X5.0992Y-2.2594
X5.5716Y-2.2594
X2.9392Y-5.1844
X3.4116Y-5.1844
X3.6592Y-3.2344
X4.1316Y-3.2344
X2.9392Y-3.2344
X3.4116Y-3.2344
X4.3792Y-3.2344
X4.8516Y-3.2344
X5.0992Y-3.2344
X5.5716Y-3.2344
X3.6592Y-2.2594
X4.1316Y-2.2594
X3.6592Y-4.2094
X4.1316Y-4.2094
X5.0992Y-4.2094
X5.5716Y-4.2094
X5.8192Y-2.2594
X6.2916Y-2.2594
X5.8192Y-4.2094
X6.2916Y-4.2094
X4.3792Y-2.2594
X4.8516Y-2.2594
X4.3792Y-4.2094
X4.8516Y-4.2094
X4.3792Y-5.1844
X4.8516Y-5.1844
X2.9392Y-4.2094
X3.4116Y-4.2094
X2.9392Y-2.2594
X3.4116Y-2.2594
X5.8192Y-3.2344
X6.2916Y-3.2344
X3.6592Y-5.1844
X4.1316Y-5.1844
T0
M30
