G04 #@! TF.GenerationSoftware,KiCad,Pcbnew,5.1.5+dfsg1-2build2*
G04 #@! TF.CreationDate,2020-09-11T16:17:58-03:00*
G04 #@! TF.ProjectId,panel2,70616e65-6c32-42e6-9b69-6361645f7063,rev?*
G04 #@! TF.SameCoordinates,Original*
G04 #@! TF.FileFunction,Profile,NP*
%FSLAX46Y46*%
G04 Gerber Fmt 4.6, Leading zero omitted, Abs format (unit mm)*
G04 Created by KiCad (PCBNEW 5.1.5+dfsg1-2build2) date 2020-09-11 16:17:58*
%MOMM*%
%LPD*%
G04 APERTURE LIST*
%ADD10C,0.050000*%
%ADD11C,0.100000*%
G04 APERTURE END LIST*
D10*
X67437000Y-150114000D02*
X71501000Y-150114000D01*
X67437000Y-50927000D02*
X67437000Y-150114000D01*
X72771000Y-49149000D02*
X71501000Y-50546000D01*
X71501000Y-50546000D02*
X71374000Y-50546000D01*
X70104000Y-49022000D02*
X70739000Y-49149000D01*
X70739000Y-46609000D02*
X72263000Y-46609000D01*
X72263000Y-46609000D02*
X72263000Y-49149000D01*
X71247000Y-50546000D02*
X70104000Y-49022000D01*
X72263000Y-49149000D02*
X72771000Y-49149000D01*
X70739000Y-49149000D02*
X70739000Y-46609000D01*
X167132000Y-50927000D02*
X167132000Y-150114000D01*
X163703000Y-46355000D02*
X163703000Y-48895000D01*
X161544000Y-48768000D02*
X162179000Y-48895000D01*
X162687000Y-50292000D02*
X161544000Y-48768000D01*
X162179000Y-46355000D02*
X163703000Y-46355000D01*
X162179000Y-48895000D02*
X162179000Y-46355000D01*
X162941000Y-50292000D02*
X162814000Y-50292000D01*
X163703000Y-48895000D02*
X164211000Y-48895000D01*
X164211000Y-48895000D02*
X162941000Y-50292000D01*
D11*
X162941000Y-50927000D02*
X167132000Y-50927000D01*
X167132000Y-150114000D02*
X162941000Y-150114000D01*
D10*
X89662000Y-50165000D02*
X88519000Y-48641000D01*
X91186000Y-48768000D02*
X89916000Y-50165000D01*
X89154000Y-46228000D02*
X90678000Y-46228000D01*
X89916000Y-50165000D02*
X89789000Y-50165000D01*
X88519000Y-48641000D02*
X89154000Y-48768000D01*
X90678000Y-48768000D02*
X91186000Y-48768000D01*
X90678000Y-46228000D02*
X90678000Y-48768000D01*
X89154000Y-48768000D02*
X89154000Y-46228000D01*
X106680000Y-48387000D02*
X107315000Y-48514000D01*
X109347000Y-48514000D02*
X108077000Y-49911000D01*
X108839000Y-45974000D02*
X108839000Y-48514000D01*
X108839000Y-48514000D02*
X109347000Y-48514000D01*
X107315000Y-48514000D02*
X107315000Y-45974000D01*
X107315000Y-45974000D02*
X108839000Y-45974000D01*
X107823000Y-49911000D02*
X106680000Y-48387000D01*
X108077000Y-49911000D02*
X107950000Y-49911000D01*
X127762000Y-48768000D02*
X126492000Y-50165000D01*
X126238000Y-50165000D02*
X125095000Y-48641000D01*
X127254000Y-46228000D02*
X127254000Y-48768000D01*
X126492000Y-50165000D02*
X126365000Y-50165000D01*
X125095000Y-48641000D02*
X125730000Y-48768000D01*
X127254000Y-48768000D02*
X127762000Y-48768000D01*
X125730000Y-46228000D02*
X127254000Y-46228000D01*
X125730000Y-48768000D02*
X125730000Y-46228000D01*
X144526000Y-50038000D02*
X143383000Y-48514000D01*
X144018000Y-46101000D02*
X145542000Y-46101000D01*
X144780000Y-50038000D02*
X144653000Y-50038000D01*
X146050000Y-48641000D02*
X144780000Y-50038000D01*
X144018000Y-48641000D02*
X144018000Y-46101000D01*
X145542000Y-48641000D02*
X146050000Y-48641000D01*
X143383000Y-48514000D02*
X144018000Y-48641000D01*
X145542000Y-46101000D02*
X145542000Y-48641000D01*
X168148000Y-125222000D02*
X169672000Y-124079000D01*
X172085000Y-126238000D02*
X169545000Y-126238000D01*
X169545000Y-124714000D02*
X172085000Y-124714000D01*
X169545000Y-126746000D02*
X168148000Y-125476000D01*
X169672000Y-124079000D02*
X169545000Y-124714000D01*
X172085000Y-124714000D02*
X172085000Y-126238000D01*
X168148000Y-125476000D02*
X168148000Y-125349000D01*
X169545000Y-126238000D02*
X169545000Y-126746000D01*
X169672000Y-100076000D02*
X172212000Y-100076000D01*
X169799000Y-99441000D02*
X169672000Y-100076000D01*
X172212000Y-101600000D02*
X169672000Y-101600000D01*
X168275000Y-100584000D02*
X169799000Y-99441000D01*
X172212000Y-100076000D02*
X172212000Y-101600000D01*
X168275000Y-100838000D02*
X168275000Y-100711000D01*
X169672000Y-101600000D02*
X169672000Y-102108000D01*
X169672000Y-102108000D02*
X168275000Y-100838000D01*
X168402000Y-75946000D02*
X168402000Y-75819000D01*
X169799000Y-77216000D02*
X168402000Y-75946000D01*
X169799000Y-76708000D02*
X169799000Y-77216000D01*
X172339000Y-76708000D02*
X169799000Y-76708000D01*
X172339000Y-75184000D02*
X172339000Y-76708000D01*
X169799000Y-75184000D02*
X172339000Y-75184000D01*
X169926000Y-74549000D02*
X169799000Y-75184000D01*
X168402000Y-75692000D02*
X169926000Y-74549000D01*
X167132000Y-125349000D02*
X67437000Y-125349000D01*
X67437000Y-100584000D02*
X167132000Y-100584000D01*
X167132000Y-75819000D02*
X67437000Y-75819000D01*
X89789000Y-150114000D02*
X89789000Y-50673000D01*
X108077000Y-50673000D02*
X108077000Y-150114000D01*
X126365000Y-150114000D02*
X126365000Y-50673000D01*
X144653000Y-50673000D02*
X144653000Y-150114000D01*
D11*
X162941000Y-50927000D02*
X162941000Y-150114000D01*
X67437000Y-50927000D02*
X162941000Y-50927000D01*
X71501000Y-150114000D02*
X71501000Y-50927000D01*
X162941000Y-150114000D02*
X71501000Y-150114000D01*
M02*
