G04 #@! TF.GenerationSoftware,KiCad,Pcbnew,5.1.5+dfsg1-2build2*
G04 #@! TF.CreationDate,2020-09-11T16:25:33-03:00*
G04 #@! TF.ProjectId,panel1,70616e65-6c31-42e6-9b69-6361645f7063,rev?*
G04 #@! TF.SameCoordinates,Original*
G04 #@! TF.FileFunction,Copper,L2,Bot*
G04 #@! TF.FilePolarity,Positive*
%FSLAX46Y46*%
G04 Gerber Fmt 4.6, Leading zero omitted, Abs format (unit mm)*
G04 Created by KiCad (PCBNEW 5.1.5+dfsg1-2build2) date 2020-09-11 16:25:33*
%MOMM*%
%LPD*%
G04 APERTURE LIST*
%ADD10C,1.520000*%
%ADD11O,1.520000X1.520000*%
%ADD12R,1.520000X1.520000*%
%ADD13O,1.700000X1.700000*%
%ADD14R,1.700000X1.700000*%
%ADD15C,1.700000*%
%ADD16C,0.250000*%
G04 APERTURE END LIST*
D10*
X148737000Y-106045000D03*
X147717000Y-108585000D03*
X146697000Y-106045000D03*
D11*
X145677000Y-108585000D03*
D12*
X144657000Y-106045000D03*
D10*
X143637000Y-108585000D03*
D13*
X149987000Y-114935000D03*
X147447000Y-114935000D03*
X144907000Y-114935000D03*
D14*
X142367000Y-114935000D03*
D13*
X149987000Y-65405000D03*
X147447000Y-65405000D03*
X144907000Y-65405000D03*
D14*
X142367000Y-65405000D03*
D15*
X143637000Y-87630000D03*
D14*
X146177000Y-87630000D03*
D13*
X148717000Y-87630000D03*
X149987000Y-67945000D03*
X147447000Y-67945000D03*
X144907000Y-67945000D03*
D14*
X142367000Y-67945000D03*
D15*
X139827000Y-144780000D03*
D14*
X142367000Y-144780000D03*
D13*
X144907000Y-144780000D03*
X147447000Y-144780000D03*
X149987000Y-144780000D03*
X152527000Y-144780000D03*
X149987000Y-117475000D03*
X147447000Y-117475000D03*
X144907000Y-117475000D03*
D14*
X142367000Y-117475000D03*
D10*
X143637000Y-133350000D03*
D12*
X144657000Y-130810000D03*
D11*
X145677000Y-133350000D03*
D10*
X146697000Y-130810000D03*
X147717000Y-133350000D03*
X148737000Y-130810000D03*
D15*
X139827000Y-95250000D03*
D14*
X142367000Y-95250000D03*
D13*
X144907000Y-95250000D03*
X147447000Y-95250000D03*
X149987000Y-95250000D03*
X152527000Y-95250000D03*
D10*
X143637000Y-83820000D03*
D12*
X144657000Y-81280000D03*
D11*
X145677000Y-83820000D03*
D10*
X146697000Y-81280000D03*
X147717000Y-83820000D03*
X148737000Y-81280000D03*
D13*
X152527000Y-120015000D03*
X149987000Y-120015000D03*
X147447000Y-120015000D03*
X144907000Y-120015000D03*
D14*
X142367000Y-120015000D03*
D15*
X139827000Y-120015000D03*
D14*
X142367000Y-139700000D03*
D13*
X144907000Y-139700000D03*
X147447000Y-139700000D03*
X149987000Y-139700000D03*
D15*
X143637000Y-137160000D03*
D14*
X146177000Y-137160000D03*
D13*
X148717000Y-137160000D03*
D14*
X142367000Y-142240000D03*
D13*
X144907000Y-142240000D03*
X147447000Y-142240000D03*
X149987000Y-142240000D03*
X148717000Y-112395000D03*
D14*
X146177000Y-112395000D03*
D15*
X143637000Y-112395000D03*
D14*
X142367000Y-92710000D03*
D13*
X144907000Y-92710000D03*
X147447000Y-92710000D03*
X149987000Y-92710000D03*
X152527000Y-70485000D03*
X149987000Y-70485000D03*
X147447000Y-70485000D03*
X144907000Y-70485000D03*
D14*
X142367000Y-70485000D03*
D15*
X139827000Y-70485000D03*
D10*
X148737000Y-56515000D03*
X147717000Y-59055000D03*
X146697000Y-56515000D03*
D11*
X145677000Y-59055000D03*
D12*
X144657000Y-56515000D03*
D10*
X143637000Y-59055000D03*
D14*
X142367000Y-90170000D03*
D13*
X144907000Y-90170000D03*
X147447000Y-90170000D03*
X149987000Y-90170000D03*
X148717000Y-62865000D03*
D14*
X146177000Y-62865000D03*
D15*
X143637000Y-62865000D03*
D14*
X124079000Y-114935000D03*
D13*
X126619000Y-114935000D03*
X129159000Y-114935000D03*
X131699000Y-114935000D03*
X130429000Y-137160000D03*
D14*
X127889000Y-137160000D03*
D15*
X125349000Y-137160000D03*
D14*
X124079000Y-67945000D03*
D13*
X126619000Y-67945000D03*
X129159000Y-67945000D03*
X131699000Y-67945000D03*
D15*
X125349000Y-62865000D03*
D14*
X127889000Y-62865000D03*
D13*
X130429000Y-62865000D03*
X131699000Y-142240000D03*
X129159000Y-142240000D03*
X126619000Y-142240000D03*
D14*
X124079000Y-142240000D03*
D10*
X130449000Y-130810000D03*
X129429000Y-133350000D03*
X128409000Y-130810000D03*
D11*
X127389000Y-133350000D03*
D12*
X126369000Y-130810000D03*
D10*
X125349000Y-133350000D03*
D13*
X131699000Y-90170000D03*
X129159000Y-90170000D03*
X126619000Y-90170000D03*
D14*
X124079000Y-90170000D03*
X124079000Y-117475000D03*
D13*
X126619000Y-117475000D03*
X129159000Y-117475000D03*
X131699000Y-117475000D03*
D15*
X121539000Y-70485000D03*
D14*
X124079000Y-70485000D03*
D13*
X126619000Y-70485000D03*
X129159000Y-70485000D03*
X131699000Y-70485000D03*
X134239000Y-70485000D03*
D15*
X121539000Y-120015000D03*
D14*
X124079000Y-120015000D03*
D13*
X126619000Y-120015000D03*
X129159000Y-120015000D03*
X131699000Y-120015000D03*
X134239000Y-120015000D03*
D10*
X125349000Y-59055000D03*
D12*
X126369000Y-56515000D03*
D11*
X127389000Y-59055000D03*
D10*
X128409000Y-56515000D03*
X129429000Y-59055000D03*
X130449000Y-56515000D03*
D13*
X131699000Y-139700000D03*
X129159000Y-139700000D03*
X126619000Y-139700000D03*
D14*
X124079000Y-139700000D03*
D10*
X130449000Y-81280000D03*
X129429000Y-83820000D03*
X128409000Y-81280000D03*
D11*
X127389000Y-83820000D03*
D12*
X126369000Y-81280000D03*
D10*
X125349000Y-83820000D03*
X125349000Y-108585000D03*
D12*
X126369000Y-106045000D03*
D11*
X127389000Y-108585000D03*
D10*
X128409000Y-106045000D03*
X129429000Y-108585000D03*
X130449000Y-106045000D03*
D13*
X134239000Y-95250000D03*
X131699000Y-95250000D03*
X129159000Y-95250000D03*
X126619000Y-95250000D03*
D14*
X124079000Y-95250000D03*
D15*
X121539000Y-95250000D03*
D13*
X130429000Y-87630000D03*
D14*
X127889000Y-87630000D03*
D15*
X125349000Y-87630000D03*
D13*
X134239000Y-144780000D03*
X131699000Y-144780000D03*
X129159000Y-144780000D03*
X126619000Y-144780000D03*
D14*
X124079000Y-144780000D03*
D15*
X121539000Y-144780000D03*
D13*
X131699000Y-92710000D03*
X129159000Y-92710000D03*
X126619000Y-92710000D03*
D14*
X124079000Y-92710000D03*
D15*
X125349000Y-112395000D03*
D14*
X127889000Y-112395000D03*
D13*
X130429000Y-112395000D03*
D14*
X124079000Y-65405000D03*
D13*
X126619000Y-65405000D03*
X129159000Y-65405000D03*
X131699000Y-65405000D03*
D14*
X105791000Y-139700000D03*
D13*
X108331000Y-139700000D03*
X110871000Y-139700000D03*
X113411000Y-139700000D03*
X113411000Y-67945000D03*
X110871000Y-67945000D03*
X108331000Y-67945000D03*
D14*
X105791000Y-67945000D03*
D13*
X112141000Y-62865000D03*
D14*
X109601000Y-62865000D03*
D15*
X107061000Y-62865000D03*
D10*
X112161000Y-106045000D03*
X111141000Y-108585000D03*
X110121000Y-106045000D03*
D11*
X109101000Y-108585000D03*
D12*
X108081000Y-106045000D03*
D10*
X107061000Y-108585000D03*
D13*
X113411000Y-117475000D03*
X110871000Y-117475000D03*
X108331000Y-117475000D03*
D14*
X105791000Y-117475000D03*
D10*
X107061000Y-83820000D03*
D12*
X108081000Y-81280000D03*
D11*
X109101000Y-83820000D03*
D10*
X110121000Y-81280000D03*
X111141000Y-83820000D03*
X112161000Y-81280000D03*
D15*
X107061000Y-87630000D03*
D14*
X109601000Y-87630000D03*
D13*
X112141000Y-87630000D03*
D14*
X105791000Y-92710000D03*
D13*
X108331000Y-92710000D03*
X110871000Y-92710000D03*
X113411000Y-92710000D03*
D14*
X105791000Y-142240000D03*
D13*
X108331000Y-142240000D03*
X110871000Y-142240000D03*
X113411000Y-142240000D03*
D10*
X112161000Y-56515000D03*
X111141000Y-59055000D03*
X110121000Y-56515000D03*
D11*
X109101000Y-59055000D03*
D12*
X108081000Y-56515000D03*
D10*
X107061000Y-59055000D03*
D13*
X115951000Y-70485000D03*
X113411000Y-70485000D03*
X110871000Y-70485000D03*
X108331000Y-70485000D03*
D14*
X105791000Y-70485000D03*
D15*
X103251000Y-70485000D03*
X103251000Y-95250000D03*
D14*
X105791000Y-95250000D03*
D13*
X108331000Y-95250000D03*
X110871000Y-95250000D03*
X113411000Y-95250000D03*
X115951000Y-95250000D03*
D14*
X105791000Y-90170000D03*
D13*
X108331000Y-90170000D03*
X110871000Y-90170000D03*
X113411000Y-90170000D03*
D10*
X107061000Y-133350000D03*
D12*
X108081000Y-130810000D03*
D11*
X109101000Y-133350000D03*
D10*
X110121000Y-130810000D03*
X111141000Y-133350000D03*
X112161000Y-130810000D03*
D13*
X115951000Y-120015000D03*
X113411000Y-120015000D03*
X110871000Y-120015000D03*
X108331000Y-120015000D03*
D14*
X105791000Y-120015000D03*
D15*
X103251000Y-120015000D03*
D13*
X112141000Y-112395000D03*
D14*
X109601000Y-112395000D03*
D15*
X107061000Y-112395000D03*
D13*
X113411000Y-114935000D03*
X110871000Y-114935000D03*
X108331000Y-114935000D03*
D14*
X105791000Y-114935000D03*
D15*
X107061000Y-137160000D03*
D14*
X109601000Y-137160000D03*
D13*
X112141000Y-137160000D03*
X113411000Y-65405000D03*
X110871000Y-65405000D03*
X108331000Y-65405000D03*
D14*
X105791000Y-65405000D03*
D15*
X103251000Y-144780000D03*
D14*
X105791000Y-144780000D03*
D13*
X108331000Y-144780000D03*
X110871000Y-144780000D03*
X113411000Y-144780000D03*
X115951000Y-144780000D03*
D15*
X88773000Y-62865000D03*
D14*
X91313000Y-62865000D03*
D13*
X93853000Y-62865000D03*
X93853000Y-137160000D03*
D14*
X91313000Y-137160000D03*
D15*
X88773000Y-137160000D03*
D14*
X87503000Y-117475000D03*
D13*
X90043000Y-117475000D03*
X92583000Y-117475000D03*
X95123000Y-117475000D03*
X95123000Y-142240000D03*
X92583000Y-142240000D03*
X90043000Y-142240000D03*
D14*
X87503000Y-142240000D03*
D13*
X97663000Y-95250000D03*
X95123000Y-95250000D03*
X92583000Y-95250000D03*
X90043000Y-95250000D03*
D14*
X87503000Y-95250000D03*
D15*
X84963000Y-95250000D03*
D13*
X95123000Y-92710000D03*
X92583000Y-92710000D03*
X90043000Y-92710000D03*
D14*
X87503000Y-92710000D03*
D10*
X88773000Y-108585000D03*
D12*
X89793000Y-106045000D03*
D11*
X90813000Y-108585000D03*
D10*
X91833000Y-106045000D03*
X92853000Y-108585000D03*
X93873000Y-106045000D03*
X88773000Y-59055000D03*
D12*
X89793000Y-56515000D03*
D11*
X90813000Y-59055000D03*
D10*
X91833000Y-56515000D03*
X92853000Y-59055000D03*
X93873000Y-56515000D03*
X93873000Y-130810000D03*
X92853000Y-133350000D03*
X91833000Y-130810000D03*
D11*
X90813000Y-133350000D03*
D12*
X89793000Y-130810000D03*
D10*
X88773000Y-133350000D03*
D15*
X84963000Y-70485000D03*
D14*
X87503000Y-70485000D03*
D13*
X90043000Y-70485000D03*
X92583000Y-70485000D03*
X95123000Y-70485000D03*
X97663000Y-70485000D03*
D14*
X87503000Y-67945000D03*
D13*
X90043000Y-67945000D03*
X92583000Y-67945000D03*
X95123000Y-67945000D03*
X95123000Y-139700000D03*
X92583000Y-139700000D03*
X90043000Y-139700000D03*
D14*
X87503000Y-139700000D03*
X87503000Y-114935000D03*
D13*
X90043000Y-114935000D03*
X92583000Y-114935000D03*
X95123000Y-114935000D03*
X97663000Y-144780000D03*
X95123000Y-144780000D03*
X92583000Y-144780000D03*
X90043000Y-144780000D03*
D14*
X87503000Y-144780000D03*
D15*
X84963000Y-144780000D03*
D14*
X87503000Y-65405000D03*
D13*
X90043000Y-65405000D03*
X92583000Y-65405000D03*
X95123000Y-65405000D03*
X95123000Y-90170000D03*
X92583000Y-90170000D03*
X90043000Y-90170000D03*
D14*
X87503000Y-90170000D03*
D15*
X84963000Y-120015000D03*
D14*
X87503000Y-120015000D03*
D13*
X90043000Y-120015000D03*
X92583000Y-120015000D03*
X95123000Y-120015000D03*
X97663000Y-120015000D03*
D10*
X93873000Y-81280000D03*
X92853000Y-83820000D03*
X91833000Y-81280000D03*
D11*
X90813000Y-83820000D03*
D12*
X89793000Y-81280000D03*
D10*
X88773000Y-83820000D03*
D13*
X93853000Y-87630000D03*
D14*
X91313000Y-87630000D03*
D15*
X88773000Y-87630000D03*
X88773000Y-112395000D03*
D14*
X91313000Y-112395000D03*
D13*
X93853000Y-112395000D03*
D14*
X69215000Y-139700000D03*
D13*
X71755000Y-139700000D03*
X74295000Y-139700000D03*
X76835000Y-139700000D03*
D15*
X70485000Y-137160000D03*
D14*
X73025000Y-137160000D03*
D13*
X75565000Y-137160000D03*
D14*
X69215000Y-142240000D03*
D13*
X71755000Y-142240000D03*
X74295000Y-142240000D03*
X76835000Y-142240000D03*
D10*
X70485000Y-133350000D03*
D12*
X71505000Y-130810000D03*
D11*
X72525000Y-133350000D03*
D10*
X73545000Y-130810000D03*
X74565000Y-133350000D03*
X75585000Y-130810000D03*
D15*
X66675000Y-144780000D03*
D14*
X69215000Y-144780000D03*
D13*
X71755000Y-144780000D03*
X74295000Y-144780000D03*
X76835000Y-144780000D03*
X79375000Y-144780000D03*
X76835000Y-117475000D03*
X74295000Y-117475000D03*
X71755000Y-117475000D03*
D14*
X69215000Y-117475000D03*
D13*
X79375000Y-120015000D03*
X76835000Y-120015000D03*
X74295000Y-120015000D03*
X71755000Y-120015000D03*
D14*
X69215000Y-120015000D03*
D15*
X66675000Y-120015000D03*
D13*
X75565000Y-112395000D03*
D14*
X73025000Y-112395000D03*
D15*
X70485000Y-112395000D03*
D13*
X76835000Y-114935000D03*
X74295000Y-114935000D03*
X71755000Y-114935000D03*
D14*
X69215000Y-114935000D03*
D10*
X75585000Y-106045000D03*
X74565000Y-108585000D03*
X73545000Y-106045000D03*
D11*
X72525000Y-108585000D03*
D12*
X71505000Y-106045000D03*
D10*
X70485000Y-108585000D03*
D15*
X66675000Y-95250000D03*
D14*
X69215000Y-95250000D03*
D13*
X71755000Y-95250000D03*
X74295000Y-95250000D03*
X76835000Y-95250000D03*
X79375000Y-95250000D03*
D10*
X70485000Y-83820000D03*
D12*
X71505000Y-81280000D03*
D11*
X72525000Y-83820000D03*
D10*
X73545000Y-81280000D03*
X74565000Y-83820000D03*
X75585000Y-81280000D03*
D14*
X69215000Y-90170000D03*
D13*
X71755000Y-90170000D03*
X74295000Y-90170000D03*
X76835000Y-90170000D03*
D14*
X69215000Y-92710000D03*
D13*
X71755000Y-92710000D03*
X74295000Y-92710000D03*
X76835000Y-92710000D03*
D15*
X70485000Y-87630000D03*
D14*
X73025000Y-87630000D03*
D13*
X75565000Y-87630000D03*
X79375000Y-70485000D03*
X76835000Y-70485000D03*
X74295000Y-70485000D03*
X71755000Y-70485000D03*
D14*
X69215000Y-70485000D03*
D15*
X66675000Y-70485000D03*
D10*
X75585000Y-56515000D03*
X74565000Y-59055000D03*
X73545000Y-56515000D03*
D11*
X72525000Y-59055000D03*
D12*
X71505000Y-56515000D03*
D10*
X70485000Y-59055000D03*
D13*
X76835000Y-67945000D03*
X74295000Y-67945000D03*
X71755000Y-67945000D03*
D14*
X69215000Y-67945000D03*
D13*
X76835000Y-65405000D03*
X74295000Y-65405000D03*
X71755000Y-65405000D03*
D14*
X69215000Y-65405000D03*
D13*
X75565000Y-62865000D03*
D14*
X73025000Y-62865000D03*
D15*
X70485000Y-62865000D03*
D16*
X72525000Y-60825000D02*
X70485000Y-62865000D01*
X72525000Y-59055000D02*
X72525000Y-60825000D01*
X75985001Y-64555001D02*
X76835000Y-65405000D01*
X75659999Y-64229999D02*
X75985001Y-64555001D01*
X71849999Y-64229999D02*
X75659999Y-64229999D01*
X70485000Y-62865000D02*
X71849999Y-64229999D01*
X70485000Y-66675000D02*
X71755000Y-67945000D01*
X70485000Y-62865000D02*
X70485000Y-66675000D01*
X71755000Y-67945000D02*
X71755000Y-70485000D01*
X75985001Y-89320001D02*
X76835000Y-90170000D01*
X72525000Y-85590000D02*
X70485000Y-87630000D01*
X71849999Y-88994999D02*
X75659999Y-88994999D01*
X72525000Y-83820000D02*
X72525000Y-85590000D01*
X71755000Y-92710000D02*
X71755000Y-95250000D01*
X70485000Y-87630000D02*
X70485000Y-91440000D01*
X70485000Y-91440000D02*
X71755000Y-92710000D01*
X70485000Y-87630000D02*
X71849999Y-88994999D01*
X75659999Y-88994999D02*
X75985001Y-89320001D01*
X72525000Y-108585000D02*
X72525000Y-110355000D01*
X71849999Y-113759999D02*
X75659999Y-113759999D01*
X72525000Y-110355000D02*
X70485000Y-112395000D01*
X75659999Y-113759999D02*
X75985001Y-114085001D01*
X70485000Y-112395000D02*
X71849999Y-113759999D01*
X70485000Y-112395000D02*
X70485000Y-116205000D01*
X71755000Y-117475000D02*
X71755000Y-120015000D01*
X70485000Y-116205000D02*
X71755000Y-117475000D01*
X75985001Y-114085001D02*
X76835000Y-114935000D01*
X71849999Y-138524999D02*
X75659999Y-138524999D01*
X72525000Y-135120000D02*
X70485000Y-137160000D01*
X75659999Y-138524999D02*
X75985001Y-138850001D01*
X71755000Y-142240000D02*
X71755000Y-144780000D01*
X70485000Y-140970000D02*
X71755000Y-142240000D01*
X72525000Y-133350000D02*
X72525000Y-135120000D01*
X75985001Y-138850001D02*
X76835000Y-139700000D01*
X70485000Y-137160000D02*
X70485000Y-140970000D01*
X70485000Y-137160000D02*
X71849999Y-138524999D01*
X93947999Y-113759999D02*
X94273001Y-114085001D01*
X88773000Y-112395000D02*
X90137999Y-113759999D01*
X88773000Y-112395000D02*
X88773000Y-116205000D01*
X94273001Y-138850001D02*
X95123000Y-139700000D01*
X88773000Y-137160000D02*
X88773000Y-140970000D01*
X90813000Y-110355000D02*
X88773000Y-112395000D01*
X90137999Y-64229999D02*
X93947999Y-64229999D01*
X88773000Y-62865000D02*
X90137999Y-64229999D01*
X94273001Y-89320001D02*
X95123000Y-90170000D01*
X90813000Y-85590000D02*
X88773000Y-87630000D01*
X93947999Y-138524999D02*
X94273001Y-138850001D01*
X88773000Y-66675000D02*
X90043000Y-67945000D01*
X88773000Y-62865000D02*
X88773000Y-66675000D01*
X90043000Y-67945000D02*
X90043000Y-70485000D01*
X93947999Y-88994999D02*
X94273001Y-89320001D01*
X90043000Y-142240000D02*
X90043000Y-144780000D01*
X88773000Y-140970000D02*
X90043000Y-142240000D01*
X90813000Y-108585000D02*
X90813000Y-110355000D01*
X90137999Y-113759999D02*
X93947999Y-113759999D01*
X90137999Y-88994999D02*
X93947999Y-88994999D01*
X88773000Y-91440000D02*
X90043000Y-92710000D01*
X88773000Y-87630000D02*
X90137999Y-88994999D01*
X90043000Y-117475000D02*
X90043000Y-120015000D01*
X88773000Y-116205000D02*
X90043000Y-117475000D01*
X88773000Y-137160000D02*
X90137999Y-138524999D01*
X90813000Y-60825000D02*
X88773000Y-62865000D01*
X90813000Y-59055000D02*
X90813000Y-60825000D01*
X90137999Y-138524999D02*
X93947999Y-138524999D01*
X90813000Y-135120000D02*
X88773000Y-137160000D01*
X94273001Y-64555001D02*
X95123000Y-65405000D01*
X93947999Y-64229999D02*
X94273001Y-64555001D01*
X90813000Y-83820000D02*
X90813000Y-85590000D01*
X90043000Y-92710000D02*
X90043000Y-95250000D01*
X90813000Y-133350000D02*
X90813000Y-135120000D01*
X94273001Y-114085001D02*
X95123000Y-114935000D01*
X88773000Y-87630000D02*
X88773000Y-91440000D01*
X109101000Y-108585000D02*
X109101000Y-110355000D01*
X107061000Y-116205000D02*
X108331000Y-117475000D01*
X108425999Y-88994999D02*
X112235999Y-88994999D01*
X107061000Y-62865000D02*
X107061000Y-66675000D01*
X108331000Y-117475000D02*
X108331000Y-120015000D01*
X108331000Y-67945000D02*
X108331000Y-70485000D01*
X109101000Y-133350000D02*
X109101000Y-135120000D01*
X112235999Y-64229999D02*
X112561001Y-64555001D01*
X107061000Y-91440000D02*
X108331000Y-92710000D01*
X107061000Y-66675000D02*
X108331000Y-67945000D01*
X107061000Y-87630000D02*
X108425999Y-88994999D01*
X109101000Y-59055000D02*
X109101000Y-60825000D01*
X108425999Y-138524999D02*
X112235999Y-138524999D01*
X107061000Y-112395000D02*
X108425999Y-113759999D01*
X109101000Y-135120000D02*
X107061000Y-137160000D01*
X112561001Y-138850001D02*
X113411000Y-139700000D01*
X112561001Y-89320001D02*
X113411000Y-90170000D01*
X107061000Y-137160000D02*
X107061000Y-140970000D01*
X112561001Y-114085001D02*
X113411000Y-114935000D01*
X107061000Y-137160000D02*
X108425999Y-138524999D01*
X109101000Y-85590000D02*
X107061000Y-87630000D01*
X108425999Y-64229999D02*
X112235999Y-64229999D01*
X112235999Y-138524999D02*
X112561001Y-138850001D01*
X107061000Y-87630000D02*
X107061000Y-91440000D01*
X112561001Y-64555001D02*
X113411000Y-65405000D01*
X108425999Y-113759999D02*
X112235999Y-113759999D01*
X107061000Y-62865000D02*
X108425999Y-64229999D01*
X108331000Y-92710000D02*
X108331000Y-95250000D01*
X109101000Y-110355000D02*
X107061000Y-112395000D01*
X108331000Y-142240000D02*
X108331000Y-144780000D01*
X109101000Y-83820000D02*
X109101000Y-85590000D01*
X112235999Y-113759999D02*
X112561001Y-114085001D01*
X107061000Y-140970000D02*
X108331000Y-142240000D01*
X109101000Y-60825000D02*
X107061000Y-62865000D01*
X112235999Y-88994999D02*
X112561001Y-89320001D01*
X107061000Y-112395000D02*
X107061000Y-116205000D01*
X130523999Y-138524999D02*
X130849001Y-138850001D01*
X125349000Y-116205000D02*
X126619000Y-117475000D01*
X126713999Y-113759999D02*
X130523999Y-113759999D01*
X125349000Y-140970000D02*
X126619000Y-142240000D01*
X127389000Y-133350000D02*
X127389000Y-135120000D01*
X127389000Y-85590000D02*
X125349000Y-87630000D01*
X126619000Y-142240000D02*
X126619000Y-144780000D01*
X126619000Y-67945000D02*
X126619000Y-70485000D01*
X125349000Y-137160000D02*
X125349000Y-140970000D01*
X127389000Y-83820000D02*
X127389000Y-85590000D01*
X126619000Y-92710000D02*
X126619000Y-95250000D01*
X130849001Y-138850001D02*
X131699000Y-139700000D01*
X130523999Y-88994999D02*
X130849001Y-89320001D01*
X126713999Y-88994999D02*
X130523999Y-88994999D01*
X130849001Y-89320001D02*
X131699000Y-90170000D01*
X127389000Y-108585000D02*
X127389000Y-110355000D01*
X125349000Y-66675000D02*
X126619000Y-67945000D01*
X125349000Y-91440000D02*
X126619000Y-92710000D01*
X125349000Y-137160000D02*
X126713999Y-138524999D01*
X126619000Y-117475000D02*
X126619000Y-120015000D01*
X130523999Y-64229999D02*
X130849001Y-64555001D01*
X127389000Y-60825000D02*
X125349000Y-62865000D01*
X125349000Y-62865000D02*
X126713999Y-64229999D01*
X126713999Y-64229999D02*
X130523999Y-64229999D01*
X130523999Y-113759999D02*
X130849001Y-114085001D01*
X127389000Y-110355000D02*
X125349000Y-112395000D01*
X125349000Y-87630000D02*
X126713999Y-88994999D01*
X125349000Y-112395000D02*
X126713999Y-113759999D01*
X130849001Y-114085001D02*
X131699000Y-114935000D01*
X125349000Y-62865000D02*
X125349000Y-66675000D01*
X127389000Y-59055000D02*
X127389000Y-60825000D01*
X125349000Y-87630000D02*
X125349000Y-91440000D01*
X127389000Y-135120000D02*
X125349000Y-137160000D01*
X130849001Y-64555001D02*
X131699000Y-65405000D01*
X125349000Y-112395000D02*
X125349000Y-116205000D01*
X126713999Y-138524999D02*
X130523999Y-138524999D01*
X143637000Y-137160000D02*
X143637000Y-140970000D01*
X143637000Y-116205000D02*
X144907000Y-117475000D01*
X143637000Y-140970000D02*
X144907000Y-142240000D01*
X143637000Y-66675000D02*
X144907000Y-67945000D01*
X143637000Y-62865000D02*
X143637000Y-66675000D01*
X148811999Y-88994999D02*
X149137001Y-89320001D01*
X145677000Y-85590000D02*
X143637000Y-87630000D01*
X148811999Y-138524999D02*
X149137001Y-138850001D01*
X149137001Y-138850001D02*
X149987000Y-139700000D01*
X149137001Y-89320001D02*
X149987000Y-90170000D01*
X145001999Y-88994999D02*
X148811999Y-88994999D01*
X145677000Y-60825000D02*
X143637000Y-62865000D01*
X143637000Y-62865000D02*
X145001999Y-64229999D01*
X145677000Y-59055000D02*
X145677000Y-60825000D01*
X143637000Y-87630000D02*
X145001999Y-88994999D01*
X145677000Y-108585000D02*
X145677000Y-110355000D01*
X148811999Y-64229999D02*
X149137001Y-64555001D01*
X145001999Y-138524999D02*
X148811999Y-138524999D01*
X143637000Y-112395000D02*
X145001999Y-113759999D01*
X145677000Y-133350000D02*
X145677000Y-135120000D01*
X143637000Y-91440000D02*
X144907000Y-92710000D01*
X149137001Y-114085001D02*
X149987000Y-114935000D01*
X143637000Y-87630000D02*
X143637000Y-91440000D01*
X145677000Y-135120000D02*
X143637000Y-137160000D01*
X144907000Y-92710000D02*
X144907000Y-95250000D01*
X144907000Y-67945000D02*
X144907000Y-70485000D01*
X143637000Y-137160000D02*
X145001999Y-138524999D01*
X145001999Y-113759999D02*
X148811999Y-113759999D01*
X148811999Y-113759999D02*
X149137001Y-114085001D01*
X145677000Y-110355000D02*
X143637000Y-112395000D01*
X145001999Y-64229999D02*
X148811999Y-64229999D01*
X144907000Y-117475000D02*
X144907000Y-120015000D01*
X149137001Y-64555001D02*
X149987000Y-65405000D01*
X144907000Y-142240000D02*
X144907000Y-144780000D01*
X143637000Y-112395000D02*
X143637000Y-116205000D01*
X145677000Y-83820000D02*
X145677000Y-85590000D01*
X74465000Y-59055000D02*
X74565000Y-59055000D01*
X77684999Y-69635001D02*
X76835000Y-70485000D01*
X78010001Y-63574803D02*
X78010001Y-69309999D01*
X74565000Y-60129802D02*
X78010001Y-63574803D01*
X78010001Y-69309999D02*
X77684999Y-69635001D01*
X74565000Y-59055000D02*
X74565000Y-60129802D01*
X76835000Y-70485000D02*
X74295000Y-67945000D01*
X74295000Y-67945000D02*
X74295000Y-65405000D01*
X74565000Y-83820000D02*
X74565000Y-84894802D01*
X74565000Y-84894802D02*
X78010001Y-88339803D01*
X74295000Y-92710000D02*
X74295000Y-90170000D01*
X74465000Y-83820000D02*
X74565000Y-83820000D01*
X78010001Y-94074999D02*
X77684999Y-94400001D01*
X78010001Y-88339803D02*
X78010001Y-94074999D01*
X76835000Y-95250000D02*
X74295000Y-92710000D01*
X77684999Y-94400001D02*
X76835000Y-95250000D01*
X74295000Y-117475000D02*
X74295000Y-114935000D01*
X77684999Y-119165001D02*
X76835000Y-120015000D01*
X76835000Y-120015000D02*
X74295000Y-117475000D01*
X74565000Y-109659802D02*
X78010001Y-113104803D01*
X74465000Y-108585000D02*
X74565000Y-108585000D01*
X78010001Y-113104803D02*
X78010001Y-118839999D01*
X78010001Y-118839999D02*
X77684999Y-119165001D01*
X74565000Y-108585000D02*
X74565000Y-109659802D01*
X76835000Y-144780000D02*
X74295000Y-142240000D01*
X77684999Y-143930001D02*
X76835000Y-144780000D01*
X74565000Y-133350000D02*
X74565000Y-134424802D01*
X74565000Y-134424802D02*
X78010001Y-137869803D01*
X74465000Y-133350000D02*
X74565000Y-133350000D01*
X78010001Y-143604999D02*
X77684999Y-143930001D01*
X74295000Y-142240000D02*
X74295000Y-139700000D01*
X78010001Y-137869803D02*
X78010001Y-143604999D01*
X92853000Y-60129802D02*
X96298001Y-63574803D01*
X95972999Y-143930001D02*
X95123000Y-144780000D01*
X92853000Y-133350000D02*
X92853000Y-134424802D01*
X92853000Y-134424802D02*
X96298001Y-137869803D01*
X96298001Y-137869803D02*
X96298001Y-143604999D01*
X92583000Y-67945000D02*
X92583000Y-65405000D01*
X92853000Y-83820000D02*
X92853000Y-84894802D01*
X95123000Y-120015000D02*
X92583000Y-117475000D01*
X92853000Y-109659802D02*
X96298001Y-113104803D01*
X92753000Y-108585000D02*
X92853000Y-108585000D01*
X95972999Y-94400001D02*
X95123000Y-95250000D01*
X92583000Y-117475000D02*
X92583000Y-114935000D01*
X95972999Y-119165001D02*
X95123000Y-120015000D01*
X96298001Y-113104803D02*
X96298001Y-118839999D01*
X96298001Y-69309999D02*
X95972999Y-69635001D01*
X92853000Y-59055000D02*
X92853000Y-60129802D01*
X95123000Y-70485000D02*
X92583000Y-67945000D01*
X96298001Y-94074999D02*
X95972999Y-94400001D01*
X96298001Y-88339803D02*
X96298001Y-94074999D01*
X95123000Y-95250000D02*
X92583000Y-92710000D01*
X92753000Y-59055000D02*
X92853000Y-59055000D01*
X95972999Y-69635001D02*
X95123000Y-70485000D01*
X96298001Y-63574803D02*
X96298001Y-69309999D01*
X96298001Y-118839999D02*
X95972999Y-119165001D01*
X92853000Y-108585000D02*
X92853000Y-109659802D01*
X95123000Y-144780000D02*
X92583000Y-142240000D01*
X92853000Y-84894802D02*
X96298001Y-88339803D01*
X92583000Y-92710000D02*
X92583000Y-90170000D01*
X92753000Y-83820000D02*
X92853000Y-83820000D01*
X92753000Y-133350000D02*
X92853000Y-133350000D01*
X96298001Y-143604999D02*
X95972999Y-143930001D01*
X92583000Y-142240000D02*
X92583000Y-139700000D01*
X114586001Y-118839999D02*
X114260999Y-119165001D01*
X110871000Y-92710000D02*
X110871000Y-90170000D01*
X111041000Y-133350000D02*
X111141000Y-133350000D01*
X110871000Y-117475000D02*
X110871000Y-114935000D01*
X110871000Y-142240000D02*
X110871000Y-139700000D01*
X114260999Y-143930001D02*
X113411000Y-144780000D01*
X111041000Y-108585000D02*
X111141000Y-108585000D01*
X111141000Y-109659802D02*
X114586001Y-113104803D01*
X114586001Y-88339803D02*
X114586001Y-94074999D01*
X114586001Y-94074999D02*
X114260999Y-94400001D01*
X111141000Y-108585000D02*
X111141000Y-109659802D01*
X113411000Y-144780000D02*
X110871000Y-142240000D01*
X114586001Y-113104803D02*
X114586001Y-118839999D01*
X111141000Y-60129802D02*
X114586001Y-63574803D01*
X113411000Y-70485000D02*
X110871000Y-67945000D01*
X114260999Y-94400001D02*
X113411000Y-95250000D01*
X111141000Y-83820000D02*
X111141000Y-84894802D01*
X111141000Y-133350000D02*
X111141000Y-134424802D01*
X114586001Y-143604999D02*
X114260999Y-143930001D01*
X111141000Y-84894802D02*
X114586001Y-88339803D01*
X114260999Y-119165001D02*
X113411000Y-120015000D01*
X113411000Y-95250000D02*
X110871000Y-92710000D01*
X114260999Y-69635001D02*
X113411000Y-70485000D01*
X114586001Y-69309999D02*
X114260999Y-69635001D01*
X114586001Y-137869803D02*
X114586001Y-143604999D01*
X111041000Y-83820000D02*
X111141000Y-83820000D01*
X111141000Y-59055000D02*
X111141000Y-60129802D01*
X113411000Y-120015000D02*
X110871000Y-117475000D01*
X114586001Y-63574803D02*
X114586001Y-69309999D01*
X110871000Y-67945000D02*
X110871000Y-65405000D01*
X111141000Y-134424802D02*
X114586001Y-137869803D01*
X111041000Y-59055000D02*
X111141000Y-59055000D01*
X129429000Y-60129802D02*
X132874001Y-63574803D01*
X132874001Y-118839999D02*
X132548999Y-119165001D01*
X129429000Y-83820000D02*
X129429000Y-84894802D01*
X129329000Y-59055000D02*
X129429000Y-59055000D01*
X129429000Y-59055000D02*
X129429000Y-60129802D01*
X129429000Y-133350000D02*
X129429000Y-134424802D01*
X132874001Y-137869803D02*
X132874001Y-143604999D01*
X132874001Y-143604999D02*
X132548999Y-143930001D01*
X131699000Y-120015000D02*
X129159000Y-117475000D01*
X129429000Y-109659802D02*
X132874001Y-113104803D01*
X131699000Y-144780000D02*
X129159000Y-142240000D01*
X132548999Y-119165001D02*
X131699000Y-120015000D01*
X131699000Y-95250000D02*
X129159000Y-92710000D01*
X132548999Y-69635001D02*
X131699000Y-70485000D01*
X129429000Y-134424802D02*
X132874001Y-137869803D01*
X132874001Y-94074999D02*
X132548999Y-94400001D01*
X131699000Y-70485000D02*
X129159000Y-67945000D01*
X129159000Y-117475000D02*
X129159000Y-114935000D01*
X132874001Y-88339803D02*
X132874001Y-94074999D01*
X132548999Y-143930001D02*
X131699000Y-144780000D01*
X132874001Y-69309999D02*
X132548999Y-69635001D01*
X129329000Y-83820000D02*
X129429000Y-83820000D01*
X129329000Y-133350000D02*
X129429000Y-133350000D01*
X132874001Y-63574803D02*
X132874001Y-69309999D01*
X129429000Y-84894802D02*
X132874001Y-88339803D01*
X129429000Y-108585000D02*
X129429000Y-109659802D01*
X132548999Y-94400001D02*
X131699000Y-95250000D01*
X129159000Y-67945000D02*
X129159000Y-65405000D01*
X129159000Y-92710000D02*
X129159000Y-90170000D01*
X129159000Y-142240000D02*
X129159000Y-139700000D01*
X132874001Y-113104803D02*
X132874001Y-118839999D01*
X129329000Y-108585000D02*
X129429000Y-108585000D01*
X151162001Y-88339803D02*
X151162001Y-94074999D01*
X147617000Y-83820000D02*
X147717000Y-83820000D01*
X147717000Y-83820000D02*
X147717000Y-84894802D01*
X151162001Y-94074999D02*
X150836999Y-94400001D01*
X147617000Y-133350000D02*
X147717000Y-133350000D01*
X147717000Y-84894802D02*
X151162001Y-88339803D01*
X151162001Y-137869803D02*
X151162001Y-143604999D01*
X151162001Y-143604999D02*
X150836999Y-143930001D01*
X147717000Y-109659802D02*
X151162001Y-113104803D01*
X151162001Y-69309999D02*
X150836999Y-69635001D01*
X147717000Y-60129802D02*
X151162001Y-63574803D01*
X151162001Y-63574803D02*
X151162001Y-69309999D01*
X147717000Y-133350000D02*
X147717000Y-134424802D01*
X150836999Y-119165001D02*
X149987000Y-120015000D01*
X149987000Y-70485000D02*
X147447000Y-67945000D01*
X147717000Y-59055000D02*
X147717000Y-60129802D01*
X147447000Y-67945000D02*
X147447000Y-65405000D01*
X150836999Y-143930001D02*
X149987000Y-144780000D01*
X147717000Y-134424802D02*
X151162001Y-137869803D01*
X147617000Y-108585000D02*
X147717000Y-108585000D01*
X149987000Y-95250000D02*
X147447000Y-92710000D01*
X147447000Y-117475000D02*
X147447000Y-114935000D01*
X150836999Y-94400001D02*
X149987000Y-95250000D01*
X147617000Y-59055000D02*
X147717000Y-59055000D01*
X150836999Y-69635001D02*
X149987000Y-70485000D01*
X149987000Y-144780000D02*
X147447000Y-142240000D01*
X147447000Y-92710000D02*
X147447000Y-90170000D01*
X151162001Y-118839999D02*
X150836999Y-119165001D01*
X149987000Y-120015000D02*
X147447000Y-117475000D01*
X147447000Y-142240000D02*
X147447000Y-139700000D01*
X151162001Y-113104803D02*
X151162001Y-118839999D01*
X147717000Y-108585000D02*
X147717000Y-109659802D01*
X66675000Y-62865000D02*
X66675000Y-70485000D01*
X70485000Y-59055000D02*
X66675000Y-62865000D01*
X70485000Y-83820000D02*
X66675000Y-87630000D01*
X66675000Y-87630000D02*
X66675000Y-95250000D01*
X70485000Y-108585000D02*
X66675000Y-112395000D01*
X66675000Y-112395000D02*
X66675000Y-120015000D01*
X66675000Y-137160000D02*
X66675000Y-144780000D01*
X70485000Y-133350000D02*
X66675000Y-137160000D01*
X88773000Y-83820000D02*
X84963000Y-87630000D01*
X84963000Y-87630000D02*
X84963000Y-95250000D01*
X84963000Y-62865000D02*
X84963000Y-70485000D01*
X88773000Y-59055000D02*
X84963000Y-62865000D01*
X88773000Y-108585000D02*
X84963000Y-112395000D01*
X84963000Y-112395000D02*
X84963000Y-120015000D01*
X84963000Y-137160000D02*
X84963000Y-144780000D01*
X88773000Y-133350000D02*
X84963000Y-137160000D01*
X107061000Y-83820000D02*
X103251000Y-87630000D01*
X103251000Y-137160000D02*
X103251000Y-144780000D01*
X107061000Y-108585000D02*
X103251000Y-112395000D01*
X103251000Y-87630000D02*
X103251000Y-95250000D01*
X107061000Y-59055000D02*
X103251000Y-62865000D01*
X107061000Y-133350000D02*
X103251000Y-137160000D01*
X103251000Y-112395000D02*
X103251000Y-120015000D01*
X103251000Y-62865000D02*
X103251000Y-70485000D01*
X121539000Y-137160000D02*
X121539000Y-144780000D01*
X125349000Y-83820000D02*
X121539000Y-87630000D01*
X125349000Y-59055000D02*
X121539000Y-62865000D01*
X125349000Y-133350000D02*
X121539000Y-137160000D01*
X121539000Y-62865000D02*
X121539000Y-70485000D01*
X121539000Y-112395000D02*
X121539000Y-120015000D01*
X125349000Y-108585000D02*
X121539000Y-112395000D01*
X121539000Y-87630000D02*
X121539000Y-95250000D01*
X139827000Y-112395000D02*
X139827000Y-120015000D01*
X139827000Y-137160000D02*
X139827000Y-144780000D01*
X143637000Y-133350000D02*
X139827000Y-137160000D01*
X139827000Y-62865000D02*
X139827000Y-70485000D01*
X143637000Y-108585000D02*
X139827000Y-112395000D01*
X143637000Y-83820000D02*
X139827000Y-87630000D01*
X139827000Y-87630000D02*
X139827000Y-95250000D01*
X143637000Y-59055000D02*
X139827000Y-62865000D01*
M02*
