M48
; DRILL file {KiCad 5.1.5+dfsg1-2build2} date vie 11 sep 2020 16:25:31
; FORMAT={-:-/ absolute / inch / decimal}
; #@! TF.CreationDate,2020-09-11T16:25:31-03:00
; #@! TF.GenerationSoftware,Kicad,Pcbnew,5.1.5+dfsg1-2build2
FMAT,2
INCH
T1C0.0354
T2C0.0394
T3C0.0906
%
G90
G05
T1
X4.935Y-5.25
X4.9752Y-5.15
X5.0153Y-5.25
X5.0555Y-5.15
X5.0956Y-5.25
X5.1358Y-5.15
X4.215Y-3.3
X4.2552Y-3.2
X4.2953Y-3.3
X4.3355Y-3.2
X4.3756Y-3.3
X4.4158Y-3.2
X5.655Y-2.325
X5.6952Y-2.225
X5.7353Y-2.325
X5.7755Y-2.225
X5.8156Y-2.325
X5.8558Y-2.225
X5.655Y-5.25
X5.6952Y-5.15
X5.7353Y-5.25
X5.7755Y-5.15
X5.8156Y-5.25
X5.8558Y-5.15
X3.495Y-2.325
X3.5352Y-2.225
X3.5753Y-2.325
X3.6155Y-2.225
X3.6556Y-2.325
X3.6958Y-2.225
X4.935Y-4.275
X4.9752Y-4.175
X5.0153Y-4.275
X5.0555Y-4.175
X5.0956Y-4.275
X5.1358Y-4.175
X3.495Y-3.3
X3.5352Y-3.2
X3.5753Y-3.3
X3.6155Y-3.2
X3.6556Y-3.3
X3.6958Y-3.2
X4.215Y-2.325
X4.2552Y-2.225
X4.2953Y-2.325
X4.3355Y-2.225
X4.3756Y-2.325
X4.4158Y-2.225
X4.215Y-5.25
X4.2552Y-5.15
X4.2953Y-5.25
X4.3355Y-5.15
X4.3756Y-5.25
X4.4158Y-5.15
X4.935Y-3.3
X4.9752Y-3.2
X5.0153Y-3.3
X5.0555Y-3.2
X5.0956Y-3.3
X5.1358Y-3.2
X3.495Y-4.275
X3.5352Y-4.175
X3.5753Y-4.275
X3.6155Y-4.175
X3.6556Y-4.275
X3.6958Y-4.175
X5.655Y-4.275
X5.6952Y-4.175
X5.7353Y-4.275
X5.7755Y-4.175
X5.8156Y-4.275
X5.8558Y-4.175
X2.775Y-4.275
X2.8152Y-4.175
X2.8553Y-4.275
X2.8955Y-4.175
X2.9356Y-4.275
X2.9758Y-4.175
X2.775Y-3.3
X2.8152Y-3.2
X2.8553Y-3.3
X2.8955Y-3.2
X2.9356Y-3.3
X2.9758Y-3.2
X2.775Y-2.325
X2.8152Y-2.225
X2.8553Y-2.325
X2.8955Y-2.225
X2.9356Y-2.325
X2.9758Y-2.225
X4.935Y-2.325
X4.9752Y-2.225
X5.0153Y-2.325
X5.0555Y-2.225
X5.0956Y-2.325
X5.1358Y-2.225
X3.495Y-5.25
X3.5352Y-5.15
X3.5753Y-5.25
X3.6155Y-5.15
X3.6556Y-5.25
X3.6958Y-5.15
X4.215Y-4.275
X4.2552Y-4.175
X4.2953Y-4.275
X4.3355Y-4.175
X4.3756Y-4.275
X4.4158Y-4.175
X2.775Y-5.25
X2.8152Y-5.15
X2.8553Y-5.25
X2.8955Y-5.15
X2.9356Y-5.25
X2.9758Y-5.15
X5.655Y-3.3
X5.6952Y-3.2
X5.7353Y-3.3
X5.7755Y-3.2
X5.8156Y-3.3
X5.8558Y-3.2
T2
X5.605Y-2.575
X5.705Y-2.575
X5.805Y-2.575
X5.905Y-2.575
X3.445Y-4.625
X3.545Y-4.625
X3.645Y-4.625
X3.745Y-4.625
X3.345Y-5.7
X3.445Y-5.7
X3.545Y-5.7
X3.645Y-5.7
X3.745Y-5.7
X3.845Y-5.7
X5.505Y-3.75
X5.605Y-3.75
X5.705Y-3.75
X5.805Y-3.75
X5.905Y-3.75
X6.005Y-3.75
X4.885Y-4.525
X4.985Y-4.525
X5.085Y-4.525
X5.185Y-4.525
X4.885Y-4.625
X4.985Y-4.625
X5.085Y-4.625
X5.185Y-4.625
X4.065Y-5.7
X4.165Y-5.7
X4.265Y-5.7
X4.365Y-5.7
X4.465Y-5.7
X4.565Y-5.7
X4.165Y-2.575
X4.265Y-2.575
X4.365Y-2.575
X4.465Y-2.575
X5.505Y-4.725
X5.605Y-4.725
X5.705Y-4.725
X5.805Y-4.725
X5.905Y-4.725
X6.005Y-4.725
X4.885Y-2.575
X4.985Y-2.575
X5.085Y-2.575
X5.185Y-2.575
X4.165Y-3.55
X4.265Y-3.55
X4.365Y-3.55
X4.465Y-3.55
X2.625Y-5.7
X2.725Y-5.7
X2.825Y-5.7
X2.925Y-5.7
X3.025Y-5.7
X3.125Y-5.7
X3.445Y-2.675
X3.545Y-2.675
X3.645Y-2.675
X3.745Y-2.675
X3.345Y-2.775
X3.445Y-2.775
X3.545Y-2.775
X3.645Y-2.775
X3.745Y-2.775
X3.845Y-2.775
X4.785Y-4.725
X4.885Y-4.725
X4.985Y-4.725
X5.085Y-4.725
X5.185Y-4.725
X5.285Y-4.725
X5.605Y-5.6
X5.705Y-5.6
X5.805Y-5.6
X5.905Y-5.6
X3.445Y-2.575
X3.545Y-2.575
X3.645Y-2.575
X3.745Y-2.575
X5.655Y-2.475
X5.755Y-2.475
X5.855Y-2.475
X2.775Y-4.425
X2.875Y-4.425
X2.975Y-4.425
X4.215Y-3.45
X4.315Y-3.45
X4.415Y-3.45
X2.775Y-3.45
X2.875Y-3.45
X2.975Y-3.45
X5.605Y-3.55
X5.705Y-3.55
X5.805Y-3.55
X5.905Y-3.55
X3.495Y-2.475
X3.595Y-2.475
X3.695Y-2.475
X5.655Y-5.4
X5.755Y-5.4
X5.855Y-5.4
X4.165Y-3.65
X4.265Y-3.65
X4.365Y-3.65
X4.465Y-3.65
X4.935Y-4.425
X5.035Y-4.425
X5.135Y-4.425
X2.725Y-2.575
X2.825Y-2.575
X2.925Y-2.575
X3.025Y-2.575
X4.165Y-5.5
X4.265Y-5.5
X4.365Y-5.5
X4.465Y-5.5
X2.775Y-2.475
X2.875Y-2.475
X2.975Y-2.475
X3.445Y-4.525
X3.545Y-4.525
X3.645Y-4.525
X3.745Y-4.525
X4.065Y-4.725
X4.165Y-4.725
X4.265Y-4.725
X4.365Y-4.725
X4.465Y-4.725
X4.565Y-4.725
X4.885Y-3.55
X4.985Y-3.55
X5.085Y-3.55
X5.185Y-3.55
X3.445Y-5.5
X3.545Y-5.5
X3.645Y-5.5
X3.745Y-5.5
X5.605Y-3.65
X5.705Y-3.65
X5.805Y-3.65
X5.905Y-3.65
X4.065Y-2.775
X4.165Y-2.775
X4.265Y-2.775
X4.365Y-2.775
X4.465Y-2.775
X4.565Y-2.775
X2.725Y-3.55
X2.825Y-3.55
X2.925Y-3.55
X3.025Y-3.55
X4.065Y-3.75
X4.165Y-3.75
X4.265Y-3.75
X4.365Y-3.75
X4.465Y-3.75
X4.565Y-3.75
X4.785Y-3.75
X4.885Y-3.75
X4.985Y-3.75
X5.085Y-3.75
X5.185Y-3.75
X5.285Y-3.75
X4.215Y-5.4
X4.315Y-5.4
X4.415Y-5.4
X2.725Y-3.65
X2.825Y-3.65
X2.925Y-3.65
X3.025Y-3.65
X2.775Y-5.4
X2.875Y-5.4
X2.975Y-5.4
X4.885Y-5.5
X4.985Y-5.5
X5.085Y-5.5
X5.185Y-5.5
X4.165Y-4.625
X4.265Y-4.625
X4.365Y-4.625
X4.465Y-4.625
X3.445Y-3.65
X3.545Y-3.65
X3.645Y-3.65
X3.745Y-3.65
X4.785Y-2.775
X4.885Y-2.775
X4.985Y-2.775
X5.085Y-2.775
X5.185Y-2.775
X5.285Y-2.775
X4.165Y-5.6
X4.265Y-5.6
X4.365Y-5.6
X4.465Y-5.6
X4.885Y-2.675
X4.985Y-2.675
X5.085Y-2.675
X5.185Y-2.675
X4.165Y-4.525
X4.265Y-4.525
X4.365Y-4.525
X4.465Y-4.525
X2.725Y-2.675
X2.825Y-2.675
X2.925Y-2.675
X3.025Y-2.675
X5.655Y-3.45
X5.755Y-3.45
X5.855Y-3.45
X5.655Y-4.425
X5.755Y-4.425
X5.855Y-4.425
X2.625Y-4.725
X2.725Y-4.725
X2.825Y-4.725
X2.925Y-4.725
X3.025Y-4.725
X3.125Y-4.725
X4.935Y-2.475
X5.035Y-2.475
X5.135Y-2.475
X4.215Y-4.425
X4.315Y-4.425
X4.415Y-4.425
X5.605Y-5.5
X5.705Y-5.5
X5.805Y-5.5
X5.905Y-5.5
X3.445Y-5.6
X3.545Y-5.6
X3.645Y-5.6
X3.745Y-5.6
X3.495Y-3.45
X3.595Y-3.45
X3.695Y-3.45
X2.725Y-5.6
X2.825Y-5.6
X2.925Y-5.6
X3.025Y-5.6
X5.605Y-2.675
X5.705Y-2.675
X5.805Y-2.675
X5.905Y-2.675
X2.725Y-5.5
X2.825Y-5.5
X2.925Y-5.5
X3.025Y-5.5
X3.445Y-3.55
X3.545Y-3.55
X3.645Y-3.55
X3.745Y-3.55
X2.625Y-3.75
X2.725Y-3.75
X2.825Y-3.75
X2.925Y-3.75
X3.025Y-3.75
X3.125Y-3.75
X4.165Y-2.675
X4.265Y-2.675
X4.365Y-2.675
X4.465Y-2.675
X2.725Y-4.625
X2.825Y-4.625
X2.925Y-4.625
X3.025Y-4.625
X5.605Y-4.625
X5.705Y-4.625
X5.805Y-4.625
X5.905Y-4.625
X3.345Y-3.75
X3.445Y-3.75
X3.545Y-3.75
X3.645Y-3.75
X3.745Y-3.75
X3.845Y-3.75
X2.725Y-4.525
X2.825Y-4.525
X2.925Y-4.525
X3.025Y-4.525
X5.605Y-4.525
X5.705Y-4.525
X5.805Y-4.525
X5.905Y-4.525
X4.215Y-2.475
X4.315Y-2.475
X4.415Y-2.475
X4.935Y-3.45
X5.035Y-3.45
X5.135Y-3.45
X5.505Y-5.7
X5.605Y-5.7
X5.705Y-5.7
X5.805Y-5.7
X5.905Y-5.7
X6.005Y-5.7
X2.625Y-2.775
X2.725Y-2.775
X2.825Y-2.775
X2.925Y-2.775
X3.025Y-2.775
X3.125Y-2.775
X4.885Y-3.65
X4.985Y-3.65
X5.085Y-3.65
X5.185Y-3.65
X4.935Y-5.4
X5.035Y-5.4
X5.135Y-5.4
X3.495Y-5.4
X3.595Y-5.4
X3.695Y-5.4
X4.885Y-5.6
X4.985Y-5.6
X5.085Y-5.6
X5.185Y-5.6
X5.505Y-2.775
X5.605Y-2.775
X5.705Y-2.775
X5.805Y-2.775
X5.905Y-2.775
X6.005Y-2.775
X4.785Y-5.7
X4.885Y-5.7
X4.985Y-5.7
X5.085Y-5.7
X5.185Y-5.7
X5.285Y-5.7
X3.345Y-4.725
X3.445Y-4.725
X3.545Y-4.725
X3.645Y-4.725
X3.745Y-4.725
X3.845Y-4.725
X3.495Y-4.425
X3.595Y-4.425
X3.695Y-4.425
T3
X4.7992Y-5.0594
X5.2716Y-5.0594
X4.0792Y-3.1094
X4.5516Y-3.1094
X5.5192Y-2.1344
X5.9916Y-2.1344
X5.5192Y-5.0594
X5.9916Y-5.0594
X3.3592Y-2.1344
X3.8316Y-2.1344
X4.7992Y-4.0844
X5.2716Y-4.0844
X3.3592Y-3.1094
X3.8316Y-3.1094
X4.0792Y-2.1344
X4.5516Y-2.1344
X4.0792Y-5.0594
X4.5516Y-5.0594
X4.7992Y-3.1094
X5.2716Y-3.1094
X3.3592Y-4.0844
X3.8316Y-4.0844
X5.5192Y-4.0844
X5.9916Y-4.0844
X2.6392Y-4.0844
X3.1116Y-4.0844
X2.6392Y-3.1094
X3.1116Y-3.1094
X2.6392Y-2.1344
X3.1116Y-2.1344
X4.7992Y-2.1344
X5.2716Y-2.1344
X3.3592Y-5.0594
X3.8316Y-5.0594
X4.0792Y-4.0844
X4.5516Y-4.0844
X2.6392Y-5.0594
X3.1116Y-5.0594
X5.5192Y-3.1094
X5.9916Y-3.1094
T0
M30
