G04 #@! TF.GenerationSoftware,KiCad,Pcbnew,5.1.5+dfsg1-2build2*
G04 #@! TF.CreationDate,2020-09-09T14:53:40-03:00*
G04 #@! TF.ProjectId,panel10x10,70616e65-6c31-4307-9831-302e6b696361,rev?*
G04 #@! TF.SameCoordinates,Original*
G04 #@! TF.FileFunction,Copper,L2,Bot*
G04 #@! TF.FilePolarity,Positive*
%FSLAX46Y46*%
G04 Gerber Fmt 4.6, Leading zero omitted, Abs format (unit mm)*
G04 Created by KiCad (PCBNEW 5.1.5+dfsg1-2build2) date 2020-09-09 14:53:40*
%MOMM*%
%LPD*%
G04 APERTURE LIST*
%ADD10R,1.700000X1.700000*%
%ADD11O,1.700000X1.700000*%
%ADD12R,1.520000X1.520000*%
%ADD13C,1.520000*%
%ADD14C,1.700000*%
%ADD15C,0.250000*%
G04 APERTURE END LIST*
D10*
X137160000Y-148590000D03*
D11*
X139700000Y-148590000D03*
X142240000Y-148590000D03*
X144780000Y-148590000D03*
X147320000Y-148590000D03*
X149860000Y-148590000D03*
D12*
X140970000Y-139700000D03*
D13*
X141990000Y-137160000D03*
X143010000Y-139700000D03*
X144030000Y-137160000D03*
X145050000Y-139700000D03*
X146070000Y-137160000D03*
D12*
X123190000Y-139700000D03*
D13*
X124210000Y-137160000D03*
X125230000Y-139700000D03*
X126250000Y-137160000D03*
X127270000Y-139700000D03*
X128290000Y-137160000D03*
D14*
X121920000Y-148590000D03*
D11*
X124460000Y-148590000D03*
X127000000Y-148590000D03*
X129540000Y-148590000D03*
D10*
X126856531Y-144156812D03*
D11*
X124316531Y-144156812D03*
X147320000Y-97790000D03*
X144780000Y-97790000D03*
X142240000Y-97790000D03*
D14*
X139700000Y-97790000D03*
D13*
X146070000Y-88900000D03*
X145050000Y-91440000D03*
X144030000Y-88900000D03*
X143010000Y-91440000D03*
X141990000Y-88900000D03*
D12*
X140970000Y-91440000D03*
D11*
X147320000Y-100330000D03*
X144780000Y-100330000D03*
X142240000Y-100330000D03*
D14*
X139700000Y-100330000D03*
X121920000Y-100330000D03*
D11*
X124460000Y-100330000D03*
X127000000Y-100330000D03*
X129540000Y-100330000D03*
D14*
X121920000Y-97790000D03*
D11*
X124460000Y-97790000D03*
X127000000Y-97790000D03*
X129540000Y-97790000D03*
D12*
X123190000Y-91440000D03*
D13*
X124210000Y-88900000D03*
X125230000Y-91440000D03*
X126250000Y-88900000D03*
X127270000Y-91440000D03*
X128290000Y-88900000D03*
X146070000Y-64770000D03*
X145050000Y-67310000D03*
X144030000Y-64770000D03*
X143010000Y-67310000D03*
X141990000Y-64770000D03*
D12*
X140970000Y-67310000D03*
D11*
X147320000Y-76200000D03*
X144780000Y-76200000D03*
X142240000Y-76200000D03*
D14*
X139700000Y-76200000D03*
D11*
X147320000Y-73660000D03*
X144780000Y-73660000D03*
X142240000Y-73660000D03*
D14*
X139700000Y-73660000D03*
X121920000Y-73660000D03*
D11*
X124460000Y-73660000D03*
X127000000Y-73660000D03*
X129540000Y-73660000D03*
D14*
X121920000Y-76200000D03*
D11*
X124460000Y-76200000D03*
X127000000Y-76200000D03*
X129540000Y-76200000D03*
D12*
X123190000Y-67310000D03*
D13*
X124210000Y-64770000D03*
X125230000Y-67310000D03*
X126250000Y-64770000D03*
X127270000Y-67310000D03*
X128290000Y-64770000D03*
D11*
X110490000Y-146050000D03*
X107950000Y-146050000D03*
D14*
X105410000Y-146050000D03*
D13*
X110510000Y-137160000D03*
X109490000Y-139700000D03*
X108470000Y-137160000D03*
X107450000Y-139700000D03*
X106430000Y-137160000D03*
D12*
X105410000Y-139700000D03*
D11*
X110490000Y-148590000D03*
X107950000Y-148590000D03*
D14*
X105410000Y-148590000D03*
X87630000Y-146050000D03*
D11*
X90170000Y-146050000D03*
X92710000Y-146050000D03*
D12*
X87630000Y-139700000D03*
D13*
X88650000Y-137160000D03*
X89670000Y-139700000D03*
X90690000Y-137160000D03*
X91710000Y-139700000D03*
X92730000Y-137160000D03*
D14*
X87630000Y-148590000D03*
D11*
X90170000Y-148590000D03*
X92710000Y-148590000D03*
D13*
X110510000Y-113030000D03*
X109490000Y-115570000D03*
X108470000Y-113030000D03*
X107450000Y-115570000D03*
X106430000Y-113030000D03*
D12*
X105410000Y-115570000D03*
D11*
X110490000Y-121920000D03*
X107950000Y-121920000D03*
D14*
X105410000Y-121920000D03*
D11*
X110490000Y-124460000D03*
X107950000Y-124460000D03*
D14*
X105410000Y-124460000D03*
X87630000Y-121920000D03*
D11*
X90170000Y-121920000D03*
X92710000Y-121920000D03*
D14*
X87630000Y-124460000D03*
D11*
X90170000Y-124460000D03*
X92710000Y-124460000D03*
D12*
X87630000Y-115570000D03*
D13*
X88650000Y-113030000D03*
X89670000Y-115570000D03*
X90690000Y-113030000D03*
X91710000Y-115570000D03*
X92730000Y-113030000D03*
D11*
X110490000Y-100330000D03*
X107950000Y-100330000D03*
D14*
X105410000Y-100330000D03*
D13*
X110510000Y-88900000D03*
X109490000Y-91440000D03*
X108470000Y-88900000D03*
X107450000Y-91440000D03*
X106430000Y-88900000D03*
D12*
X105410000Y-91440000D03*
D11*
X110490000Y-97790000D03*
X107950000Y-97790000D03*
D14*
X105410000Y-97790000D03*
X105410000Y-76200000D03*
D11*
X107950000Y-76200000D03*
X110490000Y-76200000D03*
D14*
X105410000Y-73660000D03*
D11*
X107950000Y-73660000D03*
X110490000Y-73660000D03*
D12*
X105410000Y-67310000D03*
D13*
X106430000Y-64770000D03*
X107450000Y-67310000D03*
X108470000Y-64770000D03*
X109490000Y-67310000D03*
X110510000Y-64770000D03*
D14*
X86360000Y-97790000D03*
D11*
X88900000Y-97790000D03*
X91440000Y-97790000D03*
X93980000Y-97790000D03*
D12*
X87630000Y-91440000D03*
D13*
X88650000Y-88900000D03*
X89670000Y-91440000D03*
X90690000Y-88900000D03*
X91710000Y-91440000D03*
X92730000Y-88900000D03*
D14*
X86360000Y-100330000D03*
D11*
X88900000Y-100330000D03*
X91440000Y-100330000D03*
X93980000Y-100330000D03*
X76200000Y-148590000D03*
X73660000Y-148590000D03*
X71120000Y-148590000D03*
D14*
X68580000Y-148590000D03*
D13*
X74950000Y-137160000D03*
X73930000Y-139700000D03*
X72910000Y-137160000D03*
X71890000Y-139700000D03*
X70870000Y-137160000D03*
D12*
X69850000Y-139700000D03*
D11*
X76200000Y-146050000D03*
X73660000Y-146050000D03*
X71120000Y-146050000D03*
D14*
X68580000Y-146050000D03*
X68580000Y-124460000D03*
D11*
X71120000Y-124460000D03*
X73660000Y-124460000D03*
X76200000Y-124460000D03*
D14*
X68580000Y-121920000D03*
D11*
X71120000Y-121920000D03*
X73660000Y-121920000D03*
X76200000Y-121920000D03*
D12*
X69850000Y-115570000D03*
D13*
X70870000Y-113030000D03*
X71890000Y-115570000D03*
X72910000Y-113030000D03*
X73930000Y-115570000D03*
X74950000Y-113030000D03*
D11*
X76200000Y-100330000D03*
X73660000Y-100330000D03*
X71120000Y-100330000D03*
D14*
X68580000Y-100330000D03*
D13*
X74950000Y-88900000D03*
X73930000Y-91440000D03*
X72910000Y-88900000D03*
X71890000Y-91440000D03*
X70870000Y-88900000D03*
D12*
X69850000Y-91440000D03*
D11*
X76200000Y-97790000D03*
X73660000Y-97790000D03*
X71120000Y-97790000D03*
D14*
X68580000Y-97790000D03*
X86360000Y-73660000D03*
D11*
X88900000Y-73660000D03*
X91440000Y-73660000D03*
X93980000Y-73660000D03*
D12*
X87630000Y-67310000D03*
D13*
X88650000Y-64770000D03*
X89670000Y-67310000D03*
X90690000Y-64770000D03*
X91710000Y-67310000D03*
X92730000Y-64770000D03*
D14*
X86360000Y-76200000D03*
D11*
X88900000Y-76200000D03*
X91440000Y-76200000D03*
X93980000Y-76200000D03*
X76200000Y-76200000D03*
X73660000Y-76200000D03*
X71120000Y-76200000D03*
D14*
X68580000Y-76200000D03*
D11*
X76200000Y-73660000D03*
X73660000Y-73660000D03*
X71120000Y-73660000D03*
D14*
X68580000Y-73660000D03*
D13*
X74950000Y-64770000D03*
X73930000Y-67310000D03*
X72910000Y-64770000D03*
X71890000Y-67310000D03*
X70870000Y-64770000D03*
D12*
X69850000Y-67310000D03*
D11*
X124316531Y-120026812D03*
D10*
X126856531Y-120026812D03*
D11*
X129540000Y-124460000D03*
X127000000Y-124460000D03*
X124460000Y-124460000D03*
D14*
X121920000Y-124460000D03*
D13*
X128290000Y-113030000D03*
X127270000Y-115570000D03*
X126250000Y-113030000D03*
X125230000Y-115570000D03*
X124210000Y-113030000D03*
D12*
X123190000Y-115570000D03*
D11*
X149860000Y-124460000D03*
X147320000Y-124460000D03*
X144780000Y-124460000D03*
X142240000Y-124460000D03*
X139700000Y-124460000D03*
D10*
X137160000Y-124460000D03*
D13*
X146070000Y-113030000D03*
X145050000Y-115570000D03*
X144030000Y-113030000D03*
X143010000Y-115570000D03*
X141990000Y-113030000D03*
D12*
X140970000Y-115570000D03*
D15*
X109390000Y-67310000D02*
X109490000Y-67310000D01*
X109390000Y-91440000D02*
X109490000Y-91440000D01*
X91610000Y-115570000D02*
X91710000Y-115570000D01*
X109390000Y-115570000D02*
X109490000Y-115570000D01*
X91610000Y-139700000D02*
X91710000Y-139700000D01*
X109390000Y-139700000D02*
X109490000Y-139700000D01*
X73830000Y-67310000D02*
X73930000Y-67310000D01*
X91610000Y-67310000D02*
X91710000Y-67310000D01*
X73830000Y-91440000D02*
X73930000Y-91440000D01*
X73830000Y-115570000D02*
X73930000Y-115570000D01*
X73830000Y-139700000D02*
X73930000Y-139700000D01*
X91610000Y-91440000D02*
X91710000Y-91440000D01*
X121920000Y-73660000D02*
X124460000Y-76200000D01*
X127270000Y-67310000D02*
X121920000Y-72660000D01*
X121920000Y-72660000D02*
X121920000Y-73660000D01*
X139700000Y-72660000D02*
X139700000Y-73660000D01*
X145050000Y-67310000D02*
X139700000Y-72660000D01*
X139700000Y-73660000D02*
X142240000Y-76200000D01*
X127270000Y-91440000D02*
X121920000Y-96790000D01*
X121920000Y-97790000D02*
X124460000Y-100330000D01*
X121920000Y-96790000D02*
X121920000Y-97790000D01*
X145050000Y-91440000D02*
X139700000Y-96790000D01*
X139700000Y-97790000D02*
X142240000Y-100330000D01*
X139700000Y-96790000D02*
X139700000Y-97790000D01*
X127170000Y-115570000D02*
X127270000Y-115570000D01*
X127170000Y-139700000D02*
X127270000Y-139700000D01*
M02*
