G04 #@! TF.GenerationSoftware,KiCad,Pcbnew,5.1.5+dfsg1-2build2*
G04 #@! TF.CreationDate,2020-09-09T14:53:40-03:00*
G04 #@! TF.ProjectId,panel10x10,70616e65-6c31-4307-9831-302e6b696361,rev?*
G04 #@! TF.SameCoordinates,Original*
G04 #@! TF.FileFunction,Legend,Top*
G04 #@! TF.FilePolarity,Positive*
%FSLAX46Y46*%
G04 Gerber Fmt 4.6, Leading zero omitted, Abs format (unit mm)*
G04 Created by KiCad (PCBNEW 5.1.5+dfsg1-2build2) date 2020-09-09 14:53:40*
%MOMM*%
%LPD*%
G04 APERTURE LIST*
%ADD10C,0.250000*%
%ADD11C,0.150000*%
%ADD12C,0.120000*%
G04 APERTURE END LIST*
D10*
X152400000Y-152400000D02*
X152400000Y-128270000D01*
X134620000Y-152400000D02*
X152400000Y-152400000D01*
X134620000Y-128270000D02*
X134620000Y-152400000D01*
D11*
X141706666Y-150780000D02*
X141640000Y-150746666D01*
X141540000Y-150746666D01*
X141440000Y-150780000D01*
X141373333Y-150846666D01*
X141340000Y-150913333D01*
X141306666Y-151046666D01*
X141306666Y-151146666D01*
X141340000Y-151280000D01*
X141373333Y-151346666D01*
X141440000Y-151413333D01*
X141540000Y-151446666D01*
X141606666Y-151446666D01*
X141706666Y-151413333D01*
X141740000Y-151380000D01*
X141740000Y-151146666D01*
X141606666Y-151146666D01*
X142040000Y-151446666D02*
X142040000Y-150746666D01*
X142440000Y-151446666D01*
X142440000Y-150746666D01*
X142773333Y-151446666D02*
X142773333Y-150746666D01*
X142940000Y-150746666D01*
X143040000Y-150780000D01*
X143106666Y-150846666D01*
X143140000Y-150913333D01*
X143173333Y-151046666D01*
X143173333Y-151146666D01*
X143140000Y-151280000D01*
X143106666Y-151346666D01*
X143040000Y-151413333D01*
X142940000Y-151446666D01*
X142773333Y-151446666D01*
X147203333Y-146366666D02*
X146970000Y-146033333D01*
X146803333Y-146366666D02*
X146803333Y-145666666D01*
X147070000Y-145666666D01*
X147136666Y-145700000D01*
X147170000Y-145733333D01*
X147203333Y-145800000D01*
X147203333Y-145900000D01*
X147170000Y-145966666D01*
X147136666Y-146000000D01*
X147070000Y-146033333D01*
X146803333Y-146033333D01*
X147436666Y-145666666D02*
X147903333Y-146366666D01*
X147903333Y-145666666D02*
X147436666Y-146366666D01*
X138766666Y-145666666D02*
X139000000Y-146366666D01*
X139233333Y-145666666D01*
X139866666Y-146300000D02*
X139833333Y-146333333D01*
X139733333Y-146366666D01*
X139666666Y-146366666D01*
X139566666Y-146333333D01*
X139500000Y-146266666D01*
X139466666Y-146200000D01*
X139433333Y-146066666D01*
X139433333Y-145966666D01*
X139466666Y-145833333D01*
X139500000Y-145766666D01*
X139566666Y-145700000D01*
X139666666Y-145666666D01*
X139733333Y-145666666D01*
X139833333Y-145700000D01*
X139866666Y-145733333D01*
X140566666Y-146300000D02*
X140533333Y-146333333D01*
X140433333Y-146366666D01*
X140366666Y-146366666D01*
X140266666Y-146333333D01*
X140200000Y-146266666D01*
X140166666Y-146200000D01*
X140133333Y-146066666D01*
X140133333Y-145966666D01*
X140166666Y-145833333D01*
X140200000Y-145766666D01*
X140266666Y-145700000D01*
X140366666Y-145666666D01*
X140433333Y-145666666D01*
X140533333Y-145700000D01*
X140566666Y-145733333D01*
X138766666Y-150746666D02*
X139000000Y-151446666D01*
X139233333Y-150746666D01*
X139866666Y-151380000D02*
X139833333Y-151413333D01*
X139733333Y-151446666D01*
X139666666Y-151446666D01*
X139566666Y-151413333D01*
X139500000Y-151346666D01*
X139466666Y-151280000D01*
X139433333Y-151146666D01*
X139433333Y-151046666D01*
X139466666Y-150913333D01*
X139500000Y-150846666D01*
X139566666Y-150780000D01*
X139666666Y-150746666D01*
X139733333Y-150746666D01*
X139833333Y-150780000D01*
X139866666Y-150813333D01*
X140566666Y-151380000D02*
X140533333Y-151413333D01*
X140433333Y-151446666D01*
X140366666Y-151446666D01*
X140266666Y-151413333D01*
X140200000Y-151346666D01*
X140166666Y-151280000D01*
X140133333Y-151146666D01*
X140133333Y-151046666D01*
X140166666Y-150913333D01*
X140200000Y-150846666D01*
X140266666Y-150780000D01*
X140366666Y-150746666D01*
X140433333Y-150746666D01*
X140533333Y-150780000D01*
X140566666Y-150813333D01*
X141706666Y-145700000D02*
X141640000Y-145666666D01*
X141540000Y-145666666D01*
X141440000Y-145700000D01*
X141373333Y-145766666D01*
X141340000Y-145833333D01*
X141306666Y-145966666D01*
X141306666Y-146066666D01*
X141340000Y-146200000D01*
X141373333Y-146266666D01*
X141440000Y-146333333D01*
X141540000Y-146366666D01*
X141606666Y-146366666D01*
X141706666Y-146333333D01*
X141740000Y-146300000D01*
X141740000Y-146066666D01*
X141606666Y-146066666D01*
X142040000Y-146366666D02*
X142040000Y-145666666D01*
X142440000Y-146366666D01*
X142440000Y-145666666D01*
X142773333Y-146366666D02*
X142773333Y-145666666D01*
X142940000Y-145666666D01*
X143040000Y-145700000D01*
X143106666Y-145766666D01*
X143140000Y-145833333D01*
X143173333Y-145966666D01*
X143173333Y-146066666D01*
X143140000Y-146200000D01*
X143106666Y-146266666D01*
X143040000Y-146333333D01*
X142940000Y-146366666D01*
X142773333Y-146366666D01*
X141860000Y-145096666D02*
X141860000Y-144396666D01*
X141860000Y-144730000D02*
X142260000Y-144730000D01*
X142260000Y-145096666D02*
X142260000Y-144396666D01*
X142993333Y-145030000D02*
X142960000Y-145063333D01*
X142860000Y-145096666D01*
X142793333Y-145096666D01*
X142693333Y-145063333D01*
X142626666Y-144996666D01*
X142593333Y-144930000D01*
X142560000Y-144796666D01*
X142560000Y-144696666D01*
X142593333Y-144563333D01*
X142626666Y-144496666D01*
X142693333Y-144430000D01*
X142793333Y-144396666D01*
X142860000Y-144396666D01*
X142960000Y-144430000D01*
X142993333Y-144463333D01*
X143293333Y-144830000D02*
X143826666Y-144830000D01*
X144293333Y-144396666D02*
X144360000Y-144396666D01*
X144426666Y-144430000D01*
X144460000Y-144463333D01*
X144493333Y-144530000D01*
X144526666Y-144663333D01*
X144526666Y-144830000D01*
X144493333Y-144963333D01*
X144460000Y-145030000D01*
X144426666Y-145063333D01*
X144360000Y-145096666D01*
X144293333Y-145096666D01*
X144226666Y-145063333D01*
X144193333Y-145030000D01*
X144160000Y-144963333D01*
X144126666Y-144830000D01*
X144126666Y-144663333D01*
X144160000Y-144530000D01*
X144193333Y-144463333D01*
X144226666Y-144430000D01*
X144293333Y-144396666D01*
X145160000Y-144396666D02*
X144826666Y-144396666D01*
X144793333Y-144730000D01*
X144826666Y-144696666D01*
X144893333Y-144663333D01*
X145060000Y-144663333D01*
X145126666Y-144696666D01*
X145160000Y-144730000D01*
X145193333Y-144796666D01*
X145193333Y-144963333D01*
X145160000Y-145030000D01*
X145126666Y-145063333D01*
X145060000Y-145096666D01*
X144893333Y-145096666D01*
X144826666Y-145063333D01*
X144793333Y-145030000D01*
X144263333Y-151446666D02*
X144263333Y-150746666D01*
X144430000Y-150746666D01*
X144530000Y-150780000D01*
X144596666Y-150846666D01*
X144630000Y-150913333D01*
X144663333Y-151046666D01*
X144663333Y-151146666D01*
X144630000Y-151280000D01*
X144596666Y-151346666D01*
X144530000Y-151413333D01*
X144430000Y-151446666D01*
X144263333Y-151446666D01*
X145096666Y-150746666D02*
X145163333Y-150746666D01*
X145230000Y-150780000D01*
X145263333Y-150813333D01*
X145296666Y-150880000D01*
X145330000Y-151013333D01*
X145330000Y-151180000D01*
X145296666Y-151313333D01*
X145263333Y-151380000D01*
X145230000Y-151413333D01*
X145163333Y-151446666D01*
X145096666Y-151446666D01*
X145030000Y-151413333D01*
X144996666Y-151380000D01*
X144963333Y-151313333D01*
X144930000Y-151180000D01*
X144930000Y-151013333D01*
X144963333Y-150880000D01*
X144996666Y-150813333D01*
X145030000Y-150780000D01*
X145096666Y-150746666D01*
X146820000Y-151246666D02*
X147153333Y-151246666D01*
X146753333Y-151446666D02*
X146986666Y-150746666D01*
X147220000Y-151446666D01*
X147586666Y-150746666D02*
X147653333Y-150746666D01*
X147720000Y-150780000D01*
X147753333Y-150813333D01*
X147786666Y-150880000D01*
X147820000Y-151013333D01*
X147820000Y-151180000D01*
X147786666Y-151313333D01*
X147753333Y-151380000D01*
X147720000Y-151413333D01*
X147653333Y-151446666D01*
X147586666Y-151446666D01*
X147520000Y-151413333D01*
X147486666Y-151380000D01*
X147453333Y-151313333D01*
X147420000Y-151180000D01*
X147420000Y-151013333D01*
X147453333Y-150880000D01*
X147486666Y-150813333D01*
X147520000Y-150780000D01*
X147586666Y-150746666D01*
D10*
X152400000Y-128270000D02*
X134620000Y-128270000D01*
D11*
X144246666Y-145666666D02*
X144646666Y-145666666D01*
X144446666Y-146366666D02*
X144446666Y-145666666D01*
X144813333Y-145666666D02*
X145280000Y-146366666D01*
X145280000Y-145666666D02*
X144813333Y-146366666D01*
D10*
X134620000Y-128270000D02*
X116840000Y-128270000D01*
X134620000Y-152400000D02*
X134620000Y-128270000D01*
X116840000Y-152400000D02*
X134620000Y-152400000D01*
X116840000Y-128270000D02*
X116840000Y-152400000D01*
D11*
X120986666Y-145666666D02*
X121220000Y-146366666D01*
X121453333Y-145666666D01*
X122086666Y-146300000D02*
X122053333Y-146333333D01*
X121953333Y-146366666D01*
X121886666Y-146366666D01*
X121786666Y-146333333D01*
X121720000Y-146266666D01*
X121686666Y-146200000D01*
X121653333Y-146066666D01*
X121653333Y-145966666D01*
X121686666Y-145833333D01*
X121720000Y-145766666D01*
X121786666Y-145700000D01*
X121886666Y-145666666D01*
X121953333Y-145666666D01*
X122053333Y-145700000D01*
X122086666Y-145733333D01*
X122786666Y-146300000D02*
X122753333Y-146333333D01*
X122653333Y-146366666D01*
X122586666Y-146366666D01*
X122486666Y-146333333D01*
X122420000Y-146266666D01*
X122386666Y-146200000D01*
X122353333Y-146066666D01*
X122353333Y-145966666D01*
X122386666Y-145833333D01*
X122420000Y-145766666D01*
X122486666Y-145700000D01*
X122586666Y-145666666D01*
X122653333Y-145666666D01*
X122753333Y-145700000D01*
X122786666Y-145733333D01*
X129006666Y-150780000D02*
X128940000Y-150746666D01*
X128840000Y-150746666D01*
X128740000Y-150780000D01*
X128673333Y-150846666D01*
X128640000Y-150913333D01*
X128606666Y-151046666D01*
X128606666Y-151146666D01*
X128640000Y-151280000D01*
X128673333Y-151346666D01*
X128740000Y-151413333D01*
X128840000Y-151446666D01*
X128906666Y-151446666D01*
X129006666Y-151413333D01*
X129040000Y-151380000D01*
X129040000Y-151146666D01*
X128906666Y-151146666D01*
X129340000Y-151446666D02*
X129340000Y-150746666D01*
X129740000Y-151446666D01*
X129740000Y-150746666D01*
X130073333Y-151446666D02*
X130073333Y-150746666D01*
X130240000Y-150746666D01*
X130340000Y-150780000D01*
X130406666Y-150846666D01*
X130440000Y-150913333D01*
X130473333Y-151046666D01*
X130473333Y-151146666D01*
X130440000Y-151280000D01*
X130406666Y-151346666D01*
X130340000Y-151413333D01*
X130240000Y-151446666D01*
X130073333Y-151446666D01*
X126500000Y-146000000D02*
X126733333Y-146000000D01*
X126833333Y-146366666D02*
X126500000Y-146366666D01*
X126500000Y-145666666D01*
X126833333Y-145666666D01*
X127533333Y-146300000D02*
X127500000Y-146333333D01*
X127400000Y-146366666D01*
X127333333Y-146366666D01*
X127233333Y-146333333D01*
X127166666Y-146266666D01*
X127133333Y-146200000D01*
X127100000Y-146066666D01*
X127100000Y-145966666D01*
X127133333Y-145833333D01*
X127166666Y-145766666D01*
X127233333Y-145700000D01*
X127333333Y-145666666D01*
X127400000Y-145666666D01*
X127500000Y-145700000D01*
X127533333Y-145733333D01*
X123910000Y-145666666D02*
X124310000Y-145666666D01*
X124110000Y-146366666D02*
X124110000Y-145666666D01*
X124910000Y-145700000D02*
X124843333Y-145666666D01*
X124743333Y-145666666D01*
X124643333Y-145700000D01*
X124576666Y-145766666D01*
X124543333Y-145833333D01*
X124510000Y-145966666D01*
X124510000Y-146066666D01*
X124543333Y-146200000D01*
X124576666Y-146266666D01*
X124643333Y-146333333D01*
X124743333Y-146366666D01*
X124810000Y-146366666D01*
X124910000Y-146333333D01*
X124943333Y-146300000D01*
X124943333Y-146066666D01*
X124810000Y-146066666D01*
X126500000Y-151246666D02*
X126833333Y-151246666D01*
X126433333Y-151446666D02*
X126666666Y-150746666D01*
X126900000Y-151446666D01*
X127266666Y-150746666D02*
X127333333Y-150746666D01*
X127400000Y-150780000D01*
X127433333Y-150813333D01*
X127466666Y-150880000D01*
X127500000Y-151013333D01*
X127500000Y-151180000D01*
X127466666Y-151313333D01*
X127433333Y-151380000D01*
X127400000Y-151413333D01*
X127333333Y-151446666D01*
X127266666Y-151446666D01*
X127200000Y-151413333D01*
X127166666Y-151380000D01*
X127133333Y-151313333D01*
X127100000Y-151180000D01*
X127100000Y-151013333D01*
X127133333Y-150880000D01*
X127166666Y-150813333D01*
X127200000Y-150780000D01*
X127266666Y-150746666D01*
X129006666Y-145700000D02*
X128940000Y-145666666D01*
X128840000Y-145666666D01*
X128740000Y-145700000D01*
X128673333Y-145766666D01*
X128640000Y-145833333D01*
X128606666Y-145966666D01*
X128606666Y-146066666D01*
X128640000Y-146200000D01*
X128673333Y-146266666D01*
X128740000Y-146333333D01*
X128840000Y-146366666D01*
X128906666Y-146366666D01*
X129006666Y-146333333D01*
X129040000Y-146300000D01*
X129040000Y-146066666D01*
X128906666Y-146066666D01*
X129340000Y-146366666D02*
X129340000Y-145666666D01*
X129740000Y-146366666D01*
X129740000Y-145666666D01*
X130073333Y-146366666D02*
X130073333Y-145666666D01*
X130240000Y-145666666D01*
X130340000Y-145700000D01*
X130406666Y-145766666D01*
X130440000Y-145833333D01*
X130473333Y-145966666D01*
X130473333Y-146066666D01*
X130440000Y-146200000D01*
X130406666Y-146266666D01*
X130340000Y-146333333D01*
X130240000Y-146366666D01*
X130073333Y-146366666D01*
X120986666Y-150746666D02*
X121220000Y-151446666D01*
X121453333Y-150746666D01*
X122086666Y-151380000D02*
X122053333Y-151413333D01*
X121953333Y-151446666D01*
X121886666Y-151446666D01*
X121786666Y-151413333D01*
X121720000Y-151346666D01*
X121686666Y-151280000D01*
X121653333Y-151146666D01*
X121653333Y-151046666D01*
X121686666Y-150913333D01*
X121720000Y-150846666D01*
X121786666Y-150780000D01*
X121886666Y-150746666D01*
X121953333Y-150746666D01*
X122053333Y-150780000D01*
X122086666Y-150813333D01*
X122786666Y-151380000D02*
X122753333Y-151413333D01*
X122653333Y-151446666D01*
X122586666Y-151446666D01*
X122486666Y-151413333D01*
X122420000Y-151346666D01*
X122386666Y-151280000D01*
X122353333Y-151146666D01*
X122353333Y-151046666D01*
X122386666Y-150913333D01*
X122420000Y-150846666D01*
X122486666Y-150780000D01*
X122586666Y-150746666D01*
X122653333Y-150746666D01*
X122753333Y-150780000D01*
X122786666Y-150813333D01*
X128860000Y-143826666D02*
X128860000Y-143126666D01*
X129126666Y-143126666D01*
X129193333Y-143160000D01*
X129226666Y-143193333D01*
X129260000Y-143260000D01*
X129260000Y-143360000D01*
X129226666Y-143426666D01*
X129193333Y-143460000D01*
X129126666Y-143493333D01*
X128860000Y-143493333D01*
X129560000Y-143826666D02*
X129560000Y-143126666D01*
X129893333Y-143826666D02*
X129893333Y-143126666D01*
X130293333Y-143826666D01*
X130293333Y-143126666D01*
X130993333Y-143160000D02*
X130926666Y-143126666D01*
X130826666Y-143126666D01*
X130726666Y-143160000D01*
X130660000Y-143226666D01*
X130626666Y-143293333D01*
X130593333Y-143426666D01*
X130593333Y-143526666D01*
X130626666Y-143660000D01*
X130660000Y-143726666D01*
X130726666Y-143793333D01*
X130826666Y-143826666D01*
X130893333Y-143826666D01*
X130993333Y-143793333D01*
X131026666Y-143760000D01*
X131026666Y-143526666D01*
X130893333Y-143526666D01*
X132060000Y-143126666D02*
X132060000Y-143626666D01*
X132026666Y-143726666D01*
X131960000Y-143793333D01*
X131860000Y-143826666D01*
X131793333Y-143826666D01*
X132393333Y-143826666D02*
X132393333Y-143126666D01*
X132660000Y-143126666D01*
X132726666Y-143160000D01*
X132760000Y-143193333D01*
X132793333Y-143260000D01*
X132793333Y-143360000D01*
X132760000Y-143426666D01*
X132726666Y-143460000D01*
X132660000Y-143493333D01*
X132393333Y-143493333D01*
X117730000Y-143793333D02*
X117830000Y-143826666D01*
X117996666Y-143826666D01*
X118063333Y-143793333D01*
X118096666Y-143760000D01*
X118130000Y-143693333D01*
X118130000Y-143626666D01*
X118096666Y-143560000D01*
X118063333Y-143526666D01*
X117996666Y-143493333D01*
X117863333Y-143460000D01*
X117796666Y-143426666D01*
X117763333Y-143393333D01*
X117730000Y-143326666D01*
X117730000Y-143260000D01*
X117763333Y-143193333D01*
X117796666Y-143160000D01*
X117863333Y-143126666D01*
X118030000Y-143126666D01*
X118130000Y-143160000D01*
X118830000Y-143826666D02*
X118596666Y-143493333D01*
X118430000Y-143826666D02*
X118430000Y-143126666D01*
X118696666Y-143126666D01*
X118763333Y-143160000D01*
X118796666Y-143193333D01*
X118830000Y-143260000D01*
X118830000Y-143360000D01*
X118796666Y-143426666D01*
X118763333Y-143460000D01*
X118696666Y-143493333D01*
X118430000Y-143493333D01*
X119130000Y-143560000D02*
X119663333Y-143560000D01*
X120130000Y-143126666D02*
X120196666Y-143126666D01*
X120263333Y-143160000D01*
X120296666Y-143193333D01*
X120330000Y-143260000D01*
X120363333Y-143393333D01*
X120363333Y-143560000D01*
X120330000Y-143693333D01*
X120296666Y-143760000D01*
X120263333Y-143793333D01*
X120196666Y-143826666D01*
X120130000Y-143826666D01*
X120063333Y-143793333D01*
X120030000Y-143760000D01*
X119996666Y-143693333D01*
X119963333Y-143560000D01*
X119963333Y-143393333D01*
X119996666Y-143260000D01*
X120030000Y-143193333D01*
X120063333Y-143160000D01*
X120130000Y-143126666D01*
X120963333Y-143360000D02*
X120963333Y-143826666D01*
X120796666Y-143093333D02*
X120630000Y-143593333D01*
X121063333Y-143593333D01*
X123943333Y-151446666D02*
X123943333Y-150746666D01*
X124110000Y-150746666D01*
X124210000Y-150780000D01*
X124276666Y-150846666D01*
X124310000Y-150913333D01*
X124343333Y-151046666D01*
X124343333Y-151146666D01*
X124310000Y-151280000D01*
X124276666Y-151346666D01*
X124210000Y-151413333D01*
X124110000Y-151446666D01*
X123943333Y-151446666D01*
X124776666Y-150746666D02*
X124843333Y-150746666D01*
X124910000Y-150780000D01*
X124943333Y-150813333D01*
X124976666Y-150880000D01*
X125010000Y-151013333D01*
X125010000Y-151180000D01*
X124976666Y-151313333D01*
X124943333Y-151380000D01*
X124910000Y-151413333D01*
X124843333Y-151446666D01*
X124776666Y-151446666D01*
X124710000Y-151413333D01*
X124676666Y-151380000D01*
X124643333Y-151313333D01*
X124610000Y-151180000D01*
X124610000Y-151013333D01*
X124643333Y-150880000D01*
X124676666Y-150813333D01*
X124710000Y-150780000D01*
X124776666Y-150746666D01*
X144246666Y-102520000D02*
X144180000Y-102486666D01*
X144080000Y-102486666D01*
X143980000Y-102520000D01*
X143913333Y-102586666D01*
X143880000Y-102653333D01*
X143846666Y-102786666D01*
X143846666Y-102886666D01*
X143880000Y-103020000D01*
X143913333Y-103086666D01*
X143980000Y-103153333D01*
X144080000Y-103186666D01*
X144146666Y-103186666D01*
X144246666Y-103153333D01*
X144280000Y-103120000D01*
X144280000Y-102886666D01*
X144146666Y-102886666D01*
X144580000Y-103186666D02*
X144580000Y-102486666D01*
X144980000Y-103186666D01*
X144980000Y-102486666D01*
X145313333Y-103186666D02*
X145313333Y-102486666D01*
X145480000Y-102486666D01*
X145580000Y-102520000D01*
X145646666Y-102586666D01*
X145680000Y-102653333D01*
X145713333Y-102786666D01*
X145713333Y-102886666D01*
X145680000Y-103020000D01*
X145646666Y-103086666D01*
X145580000Y-103153333D01*
X145480000Y-103186666D01*
X145313333Y-103186666D01*
X146786666Y-94900000D02*
X146720000Y-94866666D01*
X146620000Y-94866666D01*
X146520000Y-94900000D01*
X146453333Y-94966666D01*
X146420000Y-95033333D01*
X146386666Y-95166666D01*
X146386666Y-95266666D01*
X146420000Y-95400000D01*
X146453333Y-95466666D01*
X146520000Y-95533333D01*
X146620000Y-95566666D01*
X146686666Y-95566666D01*
X146786666Y-95533333D01*
X146820000Y-95500000D01*
X146820000Y-95266666D01*
X146686666Y-95266666D01*
X147120000Y-95566666D02*
X147120000Y-94866666D01*
X147520000Y-95566666D01*
X147520000Y-94866666D01*
X147853333Y-95566666D02*
X147853333Y-94866666D01*
X148020000Y-94866666D01*
X148120000Y-94900000D01*
X148186666Y-94966666D01*
X148220000Y-95033333D01*
X148253333Y-95166666D01*
X148253333Y-95266666D01*
X148220000Y-95400000D01*
X148186666Y-95466666D01*
X148120000Y-95533333D01*
X148020000Y-95566666D01*
X147853333Y-95566666D01*
X138850000Y-103153333D02*
X138950000Y-103186666D01*
X139116666Y-103186666D01*
X139183333Y-103153333D01*
X139216666Y-103120000D01*
X139250000Y-103053333D01*
X139250000Y-102986666D01*
X139216666Y-102920000D01*
X139183333Y-102886666D01*
X139116666Y-102853333D01*
X138983333Y-102820000D01*
X138916666Y-102786666D01*
X138883333Y-102753333D01*
X138850000Y-102686666D01*
X138850000Y-102620000D01*
X138883333Y-102553333D01*
X138916666Y-102520000D01*
X138983333Y-102486666D01*
X139150000Y-102486666D01*
X139250000Y-102520000D01*
X139550000Y-103186666D02*
X139550000Y-102486666D01*
X139716666Y-102486666D01*
X139816666Y-102520000D01*
X139883333Y-102586666D01*
X139916666Y-102653333D01*
X139950000Y-102786666D01*
X139950000Y-102886666D01*
X139916666Y-103020000D01*
X139883333Y-103086666D01*
X139816666Y-103153333D01*
X139716666Y-103186666D01*
X139550000Y-103186666D01*
X140216666Y-102986666D02*
X140550000Y-102986666D01*
X140150000Y-103186666D02*
X140383333Y-102486666D01*
X140616666Y-103186666D01*
X146386666Y-102486666D02*
X146620000Y-103186666D01*
X146853333Y-102486666D01*
X147486666Y-103120000D02*
X147453333Y-103153333D01*
X147353333Y-103186666D01*
X147286666Y-103186666D01*
X147186666Y-103153333D01*
X147120000Y-103086666D01*
X147086666Y-103020000D01*
X147053333Y-102886666D01*
X147053333Y-102786666D01*
X147086666Y-102653333D01*
X147120000Y-102586666D01*
X147186666Y-102520000D01*
X147286666Y-102486666D01*
X147353333Y-102486666D01*
X147453333Y-102520000D01*
X147486666Y-102553333D01*
X148186666Y-103120000D02*
X148153333Y-103153333D01*
X148053333Y-103186666D01*
X147986666Y-103186666D01*
X147886666Y-103153333D01*
X147820000Y-103086666D01*
X147786666Y-103020000D01*
X147753333Y-102886666D01*
X147753333Y-102786666D01*
X147786666Y-102653333D01*
X147820000Y-102586666D01*
X147886666Y-102520000D01*
X147986666Y-102486666D01*
X148053333Y-102486666D01*
X148153333Y-102520000D01*
X148186666Y-102553333D01*
X143846666Y-94866666D02*
X144080000Y-95566666D01*
X144313333Y-94866666D01*
X144946666Y-95500000D02*
X144913333Y-95533333D01*
X144813333Y-95566666D01*
X144746666Y-95566666D01*
X144646666Y-95533333D01*
X144580000Y-95466666D01*
X144546666Y-95400000D01*
X144513333Y-95266666D01*
X144513333Y-95166666D01*
X144546666Y-95033333D01*
X144580000Y-94966666D01*
X144646666Y-94900000D01*
X144746666Y-94866666D01*
X144813333Y-94866666D01*
X144913333Y-94900000D01*
X144946666Y-94933333D01*
X145646666Y-95500000D02*
X145613333Y-95533333D01*
X145513333Y-95566666D01*
X145446666Y-95566666D01*
X145346666Y-95533333D01*
X145280000Y-95466666D01*
X145246666Y-95400000D01*
X145213333Y-95266666D01*
X145213333Y-95166666D01*
X145246666Y-95033333D01*
X145280000Y-94966666D01*
X145346666Y-94900000D01*
X145446666Y-94866666D01*
X145513333Y-94866666D01*
X145613333Y-94900000D01*
X145646666Y-94933333D01*
D10*
X134620000Y-80010000D02*
X134620000Y-104140000D01*
X152400000Y-80010000D02*
X134620000Y-80010000D01*
X152400000Y-104140000D02*
X152400000Y-80010000D01*
D11*
X135592474Y-100652996D02*
X135592474Y-99952996D01*
X135892474Y-100019663D02*
X135925808Y-99986330D01*
X135992474Y-99952996D01*
X136159141Y-99952996D01*
X136225808Y-99986330D01*
X136259141Y-100019663D01*
X136292474Y-100086330D01*
X136292474Y-100152996D01*
X136259141Y-100252996D01*
X135859141Y-100652996D01*
X136292474Y-100652996D01*
X136992474Y-100586330D02*
X136959141Y-100619663D01*
X136859141Y-100652996D01*
X136792474Y-100652996D01*
X136692474Y-100619663D01*
X136625808Y-100552996D01*
X136592474Y-100486330D01*
X136559141Y-100352996D01*
X136559141Y-100252996D01*
X136592474Y-100119663D01*
X136625808Y-100052996D01*
X136692474Y-99986330D01*
X136792474Y-99952996D01*
X136859141Y-99952996D01*
X136959141Y-99986330D01*
X136992474Y-100019663D01*
D10*
X134620000Y-104140000D02*
X152400000Y-104140000D01*
D11*
X141390000Y-95533333D02*
X141490000Y-95566666D01*
X141656666Y-95566666D01*
X141723333Y-95533333D01*
X141756666Y-95500000D01*
X141790000Y-95433333D01*
X141790000Y-95366666D01*
X141756666Y-95300000D01*
X141723333Y-95266666D01*
X141656666Y-95233333D01*
X141523333Y-95200000D01*
X141456666Y-95166666D01*
X141423333Y-95133333D01*
X141390000Y-95066666D01*
X141390000Y-95000000D01*
X141423333Y-94933333D01*
X141456666Y-94900000D01*
X141523333Y-94866666D01*
X141690000Y-94866666D01*
X141790000Y-94900000D01*
X142090000Y-95566666D02*
X142090000Y-94866666D01*
X142256666Y-94866666D01*
X142356666Y-94900000D01*
X142423333Y-94966666D01*
X142456666Y-95033333D01*
X142490000Y-95166666D01*
X142490000Y-95266666D01*
X142456666Y-95400000D01*
X142423333Y-95466666D01*
X142356666Y-95533333D01*
X142256666Y-95566666D01*
X142090000Y-95566666D01*
X142756666Y-95366666D02*
X143090000Y-95366666D01*
X142690000Y-95566666D02*
X142923333Y-94866666D01*
X143156666Y-95566666D01*
X141406666Y-103153333D02*
X141506666Y-103186666D01*
X141673333Y-103186666D01*
X141740000Y-103153333D01*
X141773333Y-103120000D01*
X141806666Y-103053333D01*
X141806666Y-102986666D01*
X141773333Y-102920000D01*
X141740000Y-102886666D01*
X141673333Y-102853333D01*
X141540000Y-102820000D01*
X141473333Y-102786666D01*
X141440000Y-102753333D01*
X141406666Y-102686666D01*
X141406666Y-102620000D01*
X141440000Y-102553333D01*
X141473333Y-102520000D01*
X141540000Y-102486666D01*
X141706666Y-102486666D01*
X141806666Y-102520000D01*
X142506666Y-103120000D02*
X142473333Y-103153333D01*
X142373333Y-103186666D01*
X142306666Y-103186666D01*
X142206666Y-103153333D01*
X142140000Y-103086666D01*
X142106666Y-103020000D01*
X142073333Y-102886666D01*
X142073333Y-102786666D01*
X142106666Y-102653333D01*
X142140000Y-102586666D01*
X142206666Y-102520000D01*
X142306666Y-102486666D01*
X142373333Y-102486666D01*
X142473333Y-102520000D01*
X142506666Y-102553333D01*
X143140000Y-103186666D02*
X142806666Y-103186666D01*
X142806666Y-102486666D01*
X135592474Y-98106666D02*
X135592474Y-97406666D01*
X135892474Y-97473333D02*
X135925808Y-97440000D01*
X135992474Y-97406666D01*
X136159141Y-97406666D01*
X136225808Y-97440000D01*
X136259141Y-97473333D01*
X136292474Y-97540000D01*
X136292474Y-97606666D01*
X136259141Y-97706666D01*
X135859141Y-98106666D01*
X136292474Y-98106666D01*
X136992474Y-98040000D02*
X136959141Y-98073333D01*
X136859141Y-98106666D01*
X136792474Y-98106666D01*
X136692474Y-98073333D01*
X136625808Y-98006666D01*
X136592474Y-97940000D01*
X136559141Y-97806666D01*
X136559141Y-97706666D01*
X136592474Y-97573333D01*
X136625808Y-97506666D01*
X136692474Y-97440000D01*
X136792474Y-97406666D01*
X136859141Y-97406666D01*
X136959141Y-97440000D01*
X136992474Y-97473333D01*
X138866666Y-95533333D02*
X138966666Y-95566666D01*
X139133333Y-95566666D01*
X139200000Y-95533333D01*
X139233333Y-95500000D01*
X139266666Y-95433333D01*
X139266666Y-95366666D01*
X139233333Y-95300000D01*
X139200000Y-95266666D01*
X139133333Y-95233333D01*
X139000000Y-95200000D01*
X138933333Y-95166666D01*
X138900000Y-95133333D01*
X138866666Y-95066666D01*
X138866666Y-95000000D01*
X138900000Y-94933333D01*
X138933333Y-94900000D01*
X139000000Y-94866666D01*
X139166666Y-94866666D01*
X139266666Y-94900000D01*
X139966666Y-95500000D02*
X139933333Y-95533333D01*
X139833333Y-95566666D01*
X139766666Y-95566666D01*
X139666666Y-95533333D01*
X139600000Y-95466666D01*
X139566666Y-95400000D01*
X139533333Y-95266666D01*
X139533333Y-95166666D01*
X139566666Y-95033333D01*
X139600000Y-94966666D01*
X139666666Y-94900000D01*
X139766666Y-94866666D01*
X139833333Y-94866666D01*
X139933333Y-94900000D01*
X139966666Y-94933333D01*
X140600000Y-95566666D02*
X140266666Y-95566666D01*
X140266666Y-94866666D01*
X126466666Y-102520000D02*
X126400000Y-102486666D01*
X126300000Y-102486666D01*
X126200000Y-102520000D01*
X126133333Y-102586666D01*
X126100000Y-102653333D01*
X126066666Y-102786666D01*
X126066666Y-102886666D01*
X126100000Y-103020000D01*
X126133333Y-103086666D01*
X126200000Y-103153333D01*
X126300000Y-103186666D01*
X126366666Y-103186666D01*
X126466666Y-103153333D01*
X126500000Y-103120000D01*
X126500000Y-102886666D01*
X126366666Y-102886666D01*
X126800000Y-103186666D02*
X126800000Y-102486666D01*
X127200000Y-103186666D01*
X127200000Y-102486666D01*
X127533333Y-103186666D02*
X127533333Y-102486666D01*
X127700000Y-102486666D01*
X127800000Y-102520000D01*
X127866666Y-102586666D01*
X127900000Y-102653333D01*
X127933333Y-102786666D01*
X127933333Y-102886666D01*
X127900000Y-103020000D01*
X127866666Y-103086666D01*
X127800000Y-103153333D01*
X127700000Y-103186666D01*
X127533333Y-103186666D01*
X121086666Y-95533333D02*
X121186666Y-95566666D01*
X121353333Y-95566666D01*
X121420000Y-95533333D01*
X121453333Y-95500000D01*
X121486666Y-95433333D01*
X121486666Y-95366666D01*
X121453333Y-95300000D01*
X121420000Y-95266666D01*
X121353333Y-95233333D01*
X121220000Y-95200000D01*
X121153333Y-95166666D01*
X121120000Y-95133333D01*
X121086666Y-95066666D01*
X121086666Y-95000000D01*
X121120000Y-94933333D01*
X121153333Y-94900000D01*
X121220000Y-94866666D01*
X121386666Y-94866666D01*
X121486666Y-94900000D01*
X122186666Y-95500000D02*
X122153333Y-95533333D01*
X122053333Y-95566666D01*
X121986666Y-95566666D01*
X121886666Y-95533333D01*
X121820000Y-95466666D01*
X121786666Y-95400000D01*
X121753333Y-95266666D01*
X121753333Y-95166666D01*
X121786666Y-95033333D01*
X121820000Y-94966666D01*
X121886666Y-94900000D01*
X121986666Y-94866666D01*
X122053333Y-94866666D01*
X122153333Y-94900000D01*
X122186666Y-94933333D01*
X122820000Y-95566666D02*
X122486666Y-95566666D01*
X122486666Y-94866666D01*
X123610000Y-95533333D02*
X123710000Y-95566666D01*
X123876666Y-95566666D01*
X123943333Y-95533333D01*
X123976666Y-95500000D01*
X124010000Y-95433333D01*
X124010000Y-95366666D01*
X123976666Y-95300000D01*
X123943333Y-95266666D01*
X123876666Y-95233333D01*
X123743333Y-95200000D01*
X123676666Y-95166666D01*
X123643333Y-95133333D01*
X123610000Y-95066666D01*
X123610000Y-95000000D01*
X123643333Y-94933333D01*
X123676666Y-94900000D01*
X123743333Y-94866666D01*
X123910000Y-94866666D01*
X124010000Y-94900000D01*
X124310000Y-95566666D02*
X124310000Y-94866666D01*
X124476666Y-94866666D01*
X124576666Y-94900000D01*
X124643333Y-94966666D01*
X124676666Y-95033333D01*
X124710000Y-95166666D01*
X124710000Y-95266666D01*
X124676666Y-95400000D01*
X124643333Y-95466666D01*
X124576666Y-95533333D01*
X124476666Y-95566666D01*
X124310000Y-95566666D01*
X124976666Y-95366666D02*
X125310000Y-95366666D01*
X124910000Y-95566666D02*
X125143333Y-94866666D01*
X125376666Y-95566666D01*
X129006666Y-94900000D02*
X128940000Y-94866666D01*
X128840000Y-94866666D01*
X128740000Y-94900000D01*
X128673333Y-94966666D01*
X128640000Y-95033333D01*
X128606666Y-95166666D01*
X128606666Y-95266666D01*
X128640000Y-95400000D01*
X128673333Y-95466666D01*
X128740000Y-95533333D01*
X128840000Y-95566666D01*
X128906666Y-95566666D01*
X129006666Y-95533333D01*
X129040000Y-95500000D01*
X129040000Y-95266666D01*
X128906666Y-95266666D01*
X129340000Y-95566666D02*
X129340000Y-94866666D01*
X129740000Y-95566666D01*
X129740000Y-94866666D01*
X130073333Y-95566666D02*
X130073333Y-94866666D01*
X130240000Y-94866666D01*
X130340000Y-94900000D01*
X130406666Y-94966666D01*
X130440000Y-95033333D01*
X130473333Y-95166666D01*
X130473333Y-95266666D01*
X130440000Y-95400000D01*
X130406666Y-95466666D01*
X130340000Y-95533333D01*
X130240000Y-95566666D01*
X130073333Y-95566666D01*
X121070000Y-103153333D02*
X121170000Y-103186666D01*
X121336666Y-103186666D01*
X121403333Y-103153333D01*
X121436666Y-103120000D01*
X121470000Y-103053333D01*
X121470000Y-102986666D01*
X121436666Y-102920000D01*
X121403333Y-102886666D01*
X121336666Y-102853333D01*
X121203333Y-102820000D01*
X121136666Y-102786666D01*
X121103333Y-102753333D01*
X121070000Y-102686666D01*
X121070000Y-102620000D01*
X121103333Y-102553333D01*
X121136666Y-102520000D01*
X121203333Y-102486666D01*
X121370000Y-102486666D01*
X121470000Y-102520000D01*
X121770000Y-103186666D02*
X121770000Y-102486666D01*
X121936666Y-102486666D01*
X122036666Y-102520000D01*
X122103333Y-102586666D01*
X122136666Y-102653333D01*
X122170000Y-102786666D01*
X122170000Y-102886666D01*
X122136666Y-103020000D01*
X122103333Y-103086666D01*
X122036666Y-103153333D01*
X121936666Y-103186666D01*
X121770000Y-103186666D01*
X122436666Y-102986666D02*
X122770000Y-102986666D01*
X122370000Y-103186666D02*
X122603333Y-102486666D01*
X122836666Y-103186666D01*
X128606666Y-102486666D02*
X128840000Y-103186666D01*
X129073333Y-102486666D01*
X129706666Y-103120000D02*
X129673333Y-103153333D01*
X129573333Y-103186666D01*
X129506666Y-103186666D01*
X129406666Y-103153333D01*
X129340000Y-103086666D01*
X129306666Y-103020000D01*
X129273333Y-102886666D01*
X129273333Y-102786666D01*
X129306666Y-102653333D01*
X129340000Y-102586666D01*
X129406666Y-102520000D01*
X129506666Y-102486666D01*
X129573333Y-102486666D01*
X129673333Y-102520000D01*
X129706666Y-102553333D01*
X130406666Y-103120000D02*
X130373333Y-103153333D01*
X130273333Y-103186666D01*
X130206666Y-103186666D01*
X130106666Y-103153333D01*
X130040000Y-103086666D01*
X130006666Y-103020000D01*
X129973333Y-102886666D01*
X129973333Y-102786666D01*
X130006666Y-102653333D01*
X130040000Y-102586666D01*
X130106666Y-102520000D01*
X130206666Y-102486666D01*
X130273333Y-102486666D01*
X130373333Y-102520000D01*
X130406666Y-102553333D01*
D10*
X134620000Y-104140000D02*
X134620000Y-80010000D01*
X116840000Y-80010000D02*
X116840000Y-104140000D01*
X116840000Y-104140000D02*
X134620000Y-104140000D01*
D11*
X126066666Y-94866666D02*
X126300000Y-95566666D01*
X126533333Y-94866666D01*
X127166666Y-95500000D02*
X127133333Y-95533333D01*
X127033333Y-95566666D01*
X126966666Y-95566666D01*
X126866666Y-95533333D01*
X126800000Y-95466666D01*
X126766666Y-95400000D01*
X126733333Y-95266666D01*
X126733333Y-95166666D01*
X126766666Y-95033333D01*
X126800000Y-94966666D01*
X126866666Y-94900000D01*
X126966666Y-94866666D01*
X127033333Y-94866666D01*
X127133333Y-94900000D01*
X127166666Y-94933333D01*
X127866666Y-95500000D02*
X127833333Y-95533333D01*
X127733333Y-95566666D01*
X127666666Y-95566666D01*
X127566666Y-95533333D01*
X127500000Y-95466666D01*
X127466666Y-95400000D01*
X127433333Y-95266666D01*
X127433333Y-95166666D01*
X127466666Y-95033333D01*
X127500000Y-94966666D01*
X127566666Y-94900000D01*
X127666666Y-94866666D01*
X127733333Y-94866666D01*
X127833333Y-94900000D01*
X127866666Y-94933333D01*
X117812474Y-100652996D02*
X117812474Y-99952996D01*
X118112474Y-100019663D02*
X118145808Y-99986330D01*
X118212474Y-99952996D01*
X118379141Y-99952996D01*
X118445808Y-99986330D01*
X118479141Y-100019663D01*
X118512474Y-100086330D01*
X118512474Y-100152996D01*
X118479141Y-100252996D01*
X118079141Y-100652996D01*
X118512474Y-100652996D01*
X119212474Y-100586330D02*
X119179141Y-100619663D01*
X119079141Y-100652996D01*
X119012474Y-100652996D01*
X118912474Y-100619663D01*
X118845808Y-100552996D01*
X118812474Y-100486330D01*
X118779141Y-100352996D01*
X118779141Y-100252996D01*
X118812474Y-100119663D01*
X118845808Y-100052996D01*
X118912474Y-99986330D01*
X119012474Y-99952996D01*
X119079141Y-99952996D01*
X119179141Y-99986330D01*
X119212474Y-100019663D01*
X123626666Y-103153333D02*
X123726666Y-103186666D01*
X123893333Y-103186666D01*
X123960000Y-103153333D01*
X123993333Y-103120000D01*
X124026666Y-103053333D01*
X124026666Y-102986666D01*
X123993333Y-102920000D01*
X123960000Y-102886666D01*
X123893333Y-102853333D01*
X123760000Y-102820000D01*
X123693333Y-102786666D01*
X123660000Y-102753333D01*
X123626666Y-102686666D01*
X123626666Y-102620000D01*
X123660000Y-102553333D01*
X123693333Y-102520000D01*
X123760000Y-102486666D01*
X123926666Y-102486666D01*
X124026666Y-102520000D01*
X124726666Y-103120000D02*
X124693333Y-103153333D01*
X124593333Y-103186666D01*
X124526666Y-103186666D01*
X124426666Y-103153333D01*
X124360000Y-103086666D01*
X124326666Y-103020000D01*
X124293333Y-102886666D01*
X124293333Y-102786666D01*
X124326666Y-102653333D01*
X124360000Y-102586666D01*
X124426666Y-102520000D01*
X124526666Y-102486666D01*
X124593333Y-102486666D01*
X124693333Y-102520000D01*
X124726666Y-102553333D01*
X125360000Y-103186666D02*
X125026666Y-103186666D01*
X125026666Y-102486666D01*
X117812474Y-98106666D02*
X117812474Y-97406666D01*
X118112474Y-97473333D02*
X118145808Y-97440000D01*
X118212474Y-97406666D01*
X118379141Y-97406666D01*
X118445808Y-97440000D01*
X118479141Y-97473333D01*
X118512474Y-97540000D01*
X118512474Y-97606666D01*
X118479141Y-97706666D01*
X118079141Y-98106666D01*
X118512474Y-98106666D01*
X119212474Y-98040000D02*
X119179141Y-98073333D01*
X119079141Y-98106666D01*
X119012474Y-98106666D01*
X118912474Y-98073333D01*
X118845808Y-98006666D01*
X118812474Y-97940000D01*
X118779141Y-97806666D01*
X118779141Y-97706666D01*
X118812474Y-97573333D01*
X118845808Y-97506666D01*
X118912474Y-97440000D01*
X119012474Y-97406666D01*
X119079141Y-97406666D01*
X119179141Y-97440000D01*
X119212474Y-97473333D01*
D10*
X134620000Y-80010000D02*
X116840000Y-80010000D01*
D11*
X141390000Y-71403333D02*
X141490000Y-71436666D01*
X141656666Y-71436666D01*
X141723333Y-71403333D01*
X141756666Y-71370000D01*
X141790000Y-71303333D01*
X141790000Y-71236666D01*
X141756666Y-71170000D01*
X141723333Y-71136666D01*
X141656666Y-71103333D01*
X141523333Y-71070000D01*
X141456666Y-71036666D01*
X141423333Y-71003333D01*
X141390000Y-70936666D01*
X141390000Y-70870000D01*
X141423333Y-70803333D01*
X141456666Y-70770000D01*
X141523333Y-70736666D01*
X141690000Y-70736666D01*
X141790000Y-70770000D01*
X142090000Y-71436666D02*
X142090000Y-70736666D01*
X142256666Y-70736666D01*
X142356666Y-70770000D01*
X142423333Y-70836666D01*
X142456666Y-70903333D01*
X142490000Y-71036666D01*
X142490000Y-71136666D01*
X142456666Y-71270000D01*
X142423333Y-71336666D01*
X142356666Y-71403333D01*
X142256666Y-71436666D01*
X142090000Y-71436666D01*
X142756666Y-71236666D02*
X143090000Y-71236666D01*
X142690000Y-71436666D02*
X142923333Y-70736666D01*
X143156666Y-71436666D01*
X146786666Y-70770000D02*
X146720000Y-70736666D01*
X146620000Y-70736666D01*
X146520000Y-70770000D01*
X146453333Y-70836666D01*
X146420000Y-70903333D01*
X146386666Y-71036666D01*
X146386666Y-71136666D01*
X146420000Y-71270000D01*
X146453333Y-71336666D01*
X146520000Y-71403333D01*
X146620000Y-71436666D01*
X146686666Y-71436666D01*
X146786666Y-71403333D01*
X146820000Y-71370000D01*
X146820000Y-71136666D01*
X146686666Y-71136666D01*
X147120000Y-71436666D02*
X147120000Y-70736666D01*
X147520000Y-71436666D01*
X147520000Y-70736666D01*
X147853333Y-71436666D02*
X147853333Y-70736666D01*
X148020000Y-70736666D01*
X148120000Y-70770000D01*
X148186666Y-70836666D01*
X148220000Y-70903333D01*
X148253333Y-71036666D01*
X148253333Y-71136666D01*
X148220000Y-71270000D01*
X148186666Y-71336666D01*
X148120000Y-71403333D01*
X148020000Y-71436666D01*
X147853333Y-71436666D01*
D10*
X152400000Y-80010000D02*
X152400000Y-55880000D01*
D11*
X141406666Y-79023333D02*
X141506666Y-79056666D01*
X141673333Y-79056666D01*
X141740000Y-79023333D01*
X141773333Y-78990000D01*
X141806666Y-78923333D01*
X141806666Y-78856666D01*
X141773333Y-78790000D01*
X141740000Y-78756666D01*
X141673333Y-78723333D01*
X141540000Y-78690000D01*
X141473333Y-78656666D01*
X141440000Y-78623333D01*
X141406666Y-78556666D01*
X141406666Y-78490000D01*
X141440000Y-78423333D01*
X141473333Y-78390000D01*
X141540000Y-78356666D01*
X141706666Y-78356666D01*
X141806666Y-78390000D01*
X142506666Y-78990000D02*
X142473333Y-79023333D01*
X142373333Y-79056666D01*
X142306666Y-79056666D01*
X142206666Y-79023333D01*
X142140000Y-78956666D01*
X142106666Y-78890000D01*
X142073333Y-78756666D01*
X142073333Y-78656666D01*
X142106666Y-78523333D01*
X142140000Y-78456666D01*
X142206666Y-78390000D01*
X142306666Y-78356666D01*
X142373333Y-78356666D01*
X142473333Y-78390000D01*
X142506666Y-78423333D01*
X143140000Y-79056666D02*
X142806666Y-79056666D01*
X142806666Y-78356666D01*
D10*
X152400000Y-55880000D02*
X134620000Y-55880000D01*
X134620000Y-80010000D02*
X152400000Y-80010000D01*
D11*
X144246666Y-78390000D02*
X144180000Y-78356666D01*
X144080000Y-78356666D01*
X143980000Y-78390000D01*
X143913333Y-78456666D01*
X143880000Y-78523333D01*
X143846666Y-78656666D01*
X143846666Y-78756666D01*
X143880000Y-78890000D01*
X143913333Y-78956666D01*
X143980000Y-79023333D01*
X144080000Y-79056666D01*
X144146666Y-79056666D01*
X144246666Y-79023333D01*
X144280000Y-78990000D01*
X144280000Y-78756666D01*
X144146666Y-78756666D01*
X144580000Y-79056666D02*
X144580000Y-78356666D01*
X144980000Y-79056666D01*
X144980000Y-78356666D01*
X145313333Y-79056666D02*
X145313333Y-78356666D01*
X145480000Y-78356666D01*
X145580000Y-78390000D01*
X145646666Y-78456666D01*
X145680000Y-78523333D01*
X145713333Y-78656666D01*
X145713333Y-78756666D01*
X145680000Y-78890000D01*
X145646666Y-78956666D01*
X145580000Y-79023333D01*
X145480000Y-79056666D01*
X145313333Y-79056666D01*
X138866666Y-71403333D02*
X138966666Y-71436666D01*
X139133333Y-71436666D01*
X139200000Y-71403333D01*
X139233333Y-71370000D01*
X139266666Y-71303333D01*
X139266666Y-71236666D01*
X139233333Y-71170000D01*
X139200000Y-71136666D01*
X139133333Y-71103333D01*
X139000000Y-71070000D01*
X138933333Y-71036666D01*
X138900000Y-71003333D01*
X138866666Y-70936666D01*
X138866666Y-70870000D01*
X138900000Y-70803333D01*
X138933333Y-70770000D01*
X139000000Y-70736666D01*
X139166666Y-70736666D01*
X139266666Y-70770000D01*
X139966666Y-71370000D02*
X139933333Y-71403333D01*
X139833333Y-71436666D01*
X139766666Y-71436666D01*
X139666666Y-71403333D01*
X139600000Y-71336666D01*
X139566666Y-71270000D01*
X139533333Y-71136666D01*
X139533333Y-71036666D01*
X139566666Y-70903333D01*
X139600000Y-70836666D01*
X139666666Y-70770000D01*
X139766666Y-70736666D01*
X139833333Y-70736666D01*
X139933333Y-70770000D01*
X139966666Y-70803333D01*
X140600000Y-71436666D02*
X140266666Y-71436666D01*
X140266666Y-70736666D01*
D10*
X134620000Y-55880000D02*
X134620000Y-80010000D01*
D11*
X135592474Y-73976666D02*
X135592474Y-73276666D01*
X135892474Y-73343333D02*
X135925808Y-73310000D01*
X135992474Y-73276666D01*
X136159141Y-73276666D01*
X136225808Y-73310000D01*
X136259141Y-73343333D01*
X136292474Y-73410000D01*
X136292474Y-73476666D01*
X136259141Y-73576666D01*
X135859141Y-73976666D01*
X136292474Y-73976666D01*
X136992474Y-73910000D02*
X136959141Y-73943333D01*
X136859141Y-73976666D01*
X136792474Y-73976666D01*
X136692474Y-73943333D01*
X136625808Y-73876666D01*
X136592474Y-73810000D01*
X136559141Y-73676666D01*
X136559141Y-73576666D01*
X136592474Y-73443333D01*
X136625808Y-73376666D01*
X136692474Y-73310000D01*
X136792474Y-73276666D01*
X136859141Y-73276666D01*
X136959141Y-73310000D01*
X136992474Y-73343333D01*
X143846666Y-70736666D02*
X144080000Y-71436666D01*
X144313333Y-70736666D01*
X144946666Y-71370000D02*
X144913333Y-71403333D01*
X144813333Y-71436666D01*
X144746666Y-71436666D01*
X144646666Y-71403333D01*
X144580000Y-71336666D01*
X144546666Y-71270000D01*
X144513333Y-71136666D01*
X144513333Y-71036666D01*
X144546666Y-70903333D01*
X144580000Y-70836666D01*
X144646666Y-70770000D01*
X144746666Y-70736666D01*
X144813333Y-70736666D01*
X144913333Y-70770000D01*
X144946666Y-70803333D01*
X145646666Y-71370000D02*
X145613333Y-71403333D01*
X145513333Y-71436666D01*
X145446666Y-71436666D01*
X145346666Y-71403333D01*
X145280000Y-71336666D01*
X145246666Y-71270000D01*
X145213333Y-71136666D01*
X145213333Y-71036666D01*
X145246666Y-70903333D01*
X145280000Y-70836666D01*
X145346666Y-70770000D01*
X145446666Y-70736666D01*
X145513333Y-70736666D01*
X145613333Y-70770000D01*
X145646666Y-70803333D01*
X138850000Y-79023333D02*
X138950000Y-79056666D01*
X139116666Y-79056666D01*
X139183333Y-79023333D01*
X139216666Y-78990000D01*
X139250000Y-78923333D01*
X139250000Y-78856666D01*
X139216666Y-78790000D01*
X139183333Y-78756666D01*
X139116666Y-78723333D01*
X138983333Y-78690000D01*
X138916666Y-78656666D01*
X138883333Y-78623333D01*
X138850000Y-78556666D01*
X138850000Y-78490000D01*
X138883333Y-78423333D01*
X138916666Y-78390000D01*
X138983333Y-78356666D01*
X139150000Y-78356666D01*
X139250000Y-78390000D01*
X139550000Y-79056666D02*
X139550000Y-78356666D01*
X139716666Y-78356666D01*
X139816666Y-78390000D01*
X139883333Y-78456666D01*
X139916666Y-78523333D01*
X139950000Y-78656666D01*
X139950000Y-78756666D01*
X139916666Y-78890000D01*
X139883333Y-78956666D01*
X139816666Y-79023333D01*
X139716666Y-79056666D01*
X139550000Y-79056666D01*
X140216666Y-78856666D02*
X140550000Y-78856666D01*
X140150000Y-79056666D02*
X140383333Y-78356666D01*
X140616666Y-79056666D01*
X146386666Y-78356666D02*
X146620000Y-79056666D01*
X146853333Y-78356666D01*
X147486666Y-78990000D02*
X147453333Y-79023333D01*
X147353333Y-79056666D01*
X147286666Y-79056666D01*
X147186666Y-79023333D01*
X147120000Y-78956666D01*
X147086666Y-78890000D01*
X147053333Y-78756666D01*
X147053333Y-78656666D01*
X147086666Y-78523333D01*
X147120000Y-78456666D01*
X147186666Y-78390000D01*
X147286666Y-78356666D01*
X147353333Y-78356666D01*
X147453333Y-78390000D01*
X147486666Y-78423333D01*
X148186666Y-78990000D02*
X148153333Y-79023333D01*
X148053333Y-79056666D01*
X147986666Y-79056666D01*
X147886666Y-79023333D01*
X147820000Y-78956666D01*
X147786666Y-78890000D01*
X147753333Y-78756666D01*
X147753333Y-78656666D01*
X147786666Y-78523333D01*
X147820000Y-78456666D01*
X147886666Y-78390000D01*
X147986666Y-78356666D01*
X148053333Y-78356666D01*
X148153333Y-78390000D01*
X148186666Y-78423333D01*
X135592474Y-76522996D02*
X135592474Y-75822996D01*
X135892474Y-75889663D02*
X135925808Y-75856330D01*
X135992474Y-75822996D01*
X136159141Y-75822996D01*
X136225808Y-75856330D01*
X136259141Y-75889663D01*
X136292474Y-75956330D01*
X136292474Y-76022996D01*
X136259141Y-76122996D01*
X135859141Y-76522996D01*
X136292474Y-76522996D01*
X136992474Y-76456330D02*
X136959141Y-76489663D01*
X136859141Y-76522996D01*
X136792474Y-76522996D01*
X136692474Y-76489663D01*
X136625808Y-76422996D01*
X136592474Y-76356330D01*
X136559141Y-76222996D01*
X136559141Y-76122996D01*
X136592474Y-75989663D01*
X136625808Y-75922996D01*
X136692474Y-75856330D01*
X136792474Y-75822996D01*
X136859141Y-75822996D01*
X136959141Y-75856330D01*
X136992474Y-75889663D01*
X126466666Y-78390000D02*
X126400000Y-78356666D01*
X126300000Y-78356666D01*
X126200000Y-78390000D01*
X126133333Y-78456666D01*
X126100000Y-78523333D01*
X126066666Y-78656666D01*
X126066666Y-78756666D01*
X126100000Y-78890000D01*
X126133333Y-78956666D01*
X126200000Y-79023333D01*
X126300000Y-79056666D01*
X126366666Y-79056666D01*
X126466666Y-79023333D01*
X126500000Y-78990000D01*
X126500000Y-78756666D01*
X126366666Y-78756666D01*
X126800000Y-79056666D02*
X126800000Y-78356666D01*
X127200000Y-79056666D01*
X127200000Y-78356666D01*
X127533333Y-79056666D02*
X127533333Y-78356666D01*
X127700000Y-78356666D01*
X127800000Y-78390000D01*
X127866666Y-78456666D01*
X127900000Y-78523333D01*
X127933333Y-78656666D01*
X127933333Y-78756666D01*
X127900000Y-78890000D01*
X127866666Y-78956666D01*
X127800000Y-79023333D01*
X127700000Y-79056666D01*
X127533333Y-79056666D01*
X129006666Y-70770000D02*
X128940000Y-70736666D01*
X128840000Y-70736666D01*
X128740000Y-70770000D01*
X128673333Y-70836666D01*
X128640000Y-70903333D01*
X128606666Y-71036666D01*
X128606666Y-71136666D01*
X128640000Y-71270000D01*
X128673333Y-71336666D01*
X128740000Y-71403333D01*
X128840000Y-71436666D01*
X128906666Y-71436666D01*
X129006666Y-71403333D01*
X129040000Y-71370000D01*
X129040000Y-71136666D01*
X128906666Y-71136666D01*
X129340000Y-71436666D02*
X129340000Y-70736666D01*
X129740000Y-71436666D01*
X129740000Y-70736666D01*
X130073333Y-71436666D02*
X130073333Y-70736666D01*
X130240000Y-70736666D01*
X130340000Y-70770000D01*
X130406666Y-70836666D01*
X130440000Y-70903333D01*
X130473333Y-71036666D01*
X130473333Y-71136666D01*
X130440000Y-71270000D01*
X130406666Y-71336666D01*
X130340000Y-71403333D01*
X130240000Y-71436666D01*
X130073333Y-71436666D01*
D10*
X134620000Y-55880000D02*
X116840000Y-55880000D01*
X134620000Y-80010000D02*
X134620000Y-55880000D01*
X116840000Y-80010000D02*
X134620000Y-80010000D01*
X116840000Y-55880000D02*
X116840000Y-80010000D01*
D11*
X126066666Y-70736666D02*
X126300000Y-71436666D01*
X126533333Y-70736666D01*
X127166666Y-71370000D02*
X127133333Y-71403333D01*
X127033333Y-71436666D01*
X126966666Y-71436666D01*
X126866666Y-71403333D01*
X126800000Y-71336666D01*
X126766666Y-71270000D01*
X126733333Y-71136666D01*
X126733333Y-71036666D01*
X126766666Y-70903333D01*
X126800000Y-70836666D01*
X126866666Y-70770000D01*
X126966666Y-70736666D01*
X127033333Y-70736666D01*
X127133333Y-70770000D01*
X127166666Y-70803333D01*
X127866666Y-71370000D02*
X127833333Y-71403333D01*
X127733333Y-71436666D01*
X127666666Y-71436666D01*
X127566666Y-71403333D01*
X127500000Y-71336666D01*
X127466666Y-71270000D01*
X127433333Y-71136666D01*
X127433333Y-71036666D01*
X127466666Y-70903333D01*
X127500000Y-70836666D01*
X127566666Y-70770000D01*
X127666666Y-70736666D01*
X127733333Y-70736666D01*
X127833333Y-70770000D01*
X127866666Y-70803333D01*
X117812474Y-76522996D02*
X117812474Y-75822996D01*
X118112474Y-75889663D02*
X118145808Y-75856330D01*
X118212474Y-75822996D01*
X118379141Y-75822996D01*
X118445808Y-75856330D01*
X118479141Y-75889663D01*
X118512474Y-75956330D01*
X118512474Y-76022996D01*
X118479141Y-76122996D01*
X118079141Y-76522996D01*
X118512474Y-76522996D01*
X119212474Y-76456330D02*
X119179141Y-76489663D01*
X119079141Y-76522996D01*
X119012474Y-76522996D01*
X118912474Y-76489663D01*
X118845808Y-76422996D01*
X118812474Y-76356330D01*
X118779141Y-76222996D01*
X118779141Y-76122996D01*
X118812474Y-75989663D01*
X118845808Y-75922996D01*
X118912474Y-75856330D01*
X119012474Y-75822996D01*
X119079141Y-75822996D01*
X119179141Y-75856330D01*
X119212474Y-75889663D01*
X123610000Y-71403333D02*
X123710000Y-71436666D01*
X123876666Y-71436666D01*
X123943333Y-71403333D01*
X123976666Y-71370000D01*
X124010000Y-71303333D01*
X124010000Y-71236666D01*
X123976666Y-71170000D01*
X123943333Y-71136666D01*
X123876666Y-71103333D01*
X123743333Y-71070000D01*
X123676666Y-71036666D01*
X123643333Y-71003333D01*
X123610000Y-70936666D01*
X123610000Y-70870000D01*
X123643333Y-70803333D01*
X123676666Y-70770000D01*
X123743333Y-70736666D01*
X123910000Y-70736666D01*
X124010000Y-70770000D01*
X124310000Y-71436666D02*
X124310000Y-70736666D01*
X124476666Y-70736666D01*
X124576666Y-70770000D01*
X124643333Y-70836666D01*
X124676666Y-70903333D01*
X124710000Y-71036666D01*
X124710000Y-71136666D01*
X124676666Y-71270000D01*
X124643333Y-71336666D01*
X124576666Y-71403333D01*
X124476666Y-71436666D01*
X124310000Y-71436666D01*
X124976666Y-71236666D02*
X125310000Y-71236666D01*
X124910000Y-71436666D02*
X125143333Y-70736666D01*
X125376666Y-71436666D01*
X123626666Y-79023333D02*
X123726666Y-79056666D01*
X123893333Y-79056666D01*
X123960000Y-79023333D01*
X123993333Y-78990000D01*
X124026666Y-78923333D01*
X124026666Y-78856666D01*
X123993333Y-78790000D01*
X123960000Y-78756666D01*
X123893333Y-78723333D01*
X123760000Y-78690000D01*
X123693333Y-78656666D01*
X123660000Y-78623333D01*
X123626666Y-78556666D01*
X123626666Y-78490000D01*
X123660000Y-78423333D01*
X123693333Y-78390000D01*
X123760000Y-78356666D01*
X123926666Y-78356666D01*
X124026666Y-78390000D01*
X124726666Y-78990000D02*
X124693333Y-79023333D01*
X124593333Y-79056666D01*
X124526666Y-79056666D01*
X124426666Y-79023333D01*
X124360000Y-78956666D01*
X124326666Y-78890000D01*
X124293333Y-78756666D01*
X124293333Y-78656666D01*
X124326666Y-78523333D01*
X124360000Y-78456666D01*
X124426666Y-78390000D01*
X124526666Y-78356666D01*
X124593333Y-78356666D01*
X124693333Y-78390000D01*
X124726666Y-78423333D01*
X125360000Y-79056666D02*
X125026666Y-79056666D01*
X125026666Y-78356666D01*
X128606666Y-78356666D02*
X128840000Y-79056666D01*
X129073333Y-78356666D01*
X129706666Y-78990000D02*
X129673333Y-79023333D01*
X129573333Y-79056666D01*
X129506666Y-79056666D01*
X129406666Y-79023333D01*
X129340000Y-78956666D01*
X129306666Y-78890000D01*
X129273333Y-78756666D01*
X129273333Y-78656666D01*
X129306666Y-78523333D01*
X129340000Y-78456666D01*
X129406666Y-78390000D01*
X129506666Y-78356666D01*
X129573333Y-78356666D01*
X129673333Y-78390000D01*
X129706666Y-78423333D01*
X130406666Y-78990000D02*
X130373333Y-79023333D01*
X130273333Y-79056666D01*
X130206666Y-79056666D01*
X130106666Y-79023333D01*
X130040000Y-78956666D01*
X130006666Y-78890000D01*
X129973333Y-78756666D01*
X129973333Y-78656666D01*
X130006666Y-78523333D01*
X130040000Y-78456666D01*
X130106666Y-78390000D01*
X130206666Y-78356666D01*
X130273333Y-78356666D01*
X130373333Y-78390000D01*
X130406666Y-78423333D01*
X121086666Y-71403333D02*
X121186666Y-71436666D01*
X121353333Y-71436666D01*
X121420000Y-71403333D01*
X121453333Y-71370000D01*
X121486666Y-71303333D01*
X121486666Y-71236666D01*
X121453333Y-71170000D01*
X121420000Y-71136666D01*
X121353333Y-71103333D01*
X121220000Y-71070000D01*
X121153333Y-71036666D01*
X121120000Y-71003333D01*
X121086666Y-70936666D01*
X121086666Y-70870000D01*
X121120000Y-70803333D01*
X121153333Y-70770000D01*
X121220000Y-70736666D01*
X121386666Y-70736666D01*
X121486666Y-70770000D01*
X122186666Y-71370000D02*
X122153333Y-71403333D01*
X122053333Y-71436666D01*
X121986666Y-71436666D01*
X121886666Y-71403333D01*
X121820000Y-71336666D01*
X121786666Y-71270000D01*
X121753333Y-71136666D01*
X121753333Y-71036666D01*
X121786666Y-70903333D01*
X121820000Y-70836666D01*
X121886666Y-70770000D01*
X121986666Y-70736666D01*
X122053333Y-70736666D01*
X122153333Y-70770000D01*
X122186666Y-70803333D01*
X122820000Y-71436666D02*
X122486666Y-71436666D01*
X122486666Y-70736666D01*
X121070000Y-79023333D02*
X121170000Y-79056666D01*
X121336666Y-79056666D01*
X121403333Y-79023333D01*
X121436666Y-78990000D01*
X121470000Y-78923333D01*
X121470000Y-78856666D01*
X121436666Y-78790000D01*
X121403333Y-78756666D01*
X121336666Y-78723333D01*
X121203333Y-78690000D01*
X121136666Y-78656666D01*
X121103333Y-78623333D01*
X121070000Y-78556666D01*
X121070000Y-78490000D01*
X121103333Y-78423333D01*
X121136666Y-78390000D01*
X121203333Y-78356666D01*
X121370000Y-78356666D01*
X121470000Y-78390000D01*
X121770000Y-79056666D02*
X121770000Y-78356666D01*
X121936666Y-78356666D01*
X122036666Y-78390000D01*
X122103333Y-78456666D01*
X122136666Y-78523333D01*
X122170000Y-78656666D01*
X122170000Y-78756666D01*
X122136666Y-78890000D01*
X122103333Y-78956666D01*
X122036666Y-79023333D01*
X121936666Y-79056666D01*
X121770000Y-79056666D01*
X122436666Y-78856666D02*
X122770000Y-78856666D01*
X122370000Y-79056666D02*
X122603333Y-78356666D01*
X122836666Y-79056666D01*
X117812474Y-73976666D02*
X117812474Y-73276666D01*
X118112474Y-73343333D02*
X118145808Y-73310000D01*
X118212474Y-73276666D01*
X118379141Y-73276666D01*
X118445808Y-73310000D01*
X118479141Y-73343333D01*
X118512474Y-73410000D01*
X118512474Y-73476666D01*
X118479141Y-73576666D01*
X118079141Y-73976666D01*
X118512474Y-73976666D01*
X119212474Y-73910000D02*
X119179141Y-73943333D01*
X119079141Y-73976666D01*
X119012474Y-73976666D01*
X118912474Y-73943333D01*
X118845808Y-73876666D01*
X118812474Y-73810000D01*
X118779141Y-73676666D01*
X118779141Y-73576666D01*
X118812474Y-73443333D01*
X118845808Y-73376666D01*
X118912474Y-73310000D01*
X119012474Y-73276666D01*
X119079141Y-73276666D01*
X119179141Y-73310000D01*
X119212474Y-73343333D01*
X109973333Y-151446666D02*
X109973333Y-150746666D01*
X110140000Y-150746666D01*
X110240000Y-150780000D01*
X110306666Y-150846666D01*
X110340000Y-150913333D01*
X110373333Y-151046666D01*
X110373333Y-151146666D01*
X110340000Y-151280000D01*
X110306666Y-151346666D01*
X110240000Y-151413333D01*
X110140000Y-151446666D01*
X109973333Y-151446666D01*
X110806666Y-150746666D02*
X110873333Y-150746666D01*
X110940000Y-150780000D01*
X110973333Y-150813333D01*
X111006666Y-150880000D01*
X111040000Y-151013333D01*
X111040000Y-151180000D01*
X111006666Y-151313333D01*
X110973333Y-151380000D01*
X110940000Y-151413333D01*
X110873333Y-151446666D01*
X110806666Y-151446666D01*
X110740000Y-151413333D01*
X110706666Y-151380000D01*
X110673333Y-151313333D01*
X110640000Y-151180000D01*
X110640000Y-151013333D01*
X110673333Y-150880000D01*
X110706666Y-150813333D01*
X110740000Y-150780000D01*
X110806666Y-150746666D01*
X104876666Y-143160000D02*
X104810000Y-143126666D01*
X104710000Y-143126666D01*
X104610000Y-143160000D01*
X104543333Y-143226666D01*
X104510000Y-143293333D01*
X104476666Y-143426666D01*
X104476666Y-143526666D01*
X104510000Y-143660000D01*
X104543333Y-143726666D01*
X104610000Y-143793333D01*
X104710000Y-143826666D01*
X104776666Y-143826666D01*
X104876666Y-143793333D01*
X104910000Y-143760000D01*
X104910000Y-143526666D01*
X104776666Y-143526666D01*
X105210000Y-143826666D02*
X105210000Y-143126666D01*
X105610000Y-143826666D01*
X105610000Y-143126666D01*
X105943333Y-143826666D02*
X105943333Y-143126666D01*
X106110000Y-143126666D01*
X106210000Y-143160000D01*
X106276666Y-143226666D01*
X106310000Y-143293333D01*
X106343333Y-143426666D01*
X106343333Y-143526666D01*
X106310000Y-143660000D01*
X106276666Y-143726666D01*
X106210000Y-143793333D01*
X106110000Y-143826666D01*
X105943333Y-143826666D01*
X100015808Y-146366666D02*
X100015808Y-145666666D01*
X100182474Y-145666666D01*
X100282474Y-145700000D01*
X100349141Y-145766666D01*
X100382474Y-145833333D01*
X100415808Y-145966666D01*
X100415808Y-146066666D01*
X100382474Y-146200000D01*
X100349141Y-146266666D01*
X100282474Y-146333333D01*
X100182474Y-146366666D01*
X100015808Y-146366666D01*
X100715808Y-146366666D02*
X100715808Y-145666666D01*
X101415808Y-145700000D02*
X101349141Y-145666666D01*
X101249141Y-145666666D01*
X101149141Y-145700000D01*
X101082474Y-145766666D01*
X101049141Y-145833333D01*
X101015808Y-145966666D01*
X101015808Y-146066666D01*
X101049141Y-146200000D01*
X101082474Y-146266666D01*
X101149141Y-146333333D01*
X101249141Y-146366666D01*
X101315808Y-146366666D01*
X101415808Y-146333333D01*
X101449141Y-146300000D01*
X101449141Y-146066666D01*
X101315808Y-146066666D01*
X107433333Y-143826666D02*
X107433333Y-143126666D01*
X107600000Y-143126666D01*
X107700000Y-143160000D01*
X107766666Y-143226666D01*
X107800000Y-143293333D01*
X107833333Y-143426666D01*
X107833333Y-143526666D01*
X107800000Y-143660000D01*
X107766666Y-143726666D01*
X107700000Y-143793333D01*
X107600000Y-143826666D01*
X107433333Y-143826666D01*
X108266666Y-143126666D02*
X108333333Y-143126666D01*
X108400000Y-143160000D01*
X108433333Y-143193333D01*
X108466666Y-143260000D01*
X108500000Y-143393333D01*
X108500000Y-143560000D01*
X108466666Y-143693333D01*
X108433333Y-143760000D01*
X108400000Y-143793333D01*
X108333333Y-143826666D01*
X108266666Y-143826666D01*
X108200000Y-143793333D01*
X108166666Y-143760000D01*
X108133333Y-143693333D01*
X108100000Y-143560000D01*
X108100000Y-143393333D01*
X108133333Y-143260000D01*
X108166666Y-143193333D01*
X108200000Y-143160000D01*
X108266666Y-143126666D01*
X104876666Y-150780000D02*
X104810000Y-150746666D01*
X104710000Y-150746666D01*
X104610000Y-150780000D01*
X104543333Y-150846666D01*
X104510000Y-150913333D01*
X104476666Y-151046666D01*
X104476666Y-151146666D01*
X104510000Y-151280000D01*
X104543333Y-151346666D01*
X104610000Y-151413333D01*
X104710000Y-151446666D01*
X104776666Y-151446666D01*
X104876666Y-151413333D01*
X104910000Y-151380000D01*
X104910000Y-151146666D01*
X104776666Y-151146666D01*
X105210000Y-151446666D02*
X105210000Y-150746666D01*
X105610000Y-151446666D01*
X105610000Y-150746666D01*
X105943333Y-151446666D02*
X105943333Y-150746666D01*
X106110000Y-150746666D01*
X106210000Y-150780000D01*
X106276666Y-150846666D01*
X106310000Y-150913333D01*
X106343333Y-151046666D01*
X106343333Y-151146666D01*
X106310000Y-151280000D01*
X106276666Y-151346666D01*
X106210000Y-151413333D01*
X106110000Y-151446666D01*
X105943333Y-151446666D01*
X100066666Y-148879663D02*
X100166666Y-148912996D01*
X100333333Y-148912996D01*
X100400000Y-148879663D01*
X100433333Y-148846330D01*
X100466666Y-148779663D01*
X100466666Y-148712996D01*
X100433333Y-148646330D01*
X100400000Y-148612996D01*
X100333333Y-148579663D01*
X100200000Y-148546330D01*
X100133333Y-148512996D01*
X100100000Y-148479663D01*
X100066666Y-148412996D01*
X100066666Y-148346330D01*
X100100000Y-148279663D01*
X100133333Y-148246330D01*
X100200000Y-148212996D01*
X100366666Y-148212996D01*
X100466666Y-148246330D01*
X100766666Y-148546330D02*
X101000000Y-148546330D01*
X101100000Y-148912996D02*
X100766666Y-148912996D01*
X100766666Y-148212996D01*
X101100000Y-148212996D01*
X101800000Y-148912996D02*
X101566666Y-148579663D01*
X101400000Y-148912996D02*
X101400000Y-148212996D01*
X101666666Y-148212996D01*
X101733333Y-148246330D01*
X101766666Y-148279663D01*
X101800000Y-148346330D01*
X101800000Y-148446330D01*
X101766666Y-148512996D01*
X101733333Y-148546330D01*
X101666666Y-148579663D01*
X101400000Y-148579663D01*
X102000000Y-148212996D02*
X102233333Y-148912996D01*
X102466666Y-148212996D01*
X102833333Y-148212996D02*
X102966666Y-148212996D01*
X103033333Y-148246330D01*
X103100000Y-148312996D01*
X103133333Y-148446330D01*
X103133333Y-148679663D01*
X103100000Y-148812996D01*
X103033333Y-148879663D01*
X102966666Y-148912996D01*
X102833333Y-148912996D01*
X102766666Y-148879663D01*
X102700000Y-148812996D01*
X102666666Y-148679663D01*
X102666666Y-148446330D01*
X102700000Y-148312996D01*
X102766666Y-148246330D01*
X102833333Y-148212996D01*
D10*
X99060000Y-128270000D02*
X99060000Y-152400000D01*
X116840000Y-152400000D02*
X116840000Y-128270000D01*
X99060000Y-152400000D02*
X116840000Y-152400000D01*
D11*
X109556666Y-143126666D02*
X109790000Y-143826666D01*
X110023333Y-143126666D01*
X110656666Y-143760000D02*
X110623333Y-143793333D01*
X110523333Y-143826666D01*
X110456666Y-143826666D01*
X110356666Y-143793333D01*
X110290000Y-143726666D01*
X110256666Y-143660000D01*
X110223333Y-143526666D01*
X110223333Y-143426666D01*
X110256666Y-143293333D01*
X110290000Y-143226666D01*
X110356666Y-143160000D01*
X110456666Y-143126666D01*
X110523333Y-143126666D01*
X110623333Y-143160000D01*
X110656666Y-143193333D01*
X111356666Y-143760000D02*
X111323333Y-143793333D01*
X111223333Y-143826666D01*
X111156666Y-143826666D01*
X111056666Y-143793333D01*
X110990000Y-143726666D01*
X110956666Y-143660000D01*
X110923333Y-143526666D01*
X110923333Y-143426666D01*
X110956666Y-143293333D01*
X110990000Y-143226666D01*
X111056666Y-143160000D01*
X111156666Y-143126666D01*
X111223333Y-143126666D01*
X111323333Y-143160000D01*
X111356666Y-143193333D01*
X107016666Y-150746666D02*
X107250000Y-151446666D01*
X107483333Y-150746666D01*
X108116666Y-151380000D02*
X108083333Y-151413333D01*
X107983333Y-151446666D01*
X107916666Y-151446666D01*
X107816666Y-151413333D01*
X107750000Y-151346666D01*
X107716666Y-151280000D01*
X107683333Y-151146666D01*
X107683333Y-151046666D01*
X107716666Y-150913333D01*
X107750000Y-150846666D01*
X107816666Y-150780000D01*
X107916666Y-150746666D01*
X107983333Y-150746666D01*
X108083333Y-150780000D01*
X108116666Y-150813333D01*
X108816666Y-151380000D02*
X108783333Y-151413333D01*
X108683333Y-151446666D01*
X108616666Y-151446666D01*
X108516666Y-151413333D01*
X108450000Y-151346666D01*
X108416666Y-151280000D01*
X108383333Y-151146666D01*
X108383333Y-151046666D01*
X108416666Y-150913333D01*
X108450000Y-150846666D01*
X108516666Y-150780000D01*
X108616666Y-150746666D01*
X108683333Y-150746666D01*
X108783333Y-150780000D01*
X108816666Y-150813333D01*
D10*
X116840000Y-128270000D02*
X99060000Y-128270000D01*
X99060000Y-152400000D02*
X99060000Y-128270000D01*
X81280000Y-152400000D02*
X99060000Y-152400000D01*
D11*
X92193333Y-151446666D02*
X92193333Y-150746666D01*
X92360000Y-150746666D01*
X92460000Y-150780000D01*
X92526666Y-150846666D01*
X92560000Y-150913333D01*
X92593333Y-151046666D01*
X92593333Y-151146666D01*
X92560000Y-151280000D01*
X92526666Y-151346666D01*
X92460000Y-151413333D01*
X92360000Y-151446666D01*
X92193333Y-151446666D01*
X93026666Y-150746666D02*
X93093333Y-150746666D01*
X93160000Y-150780000D01*
X93193333Y-150813333D01*
X93226666Y-150880000D01*
X93260000Y-151013333D01*
X93260000Y-151180000D01*
X93226666Y-151313333D01*
X93193333Y-151380000D01*
X93160000Y-151413333D01*
X93093333Y-151446666D01*
X93026666Y-151446666D01*
X92960000Y-151413333D01*
X92926666Y-151380000D01*
X92893333Y-151313333D01*
X92860000Y-151180000D01*
X92860000Y-151013333D01*
X92893333Y-150880000D01*
X92926666Y-150813333D01*
X92960000Y-150780000D01*
X93026666Y-150746666D01*
X87096666Y-150780000D02*
X87030000Y-150746666D01*
X86930000Y-150746666D01*
X86830000Y-150780000D01*
X86763333Y-150846666D01*
X86730000Y-150913333D01*
X86696666Y-151046666D01*
X86696666Y-151146666D01*
X86730000Y-151280000D01*
X86763333Y-151346666D01*
X86830000Y-151413333D01*
X86930000Y-151446666D01*
X86996666Y-151446666D01*
X87096666Y-151413333D01*
X87130000Y-151380000D01*
X87130000Y-151146666D01*
X86996666Y-151146666D01*
X87430000Y-151446666D02*
X87430000Y-150746666D01*
X87830000Y-151446666D01*
X87830000Y-150746666D01*
X88163333Y-151446666D02*
X88163333Y-150746666D01*
X88330000Y-150746666D01*
X88430000Y-150780000D01*
X88496666Y-150846666D01*
X88530000Y-150913333D01*
X88563333Y-151046666D01*
X88563333Y-151146666D01*
X88530000Y-151280000D01*
X88496666Y-151346666D01*
X88430000Y-151413333D01*
X88330000Y-151446666D01*
X88163333Y-151446666D01*
X82286666Y-148879663D02*
X82386666Y-148912996D01*
X82553333Y-148912996D01*
X82620000Y-148879663D01*
X82653333Y-148846330D01*
X82686666Y-148779663D01*
X82686666Y-148712996D01*
X82653333Y-148646330D01*
X82620000Y-148612996D01*
X82553333Y-148579663D01*
X82420000Y-148546330D01*
X82353333Y-148512996D01*
X82320000Y-148479663D01*
X82286666Y-148412996D01*
X82286666Y-148346330D01*
X82320000Y-148279663D01*
X82353333Y-148246330D01*
X82420000Y-148212996D01*
X82586666Y-148212996D01*
X82686666Y-148246330D01*
X82986666Y-148546330D02*
X83220000Y-148546330D01*
X83320000Y-148912996D02*
X82986666Y-148912996D01*
X82986666Y-148212996D01*
X83320000Y-148212996D01*
X84020000Y-148912996D02*
X83786666Y-148579663D01*
X83620000Y-148912996D02*
X83620000Y-148212996D01*
X83886666Y-148212996D01*
X83953333Y-148246330D01*
X83986666Y-148279663D01*
X84020000Y-148346330D01*
X84020000Y-148446330D01*
X83986666Y-148512996D01*
X83953333Y-148546330D01*
X83886666Y-148579663D01*
X83620000Y-148579663D01*
X84220000Y-148212996D02*
X84453333Y-148912996D01*
X84686666Y-148212996D01*
X85053333Y-148212996D02*
X85186666Y-148212996D01*
X85253333Y-148246330D01*
X85320000Y-148312996D01*
X85353333Y-148446330D01*
X85353333Y-148679663D01*
X85320000Y-148812996D01*
X85253333Y-148879663D01*
X85186666Y-148912996D01*
X85053333Y-148912996D01*
X84986666Y-148879663D01*
X84920000Y-148812996D01*
X84886666Y-148679663D01*
X84886666Y-148446330D01*
X84920000Y-148312996D01*
X84986666Y-148246330D01*
X85053333Y-148212996D01*
X91776666Y-143126666D02*
X92010000Y-143826666D01*
X92243333Y-143126666D01*
X92876666Y-143760000D02*
X92843333Y-143793333D01*
X92743333Y-143826666D01*
X92676666Y-143826666D01*
X92576666Y-143793333D01*
X92510000Y-143726666D01*
X92476666Y-143660000D01*
X92443333Y-143526666D01*
X92443333Y-143426666D01*
X92476666Y-143293333D01*
X92510000Y-143226666D01*
X92576666Y-143160000D01*
X92676666Y-143126666D01*
X92743333Y-143126666D01*
X92843333Y-143160000D01*
X92876666Y-143193333D01*
X93576666Y-143760000D02*
X93543333Y-143793333D01*
X93443333Y-143826666D01*
X93376666Y-143826666D01*
X93276666Y-143793333D01*
X93210000Y-143726666D01*
X93176666Y-143660000D01*
X93143333Y-143526666D01*
X93143333Y-143426666D01*
X93176666Y-143293333D01*
X93210000Y-143226666D01*
X93276666Y-143160000D01*
X93376666Y-143126666D01*
X93443333Y-143126666D01*
X93543333Y-143160000D01*
X93576666Y-143193333D01*
X89653333Y-143826666D02*
X89653333Y-143126666D01*
X89820000Y-143126666D01*
X89920000Y-143160000D01*
X89986666Y-143226666D01*
X90020000Y-143293333D01*
X90053333Y-143426666D01*
X90053333Y-143526666D01*
X90020000Y-143660000D01*
X89986666Y-143726666D01*
X89920000Y-143793333D01*
X89820000Y-143826666D01*
X89653333Y-143826666D01*
X90486666Y-143126666D02*
X90553333Y-143126666D01*
X90620000Y-143160000D01*
X90653333Y-143193333D01*
X90686666Y-143260000D01*
X90720000Y-143393333D01*
X90720000Y-143560000D01*
X90686666Y-143693333D01*
X90653333Y-143760000D01*
X90620000Y-143793333D01*
X90553333Y-143826666D01*
X90486666Y-143826666D01*
X90420000Y-143793333D01*
X90386666Y-143760000D01*
X90353333Y-143693333D01*
X90320000Y-143560000D01*
X90320000Y-143393333D01*
X90353333Y-143260000D01*
X90386666Y-143193333D01*
X90420000Y-143160000D01*
X90486666Y-143126666D01*
X82235808Y-146366666D02*
X82235808Y-145666666D01*
X82402474Y-145666666D01*
X82502474Y-145700000D01*
X82569141Y-145766666D01*
X82602474Y-145833333D01*
X82635808Y-145966666D01*
X82635808Y-146066666D01*
X82602474Y-146200000D01*
X82569141Y-146266666D01*
X82502474Y-146333333D01*
X82402474Y-146366666D01*
X82235808Y-146366666D01*
X82935808Y-146366666D02*
X82935808Y-145666666D01*
X83635808Y-145700000D02*
X83569141Y-145666666D01*
X83469141Y-145666666D01*
X83369141Y-145700000D01*
X83302474Y-145766666D01*
X83269141Y-145833333D01*
X83235808Y-145966666D01*
X83235808Y-146066666D01*
X83269141Y-146200000D01*
X83302474Y-146266666D01*
X83369141Y-146333333D01*
X83469141Y-146366666D01*
X83535808Y-146366666D01*
X83635808Y-146333333D01*
X83669141Y-146300000D01*
X83669141Y-146066666D01*
X83535808Y-146066666D01*
X89236666Y-150746666D02*
X89470000Y-151446666D01*
X89703333Y-150746666D01*
X90336666Y-151380000D02*
X90303333Y-151413333D01*
X90203333Y-151446666D01*
X90136666Y-151446666D01*
X90036666Y-151413333D01*
X89970000Y-151346666D01*
X89936666Y-151280000D01*
X89903333Y-151146666D01*
X89903333Y-151046666D01*
X89936666Y-150913333D01*
X89970000Y-150846666D01*
X90036666Y-150780000D01*
X90136666Y-150746666D01*
X90203333Y-150746666D01*
X90303333Y-150780000D01*
X90336666Y-150813333D01*
X91036666Y-151380000D02*
X91003333Y-151413333D01*
X90903333Y-151446666D01*
X90836666Y-151446666D01*
X90736666Y-151413333D01*
X90670000Y-151346666D01*
X90636666Y-151280000D01*
X90603333Y-151146666D01*
X90603333Y-151046666D01*
X90636666Y-150913333D01*
X90670000Y-150846666D01*
X90736666Y-150780000D01*
X90836666Y-150746666D01*
X90903333Y-150746666D01*
X91003333Y-150780000D01*
X91036666Y-150813333D01*
D10*
X99060000Y-128270000D02*
X81280000Y-128270000D01*
X81280000Y-128270000D02*
X81280000Y-152400000D01*
D11*
X87096666Y-143160000D02*
X87030000Y-143126666D01*
X86930000Y-143126666D01*
X86830000Y-143160000D01*
X86763333Y-143226666D01*
X86730000Y-143293333D01*
X86696666Y-143426666D01*
X86696666Y-143526666D01*
X86730000Y-143660000D01*
X86763333Y-143726666D01*
X86830000Y-143793333D01*
X86930000Y-143826666D01*
X86996666Y-143826666D01*
X87096666Y-143793333D01*
X87130000Y-143760000D01*
X87130000Y-143526666D01*
X86996666Y-143526666D01*
X87430000Y-143826666D02*
X87430000Y-143126666D01*
X87830000Y-143826666D01*
X87830000Y-143126666D01*
X88163333Y-143826666D02*
X88163333Y-143126666D01*
X88330000Y-143126666D01*
X88430000Y-143160000D01*
X88496666Y-143226666D01*
X88530000Y-143293333D01*
X88563333Y-143426666D01*
X88563333Y-143526666D01*
X88530000Y-143660000D01*
X88496666Y-143726666D01*
X88430000Y-143793333D01*
X88330000Y-143826666D01*
X88163333Y-143826666D01*
X109556666Y-118996666D02*
X109790000Y-119696666D01*
X110023333Y-118996666D01*
X110656666Y-119630000D02*
X110623333Y-119663333D01*
X110523333Y-119696666D01*
X110456666Y-119696666D01*
X110356666Y-119663333D01*
X110290000Y-119596666D01*
X110256666Y-119530000D01*
X110223333Y-119396666D01*
X110223333Y-119296666D01*
X110256666Y-119163333D01*
X110290000Y-119096666D01*
X110356666Y-119030000D01*
X110456666Y-118996666D01*
X110523333Y-118996666D01*
X110623333Y-119030000D01*
X110656666Y-119063333D01*
X111356666Y-119630000D02*
X111323333Y-119663333D01*
X111223333Y-119696666D01*
X111156666Y-119696666D01*
X111056666Y-119663333D01*
X110990000Y-119596666D01*
X110956666Y-119530000D01*
X110923333Y-119396666D01*
X110923333Y-119296666D01*
X110956666Y-119163333D01*
X110990000Y-119096666D01*
X111056666Y-119030000D01*
X111156666Y-118996666D01*
X111223333Y-118996666D01*
X111323333Y-119030000D01*
X111356666Y-119063333D01*
X107433333Y-119696666D02*
X107433333Y-118996666D01*
X107600000Y-118996666D01*
X107700000Y-119030000D01*
X107766666Y-119096666D01*
X107800000Y-119163333D01*
X107833333Y-119296666D01*
X107833333Y-119396666D01*
X107800000Y-119530000D01*
X107766666Y-119596666D01*
X107700000Y-119663333D01*
X107600000Y-119696666D01*
X107433333Y-119696666D01*
X108266666Y-118996666D02*
X108333333Y-118996666D01*
X108400000Y-119030000D01*
X108433333Y-119063333D01*
X108466666Y-119130000D01*
X108500000Y-119263333D01*
X108500000Y-119430000D01*
X108466666Y-119563333D01*
X108433333Y-119630000D01*
X108400000Y-119663333D01*
X108333333Y-119696666D01*
X108266666Y-119696666D01*
X108200000Y-119663333D01*
X108166666Y-119630000D01*
X108133333Y-119563333D01*
X108100000Y-119430000D01*
X108100000Y-119263333D01*
X108133333Y-119130000D01*
X108166666Y-119063333D01*
X108200000Y-119030000D01*
X108266666Y-118996666D01*
X109973333Y-127316666D02*
X109973333Y-126616666D01*
X110140000Y-126616666D01*
X110240000Y-126650000D01*
X110306666Y-126716666D01*
X110340000Y-126783333D01*
X110373333Y-126916666D01*
X110373333Y-127016666D01*
X110340000Y-127150000D01*
X110306666Y-127216666D01*
X110240000Y-127283333D01*
X110140000Y-127316666D01*
X109973333Y-127316666D01*
X110806666Y-126616666D02*
X110873333Y-126616666D01*
X110940000Y-126650000D01*
X110973333Y-126683333D01*
X111006666Y-126750000D01*
X111040000Y-126883333D01*
X111040000Y-127050000D01*
X111006666Y-127183333D01*
X110973333Y-127250000D01*
X110940000Y-127283333D01*
X110873333Y-127316666D01*
X110806666Y-127316666D01*
X110740000Y-127283333D01*
X110706666Y-127250000D01*
X110673333Y-127183333D01*
X110640000Y-127050000D01*
X110640000Y-126883333D01*
X110673333Y-126750000D01*
X110706666Y-126683333D01*
X110740000Y-126650000D01*
X110806666Y-126616666D01*
D10*
X99060000Y-128270000D02*
X116840000Y-128270000D01*
X99060000Y-104140000D02*
X99060000Y-128270000D01*
D11*
X104876666Y-126650000D02*
X104810000Y-126616666D01*
X104710000Y-126616666D01*
X104610000Y-126650000D01*
X104543333Y-126716666D01*
X104510000Y-126783333D01*
X104476666Y-126916666D01*
X104476666Y-127016666D01*
X104510000Y-127150000D01*
X104543333Y-127216666D01*
X104610000Y-127283333D01*
X104710000Y-127316666D01*
X104776666Y-127316666D01*
X104876666Y-127283333D01*
X104910000Y-127250000D01*
X104910000Y-127016666D01*
X104776666Y-127016666D01*
X105210000Y-127316666D02*
X105210000Y-126616666D01*
X105610000Y-127316666D01*
X105610000Y-126616666D01*
X105943333Y-127316666D02*
X105943333Y-126616666D01*
X106110000Y-126616666D01*
X106210000Y-126650000D01*
X106276666Y-126716666D01*
X106310000Y-126783333D01*
X106343333Y-126916666D01*
X106343333Y-127016666D01*
X106310000Y-127150000D01*
X106276666Y-127216666D01*
X106210000Y-127283333D01*
X106110000Y-127316666D01*
X105943333Y-127316666D01*
D10*
X116840000Y-128270000D02*
X116840000Y-104140000D01*
D11*
X107016666Y-126616666D02*
X107250000Y-127316666D01*
X107483333Y-126616666D01*
X108116666Y-127250000D02*
X108083333Y-127283333D01*
X107983333Y-127316666D01*
X107916666Y-127316666D01*
X107816666Y-127283333D01*
X107750000Y-127216666D01*
X107716666Y-127150000D01*
X107683333Y-127016666D01*
X107683333Y-126916666D01*
X107716666Y-126783333D01*
X107750000Y-126716666D01*
X107816666Y-126650000D01*
X107916666Y-126616666D01*
X107983333Y-126616666D01*
X108083333Y-126650000D01*
X108116666Y-126683333D01*
X108816666Y-127250000D02*
X108783333Y-127283333D01*
X108683333Y-127316666D01*
X108616666Y-127316666D01*
X108516666Y-127283333D01*
X108450000Y-127216666D01*
X108416666Y-127150000D01*
X108383333Y-127016666D01*
X108383333Y-126916666D01*
X108416666Y-126783333D01*
X108450000Y-126716666D01*
X108516666Y-126650000D01*
X108616666Y-126616666D01*
X108683333Y-126616666D01*
X108783333Y-126650000D01*
X108816666Y-126683333D01*
X100066666Y-124749663D02*
X100166666Y-124782996D01*
X100333333Y-124782996D01*
X100400000Y-124749663D01*
X100433333Y-124716330D01*
X100466666Y-124649663D01*
X100466666Y-124582996D01*
X100433333Y-124516330D01*
X100400000Y-124482996D01*
X100333333Y-124449663D01*
X100200000Y-124416330D01*
X100133333Y-124382996D01*
X100100000Y-124349663D01*
X100066666Y-124282996D01*
X100066666Y-124216330D01*
X100100000Y-124149663D01*
X100133333Y-124116330D01*
X100200000Y-124082996D01*
X100366666Y-124082996D01*
X100466666Y-124116330D01*
X100766666Y-124416330D02*
X101000000Y-124416330D01*
X101100000Y-124782996D02*
X100766666Y-124782996D01*
X100766666Y-124082996D01*
X101100000Y-124082996D01*
X101800000Y-124782996D02*
X101566666Y-124449663D01*
X101400000Y-124782996D02*
X101400000Y-124082996D01*
X101666666Y-124082996D01*
X101733333Y-124116330D01*
X101766666Y-124149663D01*
X101800000Y-124216330D01*
X101800000Y-124316330D01*
X101766666Y-124382996D01*
X101733333Y-124416330D01*
X101666666Y-124449663D01*
X101400000Y-124449663D01*
X102000000Y-124082996D02*
X102233333Y-124782996D01*
X102466666Y-124082996D01*
X102833333Y-124082996D02*
X102966666Y-124082996D01*
X103033333Y-124116330D01*
X103100000Y-124182996D01*
X103133333Y-124316330D01*
X103133333Y-124549663D01*
X103100000Y-124682996D01*
X103033333Y-124749663D01*
X102966666Y-124782996D01*
X102833333Y-124782996D01*
X102766666Y-124749663D01*
X102700000Y-124682996D01*
X102666666Y-124549663D01*
X102666666Y-124316330D01*
X102700000Y-124182996D01*
X102766666Y-124116330D01*
X102833333Y-124082996D01*
X100015808Y-122236666D02*
X100015808Y-121536666D01*
X100182474Y-121536666D01*
X100282474Y-121570000D01*
X100349141Y-121636666D01*
X100382474Y-121703333D01*
X100415808Y-121836666D01*
X100415808Y-121936666D01*
X100382474Y-122070000D01*
X100349141Y-122136666D01*
X100282474Y-122203333D01*
X100182474Y-122236666D01*
X100015808Y-122236666D01*
X100715808Y-122236666D02*
X100715808Y-121536666D01*
X101415808Y-121570000D02*
X101349141Y-121536666D01*
X101249141Y-121536666D01*
X101149141Y-121570000D01*
X101082474Y-121636666D01*
X101049141Y-121703333D01*
X101015808Y-121836666D01*
X101015808Y-121936666D01*
X101049141Y-122070000D01*
X101082474Y-122136666D01*
X101149141Y-122203333D01*
X101249141Y-122236666D01*
X101315808Y-122236666D01*
X101415808Y-122203333D01*
X101449141Y-122170000D01*
X101449141Y-121936666D01*
X101315808Y-121936666D01*
D10*
X116840000Y-104140000D02*
X99060000Y-104140000D01*
D11*
X104876666Y-119030000D02*
X104810000Y-118996666D01*
X104710000Y-118996666D01*
X104610000Y-119030000D01*
X104543333Y-119096666D01*
X104510000Y-119163333D01*
X104476666Y-119296666D01*
X104476666Y-119396666D01*
X104510000Y-119530000D01*
X104543333Y-119596666D01*
X104610000Y-119663333D01*
X104710000Y-119696666D01*
X104776666Y-119696666D01*
X104876666Y-119663333D01*
X104910000Y-119630000D01*
X104910000Y-119396666D01*
X104776666Y-119396666D01*
X105210000Y-119696666D02*
X105210000Y-118996666D01*
X105610000Y-119696666D01*
X105610000Y-118996666D01*
X105943333Y-119696666D02*
X105943333Y-118996666D01*
X106110000Y-118996666D01*
X106210000Y-119030000D01*
X106276666Y-119096666D01*
X106310000Y-119163333D01*
X106343333Y-119296666D01*
X106343333Y-119396666D01*
X106310000Y-119530000D01*
X106276666Y-119596666D01*
X106210000Y-119663333D01*
X106110000Y-119696666D01*
X105943333Y-119696666D01*
D10*
X99060000Y-104140000D02*
X81280000Y-104140000D01*
D11*
X89236666Y-126616666D02*
X89470000Y-127316666D01*
X89703333Y-126616666D01*
X90336666Y-127250000D02*
X90303333Y-127283333D01*
X90203333Y-127316666D01*
X90136666Y-127316666D01*
X90036666Y-127283333D01*
X89970000Y-127216666D01*
X89936666Y-127150000D01*
X89903333Y-127016666D01*
X89903333Y-126916666D01*
X89936666Y-126783333D01*
X89970000Y-126716666D01*
X90036666Y-126650000D01*
X90136666Y-126616666D01*
X90203333Y-126616666D01*
X90303333Y-126650000D01*
X90336666Y-126683333D01*
X91036666Y-127250000D02*
X91003333Y-127283333D01*
X90903333Y-127316666D01*
X90836666Y-127316666D01*
X90736666Y-127283333D01*
X90670000Y-127216666D01*
X90636666Y-127150000D01*
X90603333Y-127016666D01*
X90603333Y-126916666D01*
X90636666Y-126783333D01*
X90670000Y-126716666D01*
X90736666Y-126650000D01*
X90836666Y-126616666D01*
X90903333Y-126616666D01*
X91003333Y-126650000D01*
X91036666Y-126683333D01*
X82286666Y-124749663D02*
X82386666Y-124782996D01*
X82553333Y-124782996D01*
X82620000Y-124749663D01*
X82653333Y-124716330D01*
X82686666Y-124649663D01*
X82686666Y-124582996D01*
X82653333Y-124516330D01*
X82620000Y-124482996D01*
X82553333Y-124449663D01*
X82420000Y-124416330D01*
X82353333Y-124382996D01*
X82320000Y-124349663D01*
X82286666Y-124282996D01*
X82286666Y-124216330D01*
X82320000Y-124149663D01*
X82353333Y-124116330D01*
X82420000Y-124082996D01*
X82586666Y-124082996D01*
X82686666Y-124116330D01*
X82986666Y-124416330D02*
X83220000Y-124416330D01*
X83320000Y-124782996D02*
X82986666Y-124782996D01*
X82986666Y-124082996D01*
X83320000Y-124082996D01*
X84020000Y-124782996D02*
X83786666Y-124449663D01*
X83620000Y-124782996D02*
X83620000Y-124082996D01*
X83886666Y-124082996D01*
X83953333Y-124116330D01*
X83986666Y-124149663D01*
X84020000Y-124216330D01*
X84020000Y-124316330D01*
X83986666Y-124382996D01*
X83953333Y-124416330D01*
X83886666Y-124449663D01*
X83620000Y-124449663D01*
X84220000Y-124082996D02*
X84453333Y-124782996D01*
X84686666Y-124082996D01*
X85053333Y-124082996D02*
X85186666Y-124082996D01*
X85253333Y-124116330D01*
X85320000Y-124182996D01*
X85353333Y-124316330D01*
X85353333Y-124549663D01*
X85320000Y-124682996D01*
X85253333Y-124749663D01*
X85186666Y-124782996D01*
X85053333Y-124782996D01*
X84986666Y-124749663D01*
X84920000Y-124682996D01*
X84886666Y-124549663D01*
X84886666Y-124316330D01*
X84920000Y-124182996D01*
X84986666Y-124116330D01*
X85053333Y-124082996D01*
X91776666Y-118996666D02*
X92010000Y-119696666D01*
X92243333Y-118996666D01*
X92876666Y-119630000D02*
X92843333Y-119663333D01*
X92743333Y-119696666D01*
X92676666Y-119696666D01*
X92576666Y-119663333D01*
X92510000Y-119596666D01*
X92476666Y-119530000D01*
X92443333Y-119396666D01*
X92443333Y-119296666D01*
X92476666Y-119163333D01*
X92510000Y-119096666D01*
X92576666Y-119030000D01*
X92676666Y-118996666D01*
X92743333Y-118996666D01*
X92843333Y-119030000D01*
X92876666Y-119063333D01*
X93576666Y-119630000D02*
X93543333Y-119663333D01*
X93443333Y-119696666D01*
X93376666Y-119696666D01*
X93276666Y-119663333D01*
X93210000Y-119596666D01*
X93176666Y-119530000D01*
X93143333Y-119396666D01*
X93143333Y-119296666D01*
X93176666Y-119163333D01*
X93210000Y-119096666D01*
X93276666Y-119030000D01*
X93376666Y-118996666D01*
X93443333Y-118996666D01*
X93543333Y-119030000D01*
X93576666Y-119063333D01*
X89653333Y-119696666D02*
X89653333Y-118996666D01*
X89820000Y-118996666D01*
X89920000Y-119030000D01*
X89986666Y-119096666D01*
X90020000Y-119163333D01*
X90053333Y-119296666D01*
X90053333Y-119396666D01*
X90020000Y-119530000D01*
X89986666Y-119596666D01*
X89920000Y-119663333D01*
X89820000Y-119696666D01*
X89653333Y-119696666D01*
X90486666Y-118996666D02*
X90553333Y-118996666D01*
X90620000Y-119030000D01*
X90653333Y-119063333D01*
X90686666Y-119130000D01*
X90720000Y-119263333D01*
X90720000Y-119430000D01*
X90686666Y-119563333D01*
X90653333Y-119630000D01*
X90620000Y-119663333D01*
X90553333Y-119696666D01*
X90486666Y-119696666D01*
X90420000Y-119663333D01*
X90386666Y-119630000D01*
X90353333Y-119563333D01*
X90320000Y-119430000D01*
X90320000Y-119263333D01*
X90353333Y-119130000D01*
X90386666Y-119063333D01*
X90420000Y-119030000D01*
X90486666Y-118996666D01*
D10*
X99060000Y-128270000D02*
X99060000Y-104140000D01*
D11*
X92193333Y-127316666D02*
X92193333Y-126616666D01*
X92360000Y-126616666D01*
X92460000Y-126650000D01*
X92526666Y-126716666D01*
X92560000Y-126783333D01*
X92593333Y-126916666D01*
X92593333Y-127016666D01*
X92560000Y-127150000D01*
X92526666Y-127216666D01*
X92460000Y-127283333D01*
X92360000Y-127316666D01*
X92193333Y-127316666D01*
X93026666Y-126616666D02*
X93093333Y-126616666D01*
X93160000Y-126650000D01*
X93193333Y-126683333D01*
X93226666Y-126750000D01*
X93260000Y-126883333D01*
X93260000Y-127050000D01*
X93226666Y-127183333D01*
X93193333Y-127250000D01*
X93160000Y-127283333D01*
X93093333Y-127316666D01*
X93026666Y-127316666D01*
X92960000Y-127283333D01*
X92926666Y-127250000D01*
X92893333Y-127183333D01*
X92860000Y-127050000D01*
X92860000Y-126883333D01*
X92893333Y-126750000D01*
X92926666Y-126683333D01*
X92960000Y-126650000D01*
X93026666Y-126616666D01*
D10*
X81280000Y-128270000D02*
X99060000Y-128270000D01*
X81280000Y-104140000D02*
X81280000Y-128270000D01*
D11*
X87096666Y-126650000D02*
X87030000Y-126616666D01*
X86930000Y-126616666D01*
X86830000Y-126650000D01*
X86763333Y-126716666D01*
X86730000Y-126783333D01*
X86696666Y-126916666D01*
X86696666Y-127016666D01*
X86730000Y-127150000D01*
X86763333Y-127216666D01*
X86830000Y-127283333D01*
X86930000Y-127316666D01*
X86996666Y-127316666D01*
X87096666Y-127283333D01*
X87130000Y-127250000D01*
X87130000Y-127016666D01*
X86996666Y-127016666D01*
X87430000Y-127316666D02*
X87430000Y-126616666D01*
X87830000Y-127316666D01*
X87830000Y-126616666D01*
X88163333Y-127316666D02*
X88163333Y-126616666D01*
X88330000Y-126616666D01*
X88430000Y-126650000D01*
X88496666Y-126716666D01*
X88530000Y-126783333D01*
X88563333Y-126916666D01*
X88563333Y-127016666D01*
X88530000Y-127150000D01*
X88496666Y-127216666D01*
X88430000Y-127283333D01*
X88330000Y-127316666D01*
X88163333Y-127316666D01*
X87096666Y-119030000D02*
X87030000Y-118996666D01*
X86930000Y-118996666D01*
X86830000Y-119030000D01*
X86763333Y-119096666D01*
X86730000Y-119163333D01*
X86696666Y-119296666D01*
X86696666Y-119396666D01*
X86730000Y-119530000D01*
X86763333Y-119596666D01*
X86830000Y-119663333D01*
X86930000Y-119696666D01*
X86996666Y-119696666D01*
X87096666Y-119663333D01*
X87130000Y-119630000D01*
X87130000Y-119396666D01*
X86996666Y-119396666D01*
X87430000Y-119696666D02*
X87430000Y-118996666D01*
X87830000Y-119696666D01*
X87830000Y-118996666D01*
X88163333Y-119696666D02*
X88163333Y-118996666D01*
X88330000Y-118996666D01*
X88430000Y-119030000D01*
X88496666Y-119096666D01*
X88530000Y-119163333D01*
X88563333Y-119296666D01*
X88563333Y-119396666D01*
X88530000Y-119530000D01*
X88496666Y-119596666D01*
X88430000Y-119663333D01*
X88330000Y-119696666D01*
X88163333Y-119696666D01*
X82235808Y-122236666D02*
X82235808Y-121536666D01*
X82402474Y-121536666D01*
X82502474Y-121570000D01*
X82569141Y-121636666D01*
X82602474Y-121703333D01*
X82635808Y-121836666D01*
X82635808Y-121936666D01*
X82602474Y-122070000D01*
X82569141Y-122136666D01*
X82502474Y-122203333D01*
X82402474Y-122236666D01*
X82235808Y-122236666D01*
X82935808Y-122236666D02*
X82935808Y-121536666D01*
X83635808Y-121570000D02*
X83569141Y-121536666D01*
X83469141Y-121536666D01*
X83369141Y-121570000D01*
X83302474Y-121636666D01*
X83269141Y-121703333D01*
X83235808Y-121836666D01*
X83235808Y-121936666D01*
X83269141Y-122070000D01*
X83302474Y-122136666D01*
X83369141Y-122203333D01*
X83469141Y-122236666D01*
X83535808Y-122236666D01*
X83635808Y-122203333D01*
X83669141Y-122170000D01*
X83669141Y-121936666D01*
X83535808Y-121936666D01*
D10*
X116840000Y-104140000D02*
X116840000Y-80010000D01*
D11*
X104876666Y-102520000D02*
X104810000Y-102486666D01*
X104710000Y-102486666D01*
X104610000Y-102520000D01*
X104543333Y-102586666D01*
X104510000Y-102653333D01*
X104476666Y-102786666D01*
X104476666Y-102886666D01*
X104510000Y-103020000D01*
X104543333Y-103086666D01*
X104610000Y-103153333D01*
X104710000Y-103186666D01*
X104776666Y-103186666D01*
X104876666Y-103153333D01*
X104910000Y-103120000D01*
X104910000Y-102886666D01*
X104776666Y-102886666D01*
X105210000Y-103186666D02*
X105210000Y-102486666D01*
X105610000Y-103186666D01*
X105610000Y-102486666D01*
X105943333Y-103186666D02*
X105943333Y-102486666D01*
X106110000Y-102486666D01*
X106210000Y-102520000D01*
X106276666Y-102586666D01*
X106310000Y-102653333D01*
X106343333Y-102786666D01*
X106343333Y-102886666D01*
X106310000Y-103020000D01*
X106276666Y-103086666D01*
X106210000Y-103153333D01*
X106110000Y-103186666D01*
X105943333Y-103186666D01*
D10*
X116840000Y-80010000D02*
X99060000Y-80010000D01*
X99060000Y-104140000D02*
X116840000Y-104140000D01*
D11*
X109556666Y-94866666D02*
X109790000Y-95566666D01*
X110023333Y-94866666D01*
X110656666Y-95500000D02*
X110623333Y-95533333D01*
X110523333Y-95566666D01*
X110456666Y-95566666D01*
X110356666Y-95533333D01*
X110290000Y-95466666D01*
X110256666Y-95400000D01*
X110223333Y-95266666D01*
X110223333Y-95166666D01*
X110256666Y-95033333D01*
X110290000Y-94966666D01*
X110356666Y-94900000D01*
X110456666Y-94866666D01*
X110523333Y-94866666D01*
X110623333Y-94900000D01*
X110656666Y-94933333D01*
X111356666Y-95500000D02*
X111323333Y-95533333D01*
X111223333Y-95566666D01*
X111156666Y-95566666D01*
X111056666Y-95533333D01*
X110990000Y-95466666D01*
X110956666Y-95400000D01*
X110923333Y-95266666D01*
X110923333Y-95166666D01*
X110956666Y-95033333D01*
X110990000Y-94966666D01*
X111056666Y-94900000D01*
X111156666Y-94866666D01*
X111223333Y-94866666D01*
X111323333Y-94900000D01*
X111356666Y-94933333D01*
X107016666Y-102486666D02*
X107250000Y-103186666D01*
X107483333Y-102486666D01*
X108116666Y-103120000D02*
X108083333Y-103153333D01*
X107983333Y-103186666D01*
X107916666Y-103186666D01*
X107816666Y-103153333D01*
X107750000Y-103086666D01*
X107716666Y-103020000D01*
X107683333Y-102886666D01*
X107683333Y-102786666D01*
X107716666Y-102653333D01*
X107750000Y-102586666D01*
X107816666Y-102520000D01*
X107916666Y-102486666D01*
X107983333Y-102486666D01*
X108083333Y-102520000D01*
X108116666Y-102553333D01*
X108816666Y-103120000D02*
X108783333Y-103153333D01*
X108683333Y-103186666D01*
X108616666Y-103186666D01*
X108516666Y-103153333D01*
X108450000Y-103086666D01*
X108416666Y-103020000D01*
X108383333Y-102886666D01*
X108383333Y-102786666D01*
X108416666Y-102653333D01*
X108450000Y-102586666D01*
X108516666Y-102520000D01*
X108616666Y-102486666D01*
X108683333Y-102486666D01*
X108783333Y-102520000D01*
X108816666Y-102553333D01*
X104876666Y-94900000D02*
X104810000Y-94866666D01*
X104710000Y-94866666D01*
X104610000Y-94900000D01*
X104543333Y-94966666D01*
X104510000Y-95033333D01*
X104476666Y-95166666D01*
X104476666Y-95266666D01*
X104510000Y-95400000D01*
X104543333Y-95466666D01*
X104610000Y-95533333D01*
X104710000Y-95566666D01*
X104776666Y-95566666D01*
X104876666Y-95533333D01*
X104910000Y-95500000D01*
X104910000Y-95266666D01*
X104776666Y-95266666D01*
X105210000Y-95566666D02*
X105210000Y-94866666D01*
X105610000Y-95566666D01*
X105610000Y-94866666D01*
X105943333Y-95566666D02*
X105943333Y-94866666D01*
X106110000Y-94866666D01*
X106210000Y-94900000D01*
X106276666Y-94966666D01*
X106310000Y-95033333D01*
X106343333Y-95166666D01*
X106343333Y-95266666D01*
X106310000Y-95400000D01*
X106276666Y-95466666D01*
X106210000Y-95533333D01*
X106110000Y-95566666D01*
X105943333Y-95566666D01*
D10*
X99060000Y-80010000D02*
X99060000Y-104140000D01*
D11*
X107433333Y-95566666D02*
X107433333Y-94866666D01*
X107600000Y-94866666D01*
X107700000Y-94900000D01*
X107766666Y-94966666D01*
X107800000Y-95033333D01*
X107833333Y-95166666D01*
X107833333Y-95266666D01*
X107800000Y-95400000D01*
X107766666Y-95466666D01*
X107700000Y-95533333D01*
X107600000Y-95566666D01*
X107433333Y-95566666D01*
X108266666Y-94866666D02*
X108333333Y-94866666D01*
X108400000Y-94900000D01*
X108433333Y-94933333D01*
X108466666Y-95000000D01*
X108500000Y-95133333D01*
X108500000Y-95300000D01*
X108466666Y-95433333D01*
X108433333Y-95500000D01*
X108400000Y-95533333D01*
X108333333Y-95566666D01*
X108266666Y-95566666D01*
X108200000Y-95533333D01*
X108166666Y-95500000D01*
X108133333Y-95433333D01*
X108100000Y-95300000D01*
X108100000Y-95133333D01*
X108133333Y-95000000D01*
X108166666Y-94933333D01*
X108200000Y-94900000D01*
X108266666Y-94866666D01*
X100015808Y-98106666D02*
X100015808Y-97406666D01*
X100182474Y-97406666D01*
X100282474Y-97440000D01*
X100349141Y-97506666D01*
X100382474Y-97573333D01*
X100415808Y-97706666D01*
X100415808Y-97806666D01*
X100382474Y-97940000D01*
X100349141Y-98006666D01*
X100282474Y-98073333D01*
X100182474Y-98106666D01*
X100015808Y-98106666D01*
X100715808Y-98106666D02*
X100715808Y-97406666D01*
X101415808Y-97440000D02*
X101349141Y-97406666D01*
X101249141Y-97406666D01*
X101149141Y-97440000D01*
X101082474Y-97506666D01*
X101049141Y-97573333D01*
X101015808Y-97706666D01*
X101015808Y-97806666D01*
X101049141Y-97940000D01*
X101082474Y-98006666D01*
X101149141Y-98073333D01*
X101249141Y-98106666D01*
X101315808Y-98106666D01*
X101415808Y-98073333D01*
X101449141Y-98040000D01*
X101449141Y-97806666D01*
X101315808Y-97806666D01*
X109973333Y-103186666D02*
X109973333Y-102486666D01*
X110140000Y-102486666D01*
X110240000Y-102520000D01*
X110306666Y-102586666D01*
X110340000Y-102653333D01*
X110373333Y-102786666D01*
X110373333Y-102886666D01*
X110340000Y-103020000D01*
X110306666Y-103086666D01*
X110240000Y-103153333D01*
X110140000Y-103186666D01*
X109973333Y-103186666D01*
X110806666Y-102486666D02*
X110873333Y-102486666D01*
X110940000Y-102520000D01*
X110973333Y-102553333D01*
X111006666Y-102620000D01*
X111040000Y-102753333D01*
X111040000Y-102920000D01*
X111006666Y-103053333D01*
X110973333Y-103120000D01*
X110940000Y-103153333D01*
X110873333Y-103186666D01*
X110806666Y-103186666D01*
X110740000Y-103153333D01*
X110706666Y-103120000D01*
X110673333Y-103053333D01*
X110640000Y-102920000D01*
X110640000Y-102753333D01*
X110673333Y-102620000D01*
X110706666Y-102553333D01*
X110740000Y-102520000D01*
X110806666Y-102486666D01*
X100066666Y-100619663D02*
X100166666Y-100652996D01*
X100333333Y-100652996D01*
X100400000Y-100619663D01*
X100433333Y-100586330D01*
X100466666Y-100519663D01*
X100466666Y-100452996D01*
X100433333Y-100386330D01*
X100400000Y-100352996D01*
X100333333Y-100319663D01*
X100200000Y-100286330D01*
X100133333Y-100252996D01*
X100100000Y-100219663D01*
X100066666Y-100152996D01*
X100066666Y-100086330D01*
X100100000Y-100019663D01*
X100133333Y-99986330D01*
X100200000Y-99952996D01*
X100366666Y-99952996D01*
X100466666Y-99986330D01*
X100766666Y-100286330D02*
X101000000Y-100286330D01*
X101100000Y-100652996D02*
X100766666Y-100652996D01*
X100766666Y-99952996D01*
X101100000Y-99952996D01*
X101800000Y-100652996D02*
X101566666Y-100319663D01*
X101400000Y-100652996D02*
X101400000Y-99952996D01*
X101666666Y-99952996D01*
X101733333Y-99986330D01*
X101766666Y-100019663D01*
X101800000Y-100086330D01*
X101800000Y-100186330D01*
X101766666Y-100252996D01*
X101733333Y-100286330D01*
X101666666Y-100319663D01*
X101400000Y-100319663D01*
X102000000Y-99952996D02*
X102233333Y-100652996D01*
X102466666Y-99952996D01*
X102833333Y-99952996D02*
X102966666Y-99952996D01*
X103033333Y-99986330D01*
X103100000Y-100052996D01*
X103133333Y-100186330D01*
X103133333Y-100419663D01*
X103100000Y-100552996D01*
X103033333Y-100619663D01*
X102966666Y-100652996D01*
X102833333Y-100652996D01*
X102766666Y-100619663D01*
X102700000Y-100552996D01*
X102666666Y-100419663D01*
X102666666Y-100186330D01*
X102700000Y-100052996D01*
X102766666Y-99986330D01*
X102833333Y-99952996D01*
D10*
X116840000Y-80010000D02*
X116840000Y-55880000D01*
D11*
X107016666Y-78356666D02*
X107250000Y-79056666D01*
X107483333Y-78356666D01*
X108116666Y-78990000D02*
X108083333Y-79023333D01*
X107983333Y-79056666D01*
X107916666Y-79056666D01*
X107816666Y-79023333D01*
X107750000Y-78956666D01*
X107716666Y-78890000D01*
X107683333Y-78756666D01*
X107683333Y-78656666D01*
X107716666Y-78523333D01*
X107750000Y-78456666D01*
X107816666Y-78390000D01*
X107916666Y-78356666D01*
X107983333Y-78356666D01*
X108083333Y-78390000D01*
X108116666Y-78423333D01*
X108816666Y-78990000D02*
X108783333Y-79023333D01*
X108683333Y-79056666D01*
X108616666Y-79056666D01*
X108516666Y-79023333D01*
X108450000Y-78956666D01*
X108416666Y-78890000D01*
X108383333Y-78756666D01*
X108383333Y-78656666D01*
X108416666Y-78523333D01*
X108450000Y-78456666D01*
X108516666Y-78390000D01*
X108616666Y-78356666D01*
X108683333Y-78356666D01*
X108783333Y-78390000D01*
X108816666Y-78423333D01*
D10*
X116840000Y-55880000D02*
X99060000Y-55880000D01*
D11*
X109556666Y-70736666D02*
X109790000Y-71436666D01*
X110023333Y-70736666D01*
X110656666Y-71370000D02*
X110623333Y-71403333D01*
X110523333Y-71436666D01*
X110456666Y-71436666D01*
X110356666Y-71403333D01*
X110290000Y-71336666D01*
X110256666Y-71270000D01*
X110223333Y-71136666D01*
X110223333Y-71036666D01*
X110256666Y-70903333D01*
X110290000Y-70836666D01*
X110356666Y-70770000D01*
X110456666Y-70736666D01*
X110523333Y-70736666D01*
X110623333Y-70770000D01*
X110656666Y-70803333D01*
X111356666Y-71370000D02*
X111323333Y-71403333D01*
X111223333Y-71436666D01*
X111156666Y-71436666D01*
X111056666Y-71403333D01*
X110990000Y-71336666D01*
X110956666Y-71270000D01*
X110923333Y-71136666D01*
X110923333Y-71036666D01*
X110956666Y-70903333D01*
X110990000Y-70836666D01*
X111056666Y-70770000D01*
X111156666Y-70736666D01*
X111223333Y-70736666D01*
X111323333Y-70770000D01*
X111356666Y-70803333D01*
D10*
X99060000Y-55880000D02*
X99060000Y-80010000D01*
D11*
X100015808Y-73976666D02*
X100015808Y-73276666D01*
X100182474Y-73276666D01*
X100282474Y-73310000D01*
X100349141Y-73376666D01*
X100382474Y-73443333D01*
X100415808Y-73576666D01*
X100415808Y-73676666D01*
X100382474Y-73810000D01*
X100349141Y-73876666D01*
X100282474Y-73943333D01*
X100182474Y-73976666D01*
X100015808Y-73976666D01*
X100715808Y-73976666D02*
X100715808Y-73276666D01*
X101415808Y-73310000D02*
X101349141Y-73276666D01*
X101249141Y-73276666D01*
X101149141Y-73310000D01*
X101082474Y-73376666D01*
X101049141Y-73443333D01*
X101015808Y-73576666D01*
X101015808Y-73676666D01*
X101049141Y-73810000D01*
X101082474Y-73876666D01*
X101149141Y-73943333D01*
X101249141Y-73976666D01*
X101315808Y-73976666D01*
X101415808Y-73943333D01*
X101449141Y-73910000D01*
X101449141Y-73676666D01*
X101315808Y-73676666D01*
D10*
X99060000Y-80010000D02*
X116840000Y-80010000D01*
D11*
X100066666Y-76489663D02*
X100166666Y-76522996D01*
X100333333Y-76522996D01*
X100400000Y-76489663D01*
X100433333Y-76456330D01*
X100466666Y-76389663D01*
X100466666Y-76322996D01*
X100433333Y-76256330D01*
X100400000Y-76222996D01*
X100333333Y-76189663D01*
X100200000Y-76156330D01*
X100133333Y-76122996D01*
X100100000Y-76089663D01*
X100066666Y-76022996D01*
X100066666Y-75956330D01*
X100100000Y-75889663D01*
X100133333Y-75856330D01*
X100200000Y-75822996D01*
X100366666Y-75822996D01*
X100466666Y-75856330D01*
X100766666Y-76156330D02*
X101000000Y-76156330D01*
X101100000Y-76522996D02*
X100766666Y-76522996D01*
X100766666Y-75822996D01*
X101100000Y-75822996D01*
X101800000Y-76522996D02*
X101566666Y-76189663D01*
X101400000Y-76522996D02*
X101400000Y-75822996D01*
X101666666Y-75822996D01*
X101733333Y-75856330D01*
X101766666Y-75889663D01*
X101800000Y-75956330D01*
X101800000Y-76056330D01*
X101766666Y-76122996D01*
X101733333Y-76156330D01*
X101666666Y-76189663D01*
X101400000Y-76189663D01*
X102000000Y-75822996D02*
X102233333Y-76522996D01*
X102466666Y-75822996D01*
X102833333Y-75822996D02*
X102966666Y-75822996D01*
X103033333Y-75856330D01*
X103100000Y-75922996D01*
X103133333Y-76056330D01*
X103133333Y-76289663D01*
X103100000Y-76422996D01*
X103033333Y-76489663D01*
X102966666Y-76522996D01*
X102833333Y-76522996D01*
X102766666Y-76489663D01*
X102700000Y-76422996D01*
X102666666Y-76289663D01*
X102666666Y-76056330D01*
X102700000Y-75922996D01*
X102766666Y-75856330D01*
X102833333Y-75822996D01*
X109973333Y-79056666D02*
X109973333Y-78356666D01*
X110140000Y-78356666D01*
X110240000Y-78390000D01*
X110306666Y-78456666D01*
X110340000Y-78523333D01*
X110373333Y-78656666D01*
X110373333Y-78756666D01*
X110340000Y-78890000D01*
X110306666Y-78956666D01*
X110240000Y-79023333D01*
X110140000Y-79056666D01*
X109973333Y-79056666D01*
X110806666Y-78356666D02*
X110873333Y-78356666D01*
X110940000Y-78390000D01*
X110973333Y-78423333D01*
X111006666Y-78490000D01*
X111040000Y-78623333D01*
X111040000Y-78790000D01*
X111006666Y-78923333D01*
X110973333Y-78990000D01*
X110940000Y-79023333D01*
X110873333Y-79056666D01*
X110806666Y-79056666D01*
X110740000Y-79023333D01*
X110706666Y-78990000D01*
X110673333Y-78923333D01*
X110640000Y-78790000D01*
X110640000Y-78623333D01*
X110673333Y-78490000D01*
X110706666Y-78423333D01*
X110740000Y-78390000D01*
X110806666Y-78356666D01*
X104876666Y-78390000D02*
X104810000Y-78356666D01*
X104710000Y-78356666D01*
X104610000Y-78390000D01*
X104543333Y-78456666D01*
X104510000Y-78523333D01*
X104476666Y-78656666D01*
X104476666Y-78756666D01*
X104510000Y-78890000D01*
X104543333Y-78956666D01*
X104610000Y-79023333D01*
X104710000Y-79056666D01*
X104776666Y-79056666D01*
X104876666Y-79023333D01*
X104910000Y-78990000D01*
X104910000Y-78756666D01*
X104776666Y-78756666D01*
X105210000Y-79056666D02*
X105210000Y-78356666D01*
X105610000Y-79056666D01*
X105610000Y-78356666D01*
X105943333Y-79056666D02*
X105943333Y-78356666D01*
X106110000Y-78356666D01*
X106210000Y-78390000D01*
X106276666Y-78456666D01*
X106310000Y-78523333D01*
X106343333Y-78656666D01*
X106343333Y-78756666D01*
X106310000Y-78890000D01*
X106276666Y-78956666D01*
X106210000Y-79023333D01*
X106110000Y-79056666D01*
X105943333Y-79056666D01*
X104876666Y-70770000D02*
X104810000Y-70736666D01*
X104710000Y-70736666D01*
X104610000Y-70770000D01*
X104543333Y-70836666D01*
X104510000Y-70903333D01*
X104476666Y-71036666D01*
X104476666Y-71136666D01*
X104510000Y-71270000D01*
X104543333Y-71336666D01*
X104610000Y-71403333D01*
X104710000Y-71436666D01*
X104776666Y-71436666D01*
X104876666Y-71403333D01*
X104910000Y-71370000D01*
X104910000Y-71136666D01*
X104776666Y-71136666D01*
X105210000Y-71436666D02*
X105210000Y-70736666D01*
X105610000Y-71436666D01*
X105610000Y-70736666D01*
X105943333Y-71436666D02*
X105943333Y-70736666D01*
X106110000Y-70736666D01*
X106210000Y-70770000D01*
X106276666Y-70836666D01*
X106310000Y-70903333D01*
X106343333Y-71036666D01*
X106343333Y-71136666D01*
X106310000Y-71270000D01*
X106276666Y-71336666D01*
X106210000Y-71403333D01*
X106110000Y-71436666D01*
X105943333Y-71436666D01*
X107433333Y-71436666D02*
X107433333Y-70736666D01*
X107600000Y-70736666D01*
X107700000Y-70770000D01*
X107766666Y-70836666D01*
X107800000Y-70903333D01*
X107833333Y-71036666D01*
X107833333Y-71136666D01*
X107800000Y-71270000D01*
X107766666Y-71336666D01*
X107700000Y-71403333D01*
X107600000Y-71436666D01*
X107433333Y-71436666D01*
X108266666Y-70736666D02*
X108333333Y-70736666D01*
X108400000Y-70770000D01*
X108433333Y-70803333D01*
X108466666Y-70870000D01*
X108500000Y-71003333D01*
X108500000Y-71170000D01*
X108466666Y-71303333D01*
X108433333Y-71370000D01*
X108400000Y-71403333D01*
X108333333Y-71436666D01*
X108266666Y-71436666D01*
X108200000Y-71403333D01*
X108166666Y-71370000D01*
X108133333Y-71303333D01*
X108100000Y-71170000D01*
X108100000Y-71003333D01*
X108133333Y-70870000D01*
X108166666Y-70803333D01*
X108200000Y-70770000D01*
X108266666Y-70736666D01*
D10*
X99060000Y-80010000D02*
X99060000Y-104140000D01*
D11*
X82152474Y-98106666D02*
X81919141Y-97773333D01*
X81752474Y-98106666D02*
X81752474Y-97406666D01*
X82019141Y-97406666D01*
X82085808Y-97440000D01*
X82119141Y-97473333D01*
X82152474Y-97540000D01*
X82152474Y-97640000D01*
X82119141Y-97706666D01*
X82085808Y-97740000D01*
X82019141Y-97773333D01*
X81752474Y-97773333D01*
X82585808Y-97406666D02*
X82719141Y-97406666D01*
X82785808Y-97440000D01*
X82852474Y-97506666D01*
X82885808Y-97640000D01*
X82885808Y-97873333D01*
X82852474Y-98006666D01*
X82785808Y-98073333D01*
X82719141Y-98106666D01*
X82585808Y-98106666D01*
X82519141Y-98073333D01*
X82452474Y-98006666D01*
X82419141Y-97873333D01*
X82419141Y-97640000D01*
X82452474Y-97506666D01*
X82519141Y-97440000D01*
X82585808Y-97406666D01*
X83385808Y-97406666D02*
X83385808Y-97906666D01*
X83352474Y-98006666D01*
X83285808Y-98073333D01*
X83185808Y-98106666D01*
X83119141Y-98106666D01*
X83852474Y-97406666D02*
X83985808Y-97406666D01*
X84052474Y-97440000D01*
X84119141Y-97506666D01*
X84152474Y-97640000D01*
X84152474Y-97873333D01*
X84119141Y-98006666D01*
X84052474Y-98073333D01*
X83985808Y-98106666D01*
X83852474Y-98106666D01*
X83785808Y-98073333D01*
X83719141Y-98006666D01*
X83685808Y-97873333D01*
X83685808Y-97640000D01*
X83719141Y-97506666D01*
X83785808Y-97440000D01*
X83852474Y-97406666D01*
X85843333Y-95566666D02*
X85843333Y-94866666D01*
X86010000Y-94866666D01*
X86110000Y-94900000D01*
X86176666Y-94966666D01*
X86210000Y-95033333D01*
X86243333Y-95166666D01*
X86243333Y-95266666D01*
X86210000Y-95400000D01*
X86176666Y-95466666D01*
X86110000Y-95533333D01*
X86010000Y-95566666D01*
X85843333Y-95566666D01*
X86676666Y-94866666D02*
X86743333Y-94866666D01*
X86810000Y-94900000D01*
X86843333Y-94933333D01*
X86876666Y-95000000D01*
X86910000Y-95133333D01*
X86910000Y-95300000D01*
X86876666Y-95433333D01*
X86843333Y-95500000D01*
X86810000Y-95533333D01*
X86743333Y-95566666D01*
X86676666Y-95566666D01*
X86610000Y-95533333D01*
X86576666Y-95500000D01*
X86543333Y-95433333D01*
X86510000Y-95300000D01*
X86510000Y-95133333D01*
X86543333Y-95000000D01*
X86576666Y-94933333D01*
X86610000Y-94900000D01*
X86676666Y-94866666D01*
X81785808Y-100452996D02*
X82119141Y-100452996D01*
X81719141Y-100652996D02*
X81952474Y-99952996D01*
X82185808Y-100652996D01*
X82352474Y-99952996D02*
X82819141Y-99952996D01*
X82352474Y-100652996D01*
X82819141Y-100652996D01*
X83085808Y-99952996D02*
X83085808Y-100519663D01*
X83119141Y-100586330D01*
X83152474Y-100619663D01*
X83219141Y-100652996D01*
X83352474Y-100652996D01*
X83419141Y-100619663D01*
X83452474Y-100586330D01*
X83485808Y-100519663D01*
X83485808Y-99952996D01*
X84152474Y-100652996D02*
X83819141Y-100652996D01*
X83819141Y-99952996D01*
X90906666Y-94900000D02*
X90840000Y-94866666D01*
X90740000Y-94866666D01*
X90640000Y-94900000D01*
X90573333Y-94966666D01*
X90540000Y-95033333D01*
X90506666Y-95166666D01*
X90506666Y-95266666D01*
X90540000Y-95400000D01*
X90573333Y-95466666D01*
X90640000Y-95533333D01*
X90740000Y-95566666D01*
X90806666Y-95566666D01*
X90906666Y-95533333D01*
X90940000Y-95500000D01*
X90940000Y-95266666D01*
X90806666Y-95266666D01*
X91240000Y-95566666D02*
X91240000Y-94866666D01*
X91640000Y-95566666D01*
X91640000Y-94866666D01*
X91973333Y-95566666D02*
X91973333Y-94866666D01*
X92140000Y-94866666D01*
X92240000Y-94900000D01*
X92306666Y-94966666D01*
X92340000Y-95033333D01*
X92373333Y-95166666D01*
X92373333Y-95266666D01*
X92340000Y-95400000D01*
X92306666Y-95466666D01*
X92240000Y-95533333D01*
X92140000Y-95566666D01*
X91973333Y-95566666D01*
D10*
X81280000Y-80010000D02*
X99060000Y-80010000D01*
D11*
X93480000Y-102986666D02*
X93813333Y-102986666D01*
X93413333Y-103186666D02*
X93646666Y-102486666D01*
X93880000Y-103186666D01*
X94246666Y-102486666D02*
X94313333Y-102486666D01*
X94380000Y-102520000D01*
X94413333Y-102553333D01*
X94446666Y-102620000D01*
X94480000Y-102753333D01*
X94480000Y-102920000D01*
X94446666Y-103053333D01*
X94413333Y-103120000D01*
X94380000Y-103153333D01*
X94313333Y-103186666D01*
X94246666Y-103186666D01*
X94180000Y-103153333D01*
X94146666Y-103120000D01*
X94113333Y-103053333D01*
X94080000Y-102920000D01*
X94080000Y-102753333D01*
X94113333Y-102620000D01*
X94146666Y-102553333D01*
X94180000Y-102520000D01*
X94246666Y-102486666D01*
X93480000Y-95366666D02*
X93813333Y-95366666D01*
X93413333Y-95566666D02*
X93646666Y-94866666D01*
X93880000Y-95566666D01*
X94246666Y-94866666D02*
X94313333Y-94866666D01*
X94380000Y-94900000D01*
X94413333Y-94933333D01*
X94446666Y-95000000D01*
X94480000Y-95133333D01*
X94480000Y-95300000D01*
X94446666Y-95433333D01*
X94413333Y-95500000D01*
X94380000Y-95533333D01*
X94313333Y-95566666D01*
X94246666Y-95566666D01*
X94180000Y-95533333D01*
X94146666Y-95500000D01*
X94113333Y-95433333D01*
X94080000Y-95300000D01*
X94080000Y-95133333D01*
X94113333Y-95000000D01*
X94146666Y-94933333D01*
X94180000Y-94900000D01*
X94246666Y-94866666D01*
X85426666Y-102486666D02*
X85660000Y-103186666D01*
X85893333Y-102486666D01*
X86526666Y-103120000D02*
X86493333Y-103153333D01*
X86393333Y-103186666D01*
X86326666Y-103186666D01*
X86226666Y-103153333D01*
X86160000Y-103086666D01*
X86126666Y-103020000D01*
X86093333Y-102886666D01*
X86093333Y-102786666D01*
X86126666Y-102653333D01*
X86160000Y-102586666D01*
X86226666Y-102520000D01*
X86326666Y-102486666D01*
X86393333Y-102486666D01*
X86493333Y-102520000D01*
X86526666Y-102553333D01*
X87226666Y-103120000D02*
X87193333Y-103153333D01*
X87093333Y-103186666D01*
X87026666Y-103186666D01*
X86926666Y-103153333D01*
X86860000Y-103086666D01*
X86826666Y-103020000D01*
X86793333Y-102886666D01*
X86793333Y-102786666D01*
X86826666Y-102653333D01*
X86860000Y-102586666D01*
X86926666Y-102520000D01*
X87026666Y-102486666D01*
X87093333Y-102486666D01*
X87193333Y-102520000D01*
X87226666Y-102553333D01*
D10*
X81280000Y-104140000D02*
X81280000Y-80010000D01*
X99060000Y-104140000D02*
X81280000Y-104140000D01*
D11*
X88366666Y-102520000D02*
X88300000Y-102486666D01*
X88200000Y-102486666D01*
X88100000Y-102520000D01*
X88033333Y-102586666D01*
X88000000Y-102653333D01*
X87966666Y-102786666D01*
X87966666Y-102886666D01*
X88000000Y-103020000D01*
X88033333Y-103086666D01*
X88100000Y-103153333D01*
X88200000Y-103186666D01*
X88266666Y-103186666D01*
X88366666Y-103153333D01*
X88400000Y-103120000D01*
X88400000Y-102886666D01*
X88266666Y-102886666D01*
X88700000Y-103186666D02*
X88700000Y-102486666D01*
X89100000Y-103186666D01*
X89100000Y-102486666D01*
X89433333Y-103186666D02*
X89433333Y-102486666D01*
X89600000Y-102486666D01*
X89700000Y-102520000D01*
X89766666Y-102586666D01*
X89800000Y-102653333D01*
X89833333Y-102786666D01*
X89833333Y-102886666D01*
X89800000Y-103020000D01*
X89766666Y-103086666D01*
X89700000Y-103153333D01*
X89600000Y-103186666D01*
X89433333Y-103186666D01*
X90923333Y-103186666D02*
X90923333Y-102486666D01*
X91090000Y-102486666D01*
X91190000Y-102520000D01*
X91256666Y-102586666D01*
X91290000Y-102653333D01*
X91323333Y-102786666D01*
X91323333Y-102886666D01*
X91290000Y-103020000D01*
X91256666Y-103086666D01*
X91190000Y-103153333D01*
X91090000Y-103186666D01*
X90923333Y-103186666D01*
X91756666Y-102486666D02*
X91823333Y-102486666D01*
X91890000Y-102520000D01*
X91923333Y-102553333D01*
X91956666Y-102620000D01*
X91990000Y-102753333D01*
X91990000Y-102920000D01*
X91956666Y-103053333D01*
X91923333Y-103120000D01*
X91890000Y-103153333D01*
X91823333Y-103186666D01*
X91756666Y-103186666D01*
X91690000Y-103153333D01*
X91656666Y-103120000D01*
X91623333Y-103053333D01*
X91590000Y-102920000D01*
X91590000Y-102753333D01*
X91623333Y-102620000D01*
X91656666Y-102553333D01*
X91690000Y-102520000D01*
X91756666Y-102486666D01*
X87966666Y-94866666D02*
X88200000Y-95566666D01*
X88433333Y-94866666D01*
X89066666Y-95500000D02*
X89033333Y-95533333D01*
X88933333Y-95566666D01*
X88866666Y-95566666D01*
X88766666Y-95533333D01*
X88700000Y-95466666D01*
X88666666Y-95400000D01*
X88633333Y-95266666D01*
X88633333Y-95166666D01*
X88666666Y-95033333D01*
X88700000Y-94966666D01*
X88766666Y-94900000D01*
X88866666Y-94866666D01*
X88933333Y-94866666D01*
X89033333Y-94900000D01*
X89066666Y-94933333D01*
X89766666Y-95500000D02*
X89733333Y-95533333D01*
X89633333Y-95566666D01*
X89566666Y-95566666D01*
X89466666Y-95533333D01*
X89400000Y-95466666D01*
X89366666Y-95400000D01*
X89333333Y-95266666D01*
X89333333Y-95166666D01*
X89366666Y-95033333D01*
X89400000Y-94966666D01*
X89466666Y-94900000D01*
X89566666Y-94866666D01*
X89633333Y-94866666D01*
X89733333Y-94900000D01*
X89766666Y-94933333D01*
X70186666Y-143126666D02*
X70420000Y-143826666D01*
X70653333Y-143126666D01*
X71286666Y-143760000D02*
X71253333Y-143793333D01*
X71153333Y-143826666D01*
X71086666Y-143826666D01*
X70986666Y-143793333D01*
X70920000Y-143726666D01*
X70886666Y-143660000D01*
X70853333Y-143526666D01*
X70853333Y-143426666D01*
X70886666Y-143293333D01*
X70920000Y-143226666D01*
X70986666Y-143160000D01*
X71086666Y-143126666D01*
X71153333Y-143126666D01*
X71253333Y-143160000D01*
X71286666Y-143193333D01*
X71986666Y-143760000D02*
X71953333Y-143793333D01*
X71853333Y-143826666D01*
X71786666Y-143826666D01*
X71686666Y-143793333D01*
X71620000Y-143726666D01*
X71586666Y-143660000D01*
X71553333Y-143526666D01*
X71553333Y-143426666D01*
X71586666Y-143293333D01*
X71620000Y-143226666D01*
X71686666Y-143160000D01*
X71786666Y-143126666D01*
X71853333Y-143126666D01*
X71953333Y-143160000D01*
X71986666Y-143193333D01*
X67646666Y-150746666D02*
X67880000Y-151446666D01*
X68113333Y-150746666D01*
X68746666Y-151380000D02*
X68713333Y-151413333D01*
X68613333Y-151446666D01*
X68546666Y-151446666D01*
X68446666Y-151413333D01*
X68380000Y-151346666D01*
X68346666Y-151280000D01*
X68313333Y-151146666D01*
X68313333Y-151046666D01*
X68346666Y-150913333D01*
X68380000Y-150846666D01*
X68446666Y-150780000D01*
X68546666Y-150746666D01*
X68613333Y-150746666D01*
X68713333Y-150780000D01*
X68746666Y-150813333D01*
X69446666Y-151380000D02*
X69413333Y-151413333D01*
X69313333Y-151446666D01*
X69246666Y-151446666D01*
X69146666Y-151413333D01*
X69080000Y-151346666D01*
X69046666Y-151280000D01*
X69013333Y-151146666D01*
X69013333Y-151046666D01*
X69046666Y-150913333D01*
X69080000Y-150846666D01*
X69146666Y-150780000D01*
X69246666Y-150746666D01*
X69313333Y-150746666D01*
X69413333Y-150780000D01*
X69446666Y-150813333D01*
X70586666Y-150780000D02*
X70520000Y-150746666D01*
X70420000Y-150746666D01*
X70320000Y-150780000D01*
X70253333Y-150846666D01*
X70220000Y-150913333D01*
X70186666Y-151046666D01*
X70186666Y-151146666D01*
X70220000Y-151280000D01*
X70253333Y-151346666D01*
X70320000Y-151413333D01*
X70420000Y-151446666D01*
X70486666Y-151446666D01*
X70586666Y-151413333D01*
X70620000Y-151380000D01*
X70620000Y-151146666D01*
X70486666Y-151146666D01*
X70920000Y-151446666D02*
X70920000Y-150746666D01*
X71320000Y-151446666D01*
X71320000Y-150746666D01*
X71653333Y-151446666D02*
X71653333Y-150746666D01*
X71820000Y-150746666D01*
X71920000Y-150780000D01*
X71986666Y-150846666D01*
X72020000Y-150913333D01*
X72053333Y-151046666D01*
X72053333Y-151146666D01*
X72020000Y-151280000D01*
X71986666Y-151346666D01*
X71920000Y-151413333D01*
X71820000Y-151446666D01*
X71653333Y-151446666D01*
X73143333Y-151446666D02*
X73143333Y-150746666D01*
X73310000Y-150746666D01*
X73410000Y-150780000D01*
X73476666Y-150846666D01*
X73510000Y-150913333D01*
X73543333Y-151046666D01*
X73543333Y-151146666D01*
X73510000Y-151280000D01*
X73476666Y-151346666D01*
X73410000Y-151413333D01*
X73310000Y-151446666D01*
X73143333Y-151446666D01*
X73976666Y-150746666D02*
X74043333Y-150746666D01*
X74110000Y-150780000D01*
X74143333Y-150813333D01*
X74176666Y-150880000D01*
X74210000Y-151013333D01*
X74210000Y-151180000D01*
X74176666Y-151313333D01*
X74143333Y-151380000D01*
X74110000Y-151413333D01*
X74043333Y-151446666D01*
X73976666Y-151446666D01*
X73910000Y-151413333D01*
X73876666Y-151380000D01*
X73843333Y-151313333D01*
X73810000Y-151180000D01*
X73810000Y-151013333D01*
X73843333Y-150880000D01*
X73876666Y-150813333D01*
X73910000Y-150780000D01*
X73976666Y-150746666D01*
X75700000Y-143626666D02*
X76033333Y-143626666D01*
X75633333Y-143826666D02*
X75866666Y-143126666D01*
X76100000Y-143826666D01*
X76466666Y-143126666D02*
X76533333Y-143126666D01*
X76600000Y-143160000D01*
X76633333Y-143193333D01*
X76666666Y-143260000D01*
X76700000Y-143393333D01*
X76700000Y-143560000D01*
X76666666Y-143693333D01*
X76633333Y-143760000D01*
X76600000Y-143793333D01*
X76533333Y-143826666D01*
X76466666Y-143826666D01*
X76400000Y-143793333D01*
X76366666Y-143760000D01*
X76333333Y-143693333D01*
X76300000Y-143560000D01*
X76300000Y-143393333D01*
X76333333Y-143260000D01*
X76366666Y-143193333D01*
X76400000Y-143160000D01*
X76466666Y-143126666D01*
D10*
X63500000Y-152400000D02*
X63500000Y-128270000D01*
X81280000Y-152400000D02*
X63500000Y-152400000D01*
D11*
X64005808Y-148712996D02*
X64339141Y-148712996D01*
X63939141Y-148912996D02*
X64172474Y-148212996D01*
X64405808Y-148912996D01*
X64572474Y-148212996D02*
X65039141Y-148212996D01*
X64572474Y-148912996D01*
X65039141Y-148912996D01*
X65305808Y-148212996D02*
X65305808Y-148779663D01*
X65339141Y-148846330D01*
X65372474Y-148879663D01*
X65439141Y-148912996D01*
X65572474Y-148912996D01*
X65639141Y-148879663D01*
X65672474Y-148846330D01*
X65705808Y-148779663D01*
X65705808Y-148212996D01*
X66372474Y-148912996D02*
X66039141Y-148912996D01*
X66039141Y-148212996D01*
X73126666Y-143160000D02*
X73060000Y-143126666D01*
X72960000Y-143126666D01*
X72860000Y-143160000D01*
X72793333Y-143226666D01*
X72760000Y-143293333D01*
X72726666Y-143426666D01*
X72726666Y-143526666D01*
X72760000Y-143660000D01*
X72793333Y-143726666D01*
X72860000Y-143793333D01*
X72960000Y-143826666D01*
X73026666Y-143826666D01*
X73126666Y-143793333D01*
X73160000Y-143760000D01*
X73160000Y-143526666D01*
X73026666Y-143526666D01*
X73460000Y-143826666D02*
X73460000Y-143126666D01*
X73860000Y-143826666D01*
X73860000Y-143126666D01*
X74193333Y-143826666D02*
X74193333Y-143126666D01*
X74360000Y-143126666D01*
X74460000Y-143160000D01*
X74526666Y-143226666D01*
X74560000Y-143293333D01*
X74593333Y-143426666D01*
X74593333Y-143526666D01*
X74560000Y-143660000D01*
X74526666Y-143726666D01*
X74460000Y-143793333D01*
X74360000Y-143826666D01*
X74193333Y-143826666D01*
D10*
X81280000Y-128270000D02*
X81280000Y-152400000D01*
X63500000Y-128270000D02*
X81280000Y-128270000D01*
D11*
X75700000Y-151246666D02*
X76033333Y-151246666D01*
X75633333Y-151446666D02*
X75866666Y-150746666D01*
X76100000Y-151446666D01*
X76466666Y-150746666D02*
X76533333Y-150746666D01*
X76600000Y-150780000D01*
X76633333Y-150813333D01*
X76666666Y-150880000D01*
X76700000Y-151013333D01*
X76700000Y-151180000D01*
X76666666Y-151313333D01*
X76633333Y-151380000D01*
X76600000Y-151413333D01*
X76533333Y-151446666D01*
X76466666Y-151446666D01*
X76400000Y-151413333D01*
X76366666Y-151380000D01*
X76333333Y-151313333D01*
X76300000Y-151180000D01*
X76300000Y-151013333D01*
X76333333Y-150880000D01*
X76366666Y-150813333D01*
X76400000Y-150780000D01*
X76466666Y-150746666D01*
X68063333Y-143826666D02*
X68063333Y-143126666D01*
X68230000Y-143126666D01*
X68330000Y-143160000D01*
X68396666Y-143226666D01*
X68430000Y-143293333D01*
X68463333Y-143426666D01*
X68463333Y-143526666D01*
X68430000Y-143660000D01*
X68396666Y-143726666D01*
X68330000Y-143793333D01*
X68230000Y-143826666D01*
X68063333Y-143826666D01*
X68896666Y-143126666D02*
X68963333Y-143126666D01*
X69030000Y-143160000D01*
X69063333Y-143193333D01*
X69096666Y-143260000D01*
X69130000Y-143393333D01*
X69130000Y-143560000D01*
X69096666Y-143693333D01*
X69063333Y-143760000D01*
X69030000Y-143793333D01*
X68963333Y-143826666D01*
X68896666Y-143826666D01*
X68830000Y-143793333D01*
X68796666Y-143760000D01*
X68763333Y-143693333D01*
X68730000Y-143560000D01*
X68730000Y-143393333D01*
X68763333Y-143260000D01*
X68796666Y-143193333D01*
X68830000Y-143160000D01*
X68896666Y-143126666D01*
X64372474Y-146366666D02*
X64139141Y-146033333D01*
X63972474Y-146366666D02*
X63972474Y-145666666D01*
X64239141Y-145666666D01*
X64305808Y-145700000D01*
X64339141Y-145733333D01*
X64372474Y-145800000D01*
X64372474Y-145900000D01*
X64339141Y-145966666D01*
X64305808Y-146000000D01*
X64239141Y-146033333D01*
X63972474Y-146033333D01*
X64805808Y-145666666D02*
X64939141Y-145666666D01*
X65005808Y-145700000D01*
X65072474Y-145766666D01*
X65105808Y-145900000D01*
X65105808Y-146133333D01*
X65072474Y-146266666D01*
X65005808Y-146333333D01*
X64939141Y-146366666D01*
X64805808Y-146366666D01*
X64739141Y-146333333D01*
X64672474Y-146266666D01*
X64639141Y-146133333D01*
X64639141Y-145900000D01*
X64672474Y-145766666D01*
X64739141Y-145700000D01*
X64805808Y-145666666D01*
X65605808Y-145666666D02*
X65605808Y-146166666D01*
X65572474Y-146266666D01*
X65505808Y-146333333D01*
X65405808Y-146366666D01*
X65339141Y-146366666D01*
X66072474Y-145666666D02*
X66205808Y-145666666D01*
X66272474Y-145700000D01*
X66339141Y-145766666D01*
X66372474Y-145900000D01*
X66372474Y-146133333D01*
X66339141Y-146266666D01*
X66272474Y-146333333D01*
X66205808Y-146366666D01*
X66072474Y-146366666D01*
X66005808Y-146333333D01*
X65939141Y-146266666D01*
X65905808Y-146133333D01*
X65905808Y-145900000D01*
X65939141Y-145766666D01*
X66005808Y-145700000D01*
X66072474Y-145666666D01*
D10*
X63500000Y-104140000D02*
X81280000Y-104140000D01*
D11*
X64372474Y-122236666D02*
X64139141Y-121903333D01*
X63972474Y-122236666D02*
X63972474Y-121536666D01*
X64239141Y-121536666D01*
X64305808Y-121570000D01*
X64339141Y-121603333D01*
X64372474Y-121670000D01*
X64372474Y-121770000D01*
X64339141Y-121836666D01*
X64305808Y-121870000D01*
X64239141Y-121903333D01*
X63972474Y-121903333D01*
X64805808Y-121536666D02*
X64939141Y-121536666D01*
X65005808Y-121570000D01*
X65072474Y-121636666D01*
X65105808Y-121770000D01*
X65105808Y-122003333D01*
X65072474Y-122136666D01*
X65005808Y-122203333D01*
X64939141Y-122236666D01*
X64805808Y-122236666D01*
X64739141Y-122203333D01*
X64672474Y-122136666D01*
X64639141Y-122003333D01*
X64639141Y-121770000D01*
X64672474Y-121636666D01*
X64739141Y-121570000D01*
X64805808Y-121536666D01*
X65605808Y-121536666D02*
X65605808Y-122036666D01*
X65572474Y-122136666D01*
X65505808Y-122203333D01*
X65405808Y-122236666D01*
X65339141Y-122236666D01*
X66072474Y-121536666D02*
X66205808Y-121536666D01*
X66272474Y-121570000D01*
X66339141Y-121636666D01*
X66372474Y-121770000D01*
X66372474Y-122003333D01*
X66339141Y-122136666D01*
X66272474Y-122203333D01*
X66205808Y-122236666D01*
X66072474Y-122236666D01*
X66005808Y-122203333D01*
X65939141Y-122136666D01*
X65905808Y-122003333D01*
X65905808Y-121770000D01*
X65939141Y-121636666D01*
X66005808Y-121570000D01*
X66072474Y-121536666D01*
X64005808Y-124582996D02*
X64339141Y-124582996D01*
X63939141Y-124782996D02*
X64172474Y-124082996D01*
X64405808Y-124782996D01*
X64572474Y-124082996D02*
X65039141Y-124082996D01*
X64572474Y-124782996D01*
X65039141Y-124782996D01*
X65305808Y-124082996D02*
X65305808Y-124649663D01*
X65339141Y-124716330D01*
X65372474Y-124749663D01*
X65439141Y-124782996D01*
X65572474Y-124782996D01*
X65639141Y-124749663D01*
X65672474Y-124716330D01*
X65705808Y-124649663D01*
X65705808Y-124082996D01*
X66372474Y-124782996D02*
X66039141Y-124782996D01*
X66039141Y-124082996D01*
X68063333Y-119696666D02*
X68063333Y-118996666D01*
X68230000Y-118996666D01*
X68330000Y-119030000D01*
X68396666Y-119096666D01*
X68430000Y-119163333D01*
X68463333Y-119296666D01*
X68463333Y-119396666D01*
X68430000Y-119530000D01*
X68396666Y-119596666D01*
X68330000Y-119663333D01*
X68230000Y-119696666D01*
X68063333Y-119696666D01*
X68896666Y-118996666D02*
X68963333Y-118996666D01*
X69030000Y-119030000D01*
X69063333Y-119063333D01*
X69096666Y-119130000D01*
X69130000Y-119263333D01*
X69130000Y-119430000D01*
X69096666Y-119563333D01*
X69063333Y-119630000D01*
X69030000Y-119663333D01*
X68963333Y-119696666D01*
X68896666Y-119696666D01*
X68830000Y-119663333D01*
X68796666Y-119630000D01*
X68763333Y-119563333D01*
X68730000Y-119430000D01*
X68730000Y-119263333D01*
X68763333Y-119130000D01*
X68796666Y-119063333D01*
X68830000Y-119030000D01*
X68896666Y-118996666D01*
X70186666Y-118996666D02*
X70420000Y-119696666D01*
X70653333Y-118996666D01*
X71286666Y-119630000D02*
X71253333Y-119663333D01*
X71153333Y-119696666D01*
X71086666Y-119696666D01*
X70986666Y-119663333D01*
X70920000Y-119596666D01*
X70886666Y-119530000D01*
X70853333Y-119396666D01*
X70853333Y-119296666D01*
X70886666Y-119163333D01*
X70920000Y-119096666D01*
X70986666Y-119030000D01*
X71086666Y-118996666D01*
X71153333Y-118996666D01*
X71253333Y-119030000D01*
X71286666Y-119063333D01*
X71986666Y-119630000D02*
X71953333Y-119663333D01*
X71853333Y-119696666D01*
X71786666Y-119696666D01*
X71686666Y-119663333D01*
X71620000Y-119596666D01*
X71586666Y-119530000D01*
X71553333Y-119396666D01*
X71553333Y-119296666D01*
X71586666Y-119163333D01*
X71620000Y-119096666D01*
X71686666Y-119030000D01*
X71786666Y-118996666D01*
X71853333Y-118996666D01*
X71953333Y-119030000D01*
X71986666Y-119063333D01*
X67646666Y-126616666D02*
X67880000Y-127316666D01*
X68113333Y-126616666D01*
X68746666Y-127250000D02*
X68713333Y-127283333D01*
X68613333Y-127316666D01*
X68546666Y-127316666D01*
X68446666Y-127283333D01*
X68380000Y-127216666D01*
X68346666Y-127150000D01*
X68313333Y-127016666D01*
X68313333Y-126916666D01*
X68346666Y-126783333D01*
X68380000Y-126716666D01*
X68446666Y-126650000D01*
X68546666Y-126616666D01*
X68613333Y-126616666D01*
X68713333Y-126650000D01*
X68746666Y-126683333D01*
X69446666Y-127250000D02*
X69413333Y-127283333D01*
X69313333Y-127316666D01*
X69246666Y-127316666D01*
X69146666Y-127283333D01*
X69080000Y-127216666D01*
X69046666Y-127150000D01*
X69013333Y-127016666D01*
X69013333Y-126916666D01*
X69046666Y-126783333D01*
X69080000Y-126716666D01*
X69146666Y-126650000D01*
X69246666Y-126616666D01*
X69313333Y-126616666D01*
X69413333Y-126650000D01*
X69446666Y-126683333D01*
X70586666Y-126650000D02*
X70520000Y-126616666D01*
X70420000Y-126616666D01*
X70320000Y-126650000D01*
X70253333Y-126716666D01*
X70220000Y-126783333D01*
X70186666Y-126916666D01*
X70186666Y-127016666D01*
X70220000Y-127150000D01*
X70253333Y-127216666D01*
X70320000Y-127283333D01*
X70420000Y-127316666D01*
X70486666Y-127316666D01*
X70586666Y-127283333D01*
X70620000Y-127250000D01*
X70620000Y-127016666D01*
X70486666Y-127016666D01*
X70920000Y-127316666D02*
X70920000Y-126616666D01*
X71320000Y-127316666D01*
X71320000Y-126616666D01*
X71653333Y-127316666D02*
X71653333Y-126616666D01*
X71820000Y-126616666D01*
X71920000Y-126650000D01*
X71986666Y-126716666D01*
X72020000Y-126783333D01*
X72053333Y-126916666D01*
X72053333Y-127016666D01*
X72020000Y-127150000D01*
X71986666Y-127216666D01*
X71920000Y-127283333D01*
X71820000Y-127316666D01*
X71653333Y-127316666D01*
X73143333Y-127316666D02*
X73143333Y-126616666D01*
X73310000Y-126616666D01*
X73410000Y-126650000D01*
X73476666Y-126716666D01*
X73510000Y-126783333D01*
X73543333Y-126916666D01*
X73543333Y-127016666D01*
X73510000Y-127150000D01*
X73476666Y-127216666D01*
X73410000Y-127283333D01*
X73310000Y-127316666D01*
X73143333Y-127316666D01*
X73976666Y-126616666D02*
X74043333Y-126616666D01*
X74110000Y-126650000D01*
X74143333Y-126683333D01*
X74176666Y-126750000D01*
X74210000Y-126883333D01*
X74210000Y-127050000D01*
X74176666Y-127183333D01*
X74143333Y-127250000D01*
X74110000Y-127283333D01*
X74043333Y-127316666D01*
X73976666Y-127316666D01*
X73910000Y-127283333D01*
X73876666Y-127250000D01*
X73843333Y-127183333D01*
X73810000Y-127050000D01*
X73810000Y-126883333D01*
X73843333Y-126750000D01*
X73876666Y-126683333D01*
X73910000Y-126650000D01*
X73976666Y-126616666D01*
D10*
X81280000Y-128270000D02*
X63500000Y-128270000D01*
D11*
X75700000Y-119496666D02*
X76033333Y-119496666D01*
X75633333Y-119696666D02*
X75866666Y-118996666D01*
X76100000Y-119696666D01*
X76466666Y-118996666D02*
X76533333Y-118996666D01*
X76600000Y-119030000D01*
X76633333Y-119063333D01*
X76666666Y-119130000D01*
X76700000Y-119263333D01*
X76700000Y-119430000D01*
X76666666Y-119563333D01*
X76633333Y-119630000D01*
X76600000Y-119663333D01*
X76533333Y-119696666D01*
X76466666Y-119696666D01*
X76400000Y-119663333D01*
X76366666Y-119630000D01*
X76333333Y-119563333D01*
X76300000Y-119430000D01*
X76300000Y-119263333D01*
X76333333Y-119130000D01*
X76366666Y-119063333D01*
X76400000Y-119030000D01*
X76466666Y-118996666D01*
D10*
X81280000Y-104140000D02*
X81280000Y-128270000D01*
D11*
X73126666Y-119030000D02*
X73060000Y-118996666D01*
X72960000Y-118996666D01*
X72860000Y-119030000D01*
X72793333Y-119096666D01*
X72760000Y-119163333D01*
X72726666Y-119296666D01*
X72726666Y-119396666D01*
X72760000Y-119530000D01*
X72793333Y-119596666D01*
X72860000Y-119663333D01*
X72960000Y-119696666D01*
X73026666Y-119696666D01*
X73126666Y-119663333D01*
X73160000Y-119630000D01*
X73160000Y-119396666D01*
X73026666Y-119396666D01*
X73460000Y-119696666D02*
X73460000Y-118996666D01*
X73860000Y-119696666D01*
X73860000Y-118996666D01*
X74193333Y-119696666D02*
X74193333Y-118996666D01*
X74360000Y-118996666D01*
X74460000Y-119030000D01*
X74526666Y-119096666D01*
X74560000Y-119163333D01*
X74593333Y-119296666D01*
X74593333Y-119396666D01*
X74560000Y-119530000D01*
X74526666Y-119596666D01*
X74460000Y-119663333D01*
X74360000Y-119696666D01*
X74193333Y-119696666D01*
X75700000Y-127116666D02*
X76033333Y-127116666D01*
X75633333Y-127316666D02*
X75866666Y-126616666D01*
X76100000Y-127316666D01*
X76466666Y-126616666D02*
X76533333Y-126616666D01*
X76600000Y-126650000D01*
X76633333Y-126683333D01*
X76666666Y-126750000D01*
X76700000Y-126883333D01*
X76700000Y-127050000D01*
X76666666Y-127183333D01*
X76633333Y-127250000D01*
X76600000Y-127283333D01*
X76533333Y-127316666D01*
X76466666Y-127316666D01*
X76400000Y-127283333D01*
X76366666Y-127250000D01*
X76333333Y-127183333D01*
X76300000Y-127050000D01*
X76300000Y-126883333D01*
X76333333Y-126750000D01*
X76366666Y-126683333D01*
X76400000Y-126650000D01*
X76466666Y-126616666D01*
D10*
X63500000Y-128270000D02*
X63500000Y-104140000D01*
D11*
X75700000Y-102986666D02*
X76033333Y-102986666D01*
X75633333Y-103186666D02*
X75866666Y-102486666D01*
X76100000Y-103186666D01*
X76466666Y-102486666D02*
X76533333Y-102486666D01*
X76600000Y-102520000D01*
X76633333Y-102553333D01*
X76666666Y-102620000D01*
X76700000Y-102753333D01*
X76700000Y-102920000D01*
X76666666Y-103053333D01*
X76633333Y-103120000D01*
X76600000Y-103153333D01*
X76533333Y-103186666D01*
X76466666Y-103186666D01*
X76400000Y-103153333D01*
X76366666Y-103120000D01*
X76333333Y-103053333D01*
X76300000Y-102920000D01*
X76300000Y-102753333D01*
X76333333Y-102620000D01*
X76366666Y-102553333D01*
X76400000Y-102520000D01*
X76466666Y-102486666D01*
X64372474Y-98106666D02*
X64139141Y-97773333D01*
X63972474Y-98106666D02*
X63972474Y-97406666D01*
X64239141Y-97406666D01*
X64305808Y-97440000D01*
X64339141Y-97473333D01*
X64372474Y-97540000D01*
X64372474Y-97640000D01*
X64339141Y-97706666D01*
X64305808Y-97740000D01*
X64239141Y-97773333D01*
X63972474Y-97773333D01*
X64805808Y-97406666D02*
X64939141Y-97406666D01*
X65005808Y-97440000D01*
X65072474Y-97506666D01*
X65105808Y-97640000D01*
X65105808Y-97873333D01*
X65072474Y-98006666D01*
X65005808Y-98073333D01*
X64939141Y-98106666D01*
X64805808Y-98106666D01*
X64739141Y-98073333D01*
X64672474Y-98006666D01*
X64639141Y-97873333D01*
X64639141Y-97640000D01*
X64672474Y-97506666D01*
X64739141Y-97440000D01*
X64805808Y-97406666D01*
X65605808Y-97406666D02*
X65605808Y-97906666D01*
X65572474Y-98006666D01*
X65505808Y-98073333D01*
X65405808Y-98106666D01*
X65339141Y-98106666D01*
X66072474Y-97406666D02*
X66205808Y-97406666D01*
X66272474Y-97440000D01*
X66339141Y-97506666D01*
X66372474Y-97640000D01*
X66372474Y-97873333D01*
X66339141Y-98006666D01*
X66272474Y-98073333D01*
X66205808Y-98106666D01*
X66072474Y-98106666D01*
X66005808Y-98073333D01*
X65939141Y-98006666D01*
X65905808Y-97873333D01*
X65905808Y-97640000D01*
X65939141Y-97506666D01*
X66005808Y-97440000D01*
X66072474Y-97406666D01*
D10*
X63500000Y-80010000D02*
X81280000Y-80010000D01*
D11*
X73143333Y-103186666D02*
X73143333Y-102486666D01*
X73310000Y-102486666D01*
X73410000Y-102520000D01*
X73476666Y-102586666D01*
X73510000Y-102653333D01*
X73543333Y-102786666D01*
X73543333Y-102886666D01*
X73510000Y-103020000D01*
X73476666Y-103086666D01*
X73410000Y-103153333D01*
X73310000Y-103186666D01*
X73143333Y-103186666D01*
X73976666Y-102486666D02*
X74043333Y-102486666D01*
X74110000Y-102520000D01*
X74143333Y-102553333D01*
X74176666Y-102620000D01*
X74210000Y-102753333D01*
X74210000Y-102920000D01*
X74176666Y-103053333D01*
X74143333Y-103120000D01*
X74110000Y-103153333D01*
X74043333Y-103186666D01*
X73976666Y-103186666D01*
X73910000Y-103153333D01*
X73876666Y-103120000D01*
X73843333Y-103053333D01*
X73810000Y-102920000D01*
X73810000Y-102753333D01*
X73843333Y-102620000D01*
X73876666Y-102553333D01*
X73910000Y-102520000D01*
X73976666Y-102486666D01*
X70586666Y-102520000D02*
X70520000Y-102486666D01*
X70420000Y-102486666D01*
X70320000Y-102520000D01*
X70253333Y-102586666D01*
X70220000Y-102653333D01*
X70186666Y-102786666D01*
X70186666Y-102886666D01*
X70220000Y-103020000D01*
X70253333Y-103086666D01*
X70320000Y-103153333D01*
X70420000Y-103186666D01*
X70486666Y-103186666D01*
X70586666Y-103153333D01*
X70620000Y-103120000D01*
X70620000Y-102886666D01*
X70486666Y-102886666D01*
X70920000Y-103186666D02*
X70920000Y-102486666D01*
X71320000Y-103186666D01*
X71320000Y-102486666D01*
X71653333Y-103186666D02*
X71653333Y-102486666D01*
X71820000Y-102486666D01*
X71920000Y-102520000D01*
X71986666Y-102586666D01*
X72020000Y-102653333D01*
X72053333Y-102786666D01*
X72053333Y-102886666D01*
X72020000Y-103020000D01*
X71986666Y-103086666D01*
X71920000Y-103153333D01*
X71820000Y-103186666D01*
X71653333Y-103186666D01*
D10*
X81280000Y-80010000D02*
X81280000Y-104140000D01*
X63500000Y-104140000D02*
X63500000Y-80010000D01*
D11*
X75700000Y-95366666D02*
X76033333Y-95366666D01*
X75633333Y-95566666D02*
X75866666Y-94866666D01*
X76100000Y-95566666D01*
X76466666Y-94866666D02*
X76533333Y-94866666D01*
X76600000Y-94900000D01*
X76633333Y-94933333D01*
X76666666Y-95000000D01*
X76700000Y-95133333D01*
X76700000Y-95300000D01*
X76666666Y-95433333D01*
X76633333Y-95500000D01*
X76600000Y-95533333D01*
X76533333Y-95566666D01*
X76466666Y-95566666D01*
X76400000Y-95533333D01*
X76366666Y-95500000D01*
X76333333Y-95433333D01*
X76300000Y-95300000D01*
X76300000Y-95133333D01*
X76333333Y-95000000D01*
X76366666Y-94933333D01*
X76400000Y-94900000D01*
X76466666Y-94866666D01*
X64005808Y-100452996D02*
X64339141Y-100452996D01*
X63939141Y-100652996D02*
X64172474Y-99952996D01*
X64405808Y-100652996D01*
X64572474Y-99952996D02*
X65039141Y-99952996D01*
X64572474Y-100652996D01*
X65039141Y-100652996D01*
X65305808Y-99952996D02*
X65305808Y-100519663D01*
X65339141Y-100586330D01*
X65372474Y-100619663D01*
X65439141Y-100652996D01*
X65572474Y-100652996D01*
X65639141Y-100619663D01*
X65672474Y-100586330D01*
X65705808Y-100519663D01*
X65705808Y-99952996D01*
X66372474Y-100652996D02*
X66039141Y-100652996D01*
X66039141Y-99952996D01*
X68063333Y-95566666D02*
X68063333Y-94866666D01*
X68230000Y-94866666D01*
X68330000Y-94900000D01*
X68396666Y-94966666D01*
X68430000Y-95033333D01*
X68463333Y-95166666D01*
X68463333Y-95266666D01*
X68430000Y-95400000D01*
X68396666Y-95466666D01*
X68330000Y-95533333D01*
X68230000Y-95566666D01*
X68063333Y-95566666D01*
X68896666Y-94866666D02*
X68963333Y-94866666D01*
X69030000Y-94900000D01*
X69063333Y-94933333D01*
X69096666Y-95000000D01*
X69130000Y-95133333D01*
X69130000Y-95300000D01*
X69096666Y-95433333D01*
X69063333Y-95500000D01*
X69030000Y-95533333D01*
X68963333Y-95566666D01*
X68896666Y-95566666D01*
X68830000Y-95533333D01*
X68796666Y-95500000D01*
X68763333Y-95433333D01*
X68730000Y-95300000D01*
X68730000Y-95133333D01*
X68763333Y-95000000D01*
X68796666Y-94933333D01*
X68830000Y-94900000D01*
X68896666Y-94866666D01*
X70186666Y-94866666D02*
X70420000Y-95566666D01*
X70653333Y-94866666D01*
X71286666Y-95500000D02*
X71253333Y-95533333D01*
X71153333Y-95566666D01*
X71086666Y-95566666D01*
X70986666Y-95533333D01*
X70920000Y-95466666D01*
X70886666Y-95400000D01*
X70853333Y-95266666D01*
X70853333Y-95166666D01*
X70886666Y-95033333D01*
X70920000Y-94966666D01*
X70986666Y-94900000D01*
X71086666Y-94866666D01*
X71153333Y-94866666D01*
X71253333Y-94900000D01*
X71286666Y-94933333D01*
X71986666Y-95500000D02*
X71953333Y-95533333D01*
X71853333Y-95566666D01*
X71786666Y-95566666D01*
X71686666Y-95533333D01*
X71620000Y-95466666D01*
X71586666Y-95400000D01*
X71553333Y-95266666D01*
X71553333Y-95166666D01*
X71586666Y-95033333D01*
X71620000Y-94966666D01*
X71686666Y-94900000D01*
X71786666Y-94866666D01*
X71853333Y-94866666D01*
X71953333Y-94900000D01*
X71986666Y-94933333D01*
X67646666Y-102486666D02*
X67880000Y-103186666D01*
X68113333Y-102486666D01*
X68746666Y-103120000D02*
X68713333Y-103153333D01*
X68613333Y-103186666D01*
X68546666Y-103186666D01*
X68446666Y-103153333D01*
X68380000Y-103086666D01*
X68346666Y-103020000D01*
X68313333Y-102886666D01*
X68313333Y-102786666D01*
X68346666Y-102653333D01*
X68380000Y-102586666D01*
X68446666Y-102520000D01*
X68546666Y-102486666D01*
X68613333Y-102486666D01*
X68713333Y-102520000D01*
X68746666Y-102553333D01*
X69446666Y-103120000D02*
X69413333Y-103153333D01*
X69313333Y-103186666D01*
X69246666Y-103186666D01*
X69146666Y-103153333D01*
X69080000Y-103086666D01*
X69046666Y-103020000D01*
X69013333Y-102886666D01*
X69013333Y-102786666D01*
X69046666Y-102653333D01*
X69080000Y-102586666D01*
X69146666Y-102520000D01*
X69246666Y-102486666D01*
X69313333Y-102486666D01*
X69413333Y-102520000D01*
X69446666Y-102553333D01*
D10*
X81280000Y-104140000D02*
X63500000Y-104140000D01*
D11*
X73126666Y-94900000D02*
X73060000Y-94866666D01*
X72960000Y-94866666D01*
X72860000Y-94900000D01*
X72793333Y-94966666D01*
X72760000Y-95033333D01*
X72726666Y-95166666D01*
X72726666Y-95266666D01*
X72760000Y-95400000D01*
X72793333Y-95466666D01*
X72860000Y-95533333D01*
X72960000Y-95566666D01*
X73026666Y-95566666D01*
X73126666Y-95533333D01*
X73160000Y-95500000D01*
X73160000Y-95266666D01*
X73026666Y-95266666D01*
X73460000Y-95566666D02*
X73460000Y-94866666D01*
X73860000Y-95566666D01*
X73860000Y-94866666D01*
X74193333Y-95566666D02*
X74193333Y-94866666D01*
X74360000Y-94866666D01*
X74460000Y-94900000D01*
X74526666Y-94966666D01*
X74560000Y-95033333D01*
X74593333Y-95166666D01*
X74593333Y-95266666D01*
X74560000Y-95400000D01*
X74526666Y-95466666D01*
X74460000Y-95533333D01*
X74360000Y-95566666D01*
X74193333Y-95566666D01*
X90906666Y-70770000D02*
X90840000Y-70736666D01*
X90740000Y-70736666D01*
X90640000Y-70770000D01*
X90573333Y-70836666D01*
X90540000Y-70903333D01*
X90506666Y-71036666D01*
X90506666Y-71136666D01*
X90540000Y-71270000D01*
X90573333Y-71336666D01*
X90640000Y-71403333D01*
X90740000Y-71436666D01*
X90806666Y-71436666D01*
X90906666Y-71403333D01*
X90940000Y-71370000D01*
X90940000Y-71136666D01*
X90806666Y-71136666D01*
X91240000Y-71436666D02*
X91240000Y-70736666D01*
X91640000Y-71436666D01*
X91640000Y-70736666D01*
X91973333Y-71436666D02*
X91973333Y-70736666D01*
X92140000Y-70736666D01*
X92240000Y-70770000D01*
X92306666Y-70836666D01*
X92340000Y-70903333D01*
X92373333Y-71036666D01*
X92373333Y-71136666D01*
X92340000Y-71270000D01*
X92306666Y-71336666D01*
X92240000Y-71403333D01*
X92140000Y-71436666D01*
X91973333Y-71436666D01*
X85426666Y-78356666D02*
X85660000Y-79056666D01*
X85893333Y-78356666D01*
X86526666Y-78990000D02*
X86493333Y-79023333D01*
X86393333Y-79056666D01*
X86326666Y-79056666D01*
X86226666Y-79023333D01*
X86160000Y-78956666D01*
X86126666Y-78890000D01*
X86093333Y-78756666D01*
X86093333Y-78656666D01*
X86126666Y-78523333D01*
X86160000Y-78456666D01*
X86226666Y-78390000D01*
X86326666Y-78356666D01*
X86393333Y-78356666D01*
X86493333Y-78390000D01*
X86526666Y-78423333D01*
X87226666Y-78990000D02*
X87193333Y-79023333D01*
X87093333Y-79056666D01*
X87026666Y-79056666D01*
X86926666Y-79023333D01*
X86860000Y-78956666D01*
X86826666Y-78890000D01*
X86793333Y-78756666D01*
X86793333Y-78656666D01*
X86826666Y-78523333D01*
X86860000Y-78456666D01*
X86926666Y-78390000D01*
X87026666Y-78356666D01*
X87093333Y-78356666D01*
X87193333Y-78390000D01*
X87226666Y-78423333D01*
X85843333Y-71436666D02*
X85843333Y-70736666D01*
X86010000Y-70736666D01*
X86110000Y-70770000D01*
X86176666Y-70836666D01*
X86210000Y-70903333D01*
X86243333Y-71036666D01*
X86243333Y-71136666D01*
X86210000Y-71270000D01*
X86176666Y-71336666D01*
X86110000Y-71403333D01*
X86010000Y-71436666D01*
X85843333Y-71436666D01*
X86676666Y-70736666D02*
X86743333Y-70736666D01*
X86810000Y-70770000D01*
X86843333Y-70803333D01*
X86876666Y-70870000D01*
X86910000Y-71003333D01*
X86910000Y-71170000D01*
X86876666Y-71303333D01*
X86843333Y-71370000D01*
X86810000Y-71403333D01*
X86743333Y-71436666D01*
X86676666Y-71436666D01*
X86610000Y-71403333D01*
X86576666Y-71370000D01*
X86543333Y-71303333D01*
X86510000Y-71170000D01*
X86510000Y-71003333D01*
X86543333Y-70870000D01*
X86576666Y-70803333D01*
X86610000Y-70770000D01*
X86676666Y-70736666D01*
X88366666Y-78390000D02*
X88300000Y-78356666D01*
X88200000Y-78356666D01*
X88100000Y-78390000D01*
X88033333Y-78456666D01*
X88000000Y-78523333D01*
X87966666Y-78656666D01*
X87966666Y-78756666D01*
X88000000Y-78890000D01*
X88033333Y-78956666D01*
X88100000Y-79023333D01*
X88200000Y-79056666D01*
X88266666Y-79056666D01*
X88366666Y-79023333D01*
X88400000Y-78990000D01*
X88400000Y-78756666D01*
X88266666Y-78756666D01*
X88700000Y-79056666D02*
X88700000Y-78356666D01*
X89100000Y-79056666D01*
X89100000Y-78356666D01*
X89433333Y-79056666D02*
X89433333Y-78356666D01*
X89600000Y-78356666D01*
X89700000Y-78390000D01*
X89766666Y-78456666D01*
X89800000Y-78523333D01*
X89833333Y-78656666D01*
X89833333Y-78756666D01*
X89800000Y-78890000D01*
X89766666Y-78956666D01*
X89700000Y-79023333D01*
X89600000Y-79056666D01*
X89433333Y-79056666D01*
D10*
X81280000Y-55880000D02*
X99060000Y-55880000D01*
X81280000Y-80010000D02*
X81280000Y-55880000D01*
X99060000Y-55880000D02*
X99060000Y-80010000D01*
X99060000Y-80010000D02*
X81280000Y-80010000D01*
D11*
X93480000Y-71236666D02*
X93813333Y-71236666D01*
X93413333Y-71436666D02*
X93646666Y-70736666D01*
X93880000Y-71436666D01*
X94246666Y-70736666D02*
X94313333Y-70736666D01*
X94380000Y-70770000D01*
X94413333Y-70803333D01*
X94446666Y-70870000D01*
X94480000Y-71003333D01*
X94480000Y-71170000D01*
X94446666Y-71303333D01*
X94413333Y-71370000D01*
X94380000Y-71403333D01*
X94313333Y-71436666D01*
X94246666Y-71436666D01*
X94180000Y-71403333D01*
X94146666Y-71370000D01*
X94113333Y-71303333D01*
X94080000Y-71170000D01*
X94080000Y-71003333D01*
X94113333Y-70870000D01*
X94146666Y-70803333D01*
X94180000Y-70770000D01*
X94246666Y-70736666D01*
X93480000Y-78856666D02*
X93813333Y-78856666D01*
X93413333Y-79056666D02*
X93646666Y-78356666D01*
X93880000Y-79056666D01*
X94246666Y-78356666D02*
X94313333Y-78356666D01*
X94380000Y-78390000D01*
X94413333Y-78423333D01*
X94446666Y-78490000D01*
X94480000Y-78623333D01*
X94480000Y-78790000D01*
X94446666Y-78923333D01*
X94413333Y-78990000D01*
X94380000Y-79023333D01*
X94313333Y-79056666D01*
X94246666Y-79056666D01*
X94180000Y-79023333D01*
X94146666Y-78990000D01*
X94113333Y-78923333D01*
X94080000Y-78790000D01*
X94080000Y-78623333D01*
X94113333Y-78490000D01*
X94146666Y-78423333D01*
X94180000Y-78390000D01*
X94246666Y-78356666D01*
X82152474Y-73976666D02*
X81919141Y-73643333D01*
X81752474Y-73976666D02*
X81752474Y-73276666D01*
X82019141Y-73276666D01*
X82085808Y-73310000D01*
X82119141Y-73343333D01*
X82152474Y-73410000D01*
X82152474Y-73510000D01*
X82119141Y-73576666D01*
X82085808Y-73610000D01*
X82019141Y-73643333D01*
X81752474Y-73643333D01*
X82585808Y-73276666D02*
X82719141Y-73276666D01*
X82785808Y-73310000D01*
X82852474Y-73376666D01*
X82885808Y-73510000D01*
X82885808Y-73743333D01*
X82852474Y-73876666D01*
X82785808Y-73943333D01*
X82719141Y-73976666D01*
X82585808Y-73976666D01*
X82519141Y-73943333D01*
X82452474Y-73876666D01*
X82419141Y-73743333D01*
X82419141Y-73510000D01*
X82452474Y-73376666D01*
X82519141Y-73310000D01*
X82585808Y-73276666D01*
X83385808Y-73276666D02*
X83385808Y-73776666D01*
X83352474Y-73876666D01*
X83285808Y-73943333D01*
X83185808Y-73976666D01*
X83119141Y-73976666D01*
X83852474Y-73276666D02*
X83985808Y-73276666D01*
X84052474Y-73310000D01*
X84119141Y-73376666D01*
X84152474Y-73510000D01*
X84152474Y-73743333D01*
X84119141Y-73876666D01*
X84052474Y-73943333D01*
X83985808Y-73976666D01*
X83852474Y-73976666D01*
X83785808Y-73943333D01*
X83719141Y-73876666D01*
X83685808Y-73743333D01*
X83685808Y-73510000D01*
X83719141Y-73376666D01*
X83785808Y-73310000D01*
X83852474Y-73276666D01*
X87966666Y-70736666D02*
X88200000Y-71436666D01*
X88433333Y-70736666D01*
X89066666Y-71370000D02*
X89033333Y-71403333D01*
X88933333Y-71436666D01*
X88866666Y-71436666D01*
X88766666Y-71403333D01*
X88700000Y-71336666D01*
X88666666Y-71270000D01*
X88633333Y-71136666D01*
X88633333Y-71036666D01*
X88666666Y-70903333D01*
X88700000Y-70836666D01*
X88766666Y-70770000D01*
X88866666Y-70736666D01*
X88933333Y-70736666D01*
X89033333Y-70770000D01*
X89066666Y-70803333D01*
X89766666Y-71370000D02*
X89733333Y-71403333D01*
X89633333Y-71436666D01*
X89566666Y-71436666D01*
X89466666Y-71403333D01*
X89400000Y-71336666D01*
X89366666Y-71270000D01*
X89333333Y-71136666D01*
X89333333Y-71036666D01*
X89366666Y-70903333D01*
X89400000Y-70836666D01*
X89466666Y-70770000D01*
X89566666Y-70736666D01*
X89633333Y-70736666D01*
X89733333Y-70770000D01*
X89766666Y-70803333D01*
X90923333Y-79056666D02*
X90923333Y-78356666D01*
X91090000Y-78356666D01*
X91190000Y-78390000D01*
X91256666Y-78456666D01*
X91290000Y-78523333D01*
X91323333Y-78656666D01*
X91323333Y-78756666D01*
X91290000Y-78890000D01*
X91256666Y-78956666D01*
X91190000Y-79023333D01*
X91090000Y-79056666D01*
X90923333Y-79056666D01*
X91756666Y-78356666D02*
X91823333Y-78356666D01*
X91890000Y-78390000D01*
X91923333Y-78423333D01*
X91956666Y-78490000D01*
X91990000Y-78623333D01*
X91990000Y-78790000D01*
X91956666Y-78923333D01*
X91923333Y-78990000D01*
X91890000Y-79023333D01*
X91823333Y-79056666D01*
X91756666Y-79056666D01*
X91690000Y-79023333D01*
X91656666Y-78990000D01*
X91623333Y-78923333D01*
X91590000Y-78790000D01*
X91590000Y-78623333D01*
X91623333Y-78490000D01*
X91656666Y-78423333D01*
X91690000Y-78390000D01*
X91756666Y-78356666D01*
X81785808Y-76322996D02*
X82119141Y-76322996D01*
X81719141Y-76522996D02*
X81952474Y-75822996D01*
X82185808Y-76522996D01*
X82352474Y-75822996D02*
X82819141Y-75822996D01*
X82352474Y-76522996D01*
X82819141Y-76522996D01*
X83085808Y-75822996D02*
X83085808Y-76389663D01*
X83119141Y-76456330D01*
X83152474Y-76489663D01*
X83219141Y-76522996D01*
X83352474Y-76522996D01*
X83419141Y-76489663D01*
X83452474Y-76456330D01*
X83485808Y-76389663D01*
X83485808Y-75822996D01*
X84152474Y-76522996D02*
X83819141Y-76522996D01*
X83819141Y-75822996D01*
D10*
X63500000Y-80010000D02*
X63500000Y-55880000D01*
X81280000Y-80010000D02*
X63500000Y-80010000D01*
X81280000Y-55880000D02*
X81280000Y-80010000D01*
X63500000Y-55880000D02*
X81280000Y-55880000D01*
D11*
X64372474Y-73976666D02*
X64139141Y-73643333D01*
X63972474Y-73976666D02*
X63972474Y-73276666D01*
X64239141Y-73276666D01*
X64305808Y-73310000D01*
X64339141Y-73343333D01*
X64372474Y-73410000D01*
X64372474Y-73510000D01*
X64339141Y-73576666D01*
X64305808Y-73610000D01*
X64239141Y-73643333D01*
X63972474Y-73643333D01*
X64805808Y-73276666D02*
X64939141Y-73276666D01*
X65005808Y-73310000D01*
X65072474Y-73376666D01*
X65105808Y-73510000D01*
X65105808Y-73743333D01*
X65072474Y-73876666D01*
X65005808Y-73943333D01*
X64939141Y-73976666D01*
X64805808Y-73976666D01*
X64739141Y-73943333D01*
X64672474Y-73876666D01*
X64639141Y-73743333D01*
X64639141Y-73510000D01*
X64672474Y-73376666D01*
X64739141Y-73310000D01*
X64805808Y-73276666D01*
X65605808Y-73276666D02*
X65605808Y-73776666D01*
X65572474Y-73876666D01*
X65505808Y-73943333D01*
X65405808Y-73976666D01*
X65339141Y-73976666D01*
X66072474Y-73276666D02*
X66205808Y-73276666D01*
X66272474Y-73310000D01*
X66339141Y-73376666D01*
X66372474Y-73510000D01*
X66372474Y-73743333D01*
X66339141Y-73876666D01*
X66272474Y-73943333D01*
X66205808Y-73976666D01*
X66072474Y-73976666D01*
X66005808Y-73943333D01*
X65939141Y-73876666D01*
X65905808Y-73743333D01*
X65905808Y-73510000D01*
X65939141Y-73376666D01*
X66005808Y-73310000D01*
X66072474Y-73276666D01*
X64005808Y-76322996D02*
X64339141Y-76322996D01*
X63939141Y-76522996D02*
X64172474Y-75822996D01*
X64405808Y-76522996D01*
X64572474Y-75822996D02*
X65039141Y-75822996D01*
X64572474Y-76522996D01*
X65039141Y-76522996D01*
X65305808Y-75822996D02*
X65305808Y-76389663D01*
X65339141Y-76456330D01*
X65372474Y-76489663D01*
X65439141Y-76522996D01*
X65572474Y-76522996D01*
X65639141Y-76489663D01*
X65672474Y-76456330D01*
X65705808Y-76389663D01*
X65705808Y-75822996D01*
X66372474Y-76522996D02*
X66039141Y-76522996D01*
X66039141Y-75822996D01*
X75700000Y-71236666D02*
X76033333Y-71236666D01*
X75633333Y-71436666D02*
X75866666Y-70736666D01*
X76100000Y-71436666D01*
X76466666Y-70736666D02*
X76533333Y-70736666D01*
X76600000Y-70770000D01*
X76633333Y-70803333D01*
X76666666Y-70870000D01*
X76700000Y-71003333D01*
X76700000Y-71170000D01*
X76666666Y-71303333D01*
X76633333Y-71370000D01*
X76600000Y-71403333D01*
X76533333Y-71436666D01*
X76466666Y-71436666D01*
X76400000Y-71403333D01*
X76366666Y-71370000D01*
X76333333Y-71303333D01*
X76300000Y-71170000D01*
X76300000Y-71003333D01*
X76333333Y-70870000D01*
X76366666Y-70803333D01*
X76400000Y-70770000D01*
X76466666Y-70736666D01*
X73126666Y-70770000D02*
X73060000Y-70736666D01*
X72960000Y-70736666D01*
X72860000Y-70770000D01*
X72793333Y-70836666D01*
X72760000Y-70903333D01*
X72726666Y-71036666D01*
X72726666Y-71136666D01*
X72760000Y-71270000D01*
X72793333Y-71336666D01*
X72860000Y-71403333D01*
X72960000Y-71436666D01*
X73026666Y-71436666D01*
X73126666Y-71403333D01*
X73160000Y-71370000D01*
X73160000Y-71136666D01*
X73026666Y-71136666D01*
X73460000Y-71436666D02*
X73460000Y-70736666D01*
X73860000Y-71436666D01*
X73860000Y-70736666D01*
X74193333Y-71436666D02*
X74193333Y-70736666D01*
X74360000Y-70736666D01*
X74460000Y-70770000D01*
X74526666Y-70836666D01*
X74560000Y-70903333D01*
X74593333Y-71036666D01*
X74593333Y-71136666D01*
X74560000Y-71270000D01*
X74526666Y-71336666D01*
X74460000Y-71403333D01*
X74360000Y-71436666D01*
X74193333Y-71436666D01*
X70186666Y-70736666D02*
X70420000Y-71436666D01*
X70653333Y-70736666D01*
X71286666Y-71370000D02*
X71253333Y-71403333D01*
X71153333Y-71436666D01*
X71086666Y-71436666D01*
X70986666Y-71403333D01*
X70920000Y-71336666D01*
X70886666Y-71270000D01*
X70853333Y-71136666D01*
X70853333Y-71036666D01*
X70886666Y-70903333D01*
X70920000Y-70836666D01*
X70986666Y-70770000D01*
X71086666Y-70736666D01*
X71153333Y-70736666D01*
X71253333Y-70770000D01*
X71286666Y-70803333D01*
X71986666Y-71370000D02*
X71953333Y-71403333D01*
X71853333Y-71436666D01*
X71786666Y-71436666D01*
X71686666Y-71403333D01*
X71620000Y-71336666D01*
X71586666Y-71270000D01*
X71553333Y-71136666D01*
X71553333Y-71036666D01*
X71586666Y-70903333D01*
X71620000Y-70836666D01*
X71686666Y-70770000D01*
X71786666Y-70736666D01*
X71853333Y-70736666D01*
X71953333Y-70770000D01*
X71986666Y-70803333D01*
X68063333Y-71436666D02*
X68063333Y-70736666D01*
X68230000Y-70736666D01*
X68330000Y-70770000D01*
X68396666Y-70836666D01*
X68430000Y-70903333D01*
X68463333Y-71036666D01*
X68463333Y-71136666D01*
X68430000Y-71270000D01*
X68396666Y-71336666D01*
X68330000Y-71403333D01*
X68230000Y-71436666D01*
X68063333Y-71436666D01*
X68896666Y-70736666D02*
X68963333Y-70736666D01*
X69030000Y-70770000D01*
X69063333Y-70803333D01*
X69096666Y-70870000D01*
X69130000Y-71003333D01*
X69130000Y-71170000D01*
X69096666Y-71303333D01*
X69063333Y-71370000D01*
X69030000Y-71403333D01*
X68963333Y-71436666D01*
X68896666Y-71436666D01*
X68830000Y-71403333D01*
X68796666Y-71370000D01*
X68763333Y-71303333D01*
X68730000Y-71170000D01*
X68730000Y-71003333D01*
X68763333Y-70870000D01*
X68796666Y-70803333D01*
X68830000Y-70770000D01*
X68896666Y-70736666D01*
X75700000Y-78856666D02*
X76033333Y-78856666D01*
X75633333Y-79056666D02*
X75866666Y-78356666D01*
X76100000Y-79056666D01*
X76466666Y-78356666D02*
X76533333Y-78356666D01*
X76600000Y-78390000D01*
X76633333Y-78423333D01*
X76666666Y-78490000D01*
X76700000Y-78623333D01*
X76700000Y-78790000D01*
X76666666Y-78923333D01*
X76633333Y-78990000D01*
X76600000Y-79023333D01*
X76533333Y-79056666D01*
X76466666Y-79056666D01*
X76400000Y-79023333D01*
X76366666Y-78990000D01*
X76333333Y-78923333D01*
X76300000Y-78790000D01*
X76300000Y-78623333D01*
X76333333Y-78490000D01*
X76366666Y-78423333D01*
X76400000Y-78390000D01*
X76466666Y-78356666D01*
X73143333Y-79056666D02*
X73143333Y-78356666D01*
X73310000Y-78356666D01*
X73410000Y-78390000D01*
X73476666Y-78456666D01*
X73510000Y-78523333D01*
X73543333Y-78656666D01*
X73543333Y-78756666D01*
X73510000Y-78890000D01*
X73476666Y-78956666D01*
X73410000Y-79023333D01*
X73310000Y-79056666D01*
X73143333Y-79056666D01*
X73976666Y-78356666D02*
X74043333Y-78356666D01*
X74110000Y-78390000D01*
X74143333Y-78423333D01*
X74176666Y-78490000D01*
X74210000Y-78623333D01*
X74210000Y-78790000D01*
X74176666Y-78923333D01*
X74143333Y-78990000D01*
X74110000Y-79023333D01*
X74043333Y-79056666D01*
X73976666Y-79056666D01*
X73910000Y-79023333D01*
X73876666Y-78990000D01*
X73843333Y-78923333D01*
X73810000Y-78790000D01*
X73810000Y-78623333D01*
X73843333Y-78490000D01*
X73876666Y-78423333D01*
X73910000Y-78390000D01*
X73976666Y-78356666D01*
X67646666Y-78356666D02*
X67880000Y-79056666D01*
X68113333Y-78356666D01*
X68746666Y-78990000D02*
X68713333Y-79023333D01*
X68613333Y-79056666D01*
X68546666Y-79056666D01*
X68446666Y-79023333D01*
X68380000Y-78956666D01*
X68346666Y-78890000D01*
X68313333Y-78756666D01*
X68313333Y-78656666D01*
X68346666Y-78523333D01*
X68380000Y-78456666D01*
X68446666Y-78390000D01*
X68546666Y-78356666D01*
X68613333Y-78356666D01*
X68713333Y-78390000D01*
X68746666Y-78423333D01*
X69446666Y-78990000D02*
X69413333Y-79023333D01*
X69313333Y-79056666D01*
X69246666Y-79056666D01*
X69146666Y-79023333D01*
X69080000Y-78956666D01*
X69046666Y-78890000D01*
X69013333Y-78756666D01*
X69013333Y-78656666D01*
X69046666Y-78523333D01*
X69080000Y-78456666D01*
X69146666Y-78390000D01*
X69246666Y-78356666D01*
X69313333Y-78356666D01*
X69413333Y-78390000D01*
X69446666Y-78423333D01*
X70586666Y-78390000D02*
X70520000Y-78356666D01*
X70420000Y-78356666D01*
X70320000Y-78390000D01*
X70253333Y-78456666D01*
X70220000Y-78523333D01*
X70186666Y-78656666D01*
X70186666Y-78756666D01*
X70220000Y-78890000D01*
X70253333Y-78956666D01*
X70320000Y-79023333D01*
X70420000Y-79056666D01*
X70486666Y-79056666D01*
X70586666Y-79023333D01*
X70620000Y-78990000D01*
X70620000Y-78756666D01*
X70486666Y-78756666D01*
X70920000Y-79056666D02*
X70920000Y-78356666D01*
X71320000Y-79056666D01*
X71320000Y-78356666D01*
X71653333Y-79056666D02*
X71653333Y-78356666D01*
X71820000Y-78356666D01*
X71920000Y-78390000D01*
X71986666Y-78456666D01*
X72020000Y-78523333D01*
X72053333Y-78656666D01*
X72053333Y-78756666D01*
X72020000Y-78890000D01*
X71986666Y-78956666D01*
X71920000Y-79023333D01*
X71820000Y-79056666D01*
X71653333Y-79056666D01*
X128860000Y-119696666D02*
X128860000Y-118996666D01*
X129126666Y-118996666D01*
X129193333Y-119030000D01*
X129226666Y-119063333D01*
X129260000Y-119130000D01*
X129260000Y-119230000D01*
X129226666Y-119296666D01*
X129193333Y-119330000D01*
X129126666Y-119363333D01*
X128860000Y-119363333D01*
X129560000Y-119696666D02*
X129560000Y-118996666D01*
X129893333Y-119696666D02*
X129893333Y-118996666D01*
X130293333Y-119696666D01*
X130293333Y-118996666D01*
X130993333Y-119030000D02*
X130926666Y-118996666D01*
X130826666Y-118996666D01*
X130726666Y-119030000D01*
X130660000Y-119096666D01*
X130626666Y-119163333D01*
X130593333Y-119296666D01*
X130593333Y-119396666D01*
X130626666Y-119530000D01*
X130660000Y-119596666D01*
X130726666Y-119663333D01*
X130826666Y-119696666D01*
X130893333Y-119696666D01*
X130993333Y-119663333D01*
X131026666Y-119630000D01*
X131026666Y-119396666D01*
X130893333Y-119396666D01*
X132060000Y-118996666D02*
X132060000Y-119496666D01*
X132026666Y-119596666D01*
X131960000Y-119663333D01*
X131860000Y-119696666D01*
X131793333Y-119696666D01*
X132393333Y-119696666D02*
X132393333Y-118996666D01*
X132660000Y-118996666D01*
X132726666Y-119030000D01*
X132760000Y-119063333D01*
X132793333Y-119130000D01*
X132793333Y-119230000D01*
X132760000Y-119296666D01*
X132726666Y-119330000D01*
X132660000Y-119363333D01*
X132393333Y-119363333D01*
X123910000Y-121536666D02*
X124310000Y-121536666D01*
X124110000Y-122236666D02*
X124110000Y-121536666D01*
X124910000Y-121570000D02*
X124843333Y-121536666D01*
X124743333Y-121536666D01*
X124643333Y-121570000D01*
X124576666Y-121636666D01*
X124543333Y-121703333D01*
X124510000Y-121836666D01*
X124510000Y-121936666D01*
X124543333Y-122070000D01*
X124576666Y-122136666D01*
X124643333Y-122203333D01*
X124743333Y-122236666D01*
X124810000Y-122236666D01*
X124910000Y-122203333D01*
X124943333Y-122170000D01*
X124943333Y-121936666D01*
X124810000Y-121936666D01*
X126500000Y-127116666D02*
X126833333Y-127116666D01*
X126433333Y-127316666D02*
X126666666Y-126616666D01*
X126900000Y-127316666D01*
X127266666Y-126616666D02*
X127333333Y-126616666D01*
X127400000Y-126650000D01*
X127433333Y-126683333D01*
X127466666Y-126750000D01*
X127500000Y-126883333D01*
X127500000Y-127050000D01*
X127466666Y-127183333D01*
X127433333Y-127250000D01*
X127400000Y-127283333D01*
X127333333Y-127316666D01*
X127266666Y-127316666D01*
X127200000Y-127283333D01*
X127166666Y-127250000D01*
X127133333Y-127183333D01*
X127100000Y-127050000D01*
X127100000Y-126883333D01*
X127133333Y-126750000D01*
X127166666Y-126683333D01*
X127200000Y-126650000D01*
X127266666Y-126616666D01*
X129006666Y-126650000D02*
X128940000Y-126616666D01*
X128840000Y-126616666D01*
X128740000Y-126650000D01*
X128673333Y-126716666D01*
X128640000Y-126783333D01*
X128606666Y-126916666D01*
X128606666Y-127016666D01*
X128640000Y-127150000D01*
X128673333Y-127216666D01*
X128740000Y-127283333D01*
X128840000Y-127316666D01*
X128906666Y-127316666D01*
X129006666Y-127283333D01*
X129040000Y-127250000D01*
X129040000Y-127016666D01*
X128906666Y-127016666D01*
X129340000Y-127316666D02*
X129340000Y-126616666D01*
X129740000Y-127316666D01*
X129740000Y-126616666D01*
X130073333Y-127316666D02*
X130073333Y-126616666D01*
X130240000Y-126616666D01*
X130340000Y-126650000D01*
X130406666Y-126716666D01*
X130440000Y-126783333D01*
X130473333Y-126916666D01*
X130473333Y-127016666D01*
X130440000Y-127150000D01*
X130406666Y-127216666D01*
X130340000Y-127283333D01*
X130240000Y-127316666D01*
X130073333Y-127316666D01*
X120986666Y-126616666D02*
X121220000Y-127316666D01*
X121453333Y-126616666D01*
X122086666Y-127250000D02*
X122053333Y-127283333D01*
X121953333Y-127316666D01*
X121886666Y-127316666D01*
X121786666Y-127283333D01*
X121720000Y-127216666D01*
X121686666Y-127150000D01*
X121653333Y-127016666D01*
X121653333Y-126916666D01*
X121686666Y-126783333D01*
X121720000Y-126716666D01*
X121786666Y-126650000D01*
X121886666Y-126616666D01*
X121953333Y-126616666D01*
X122053333Y-126650000D01*
X122086666Y-126683333D01*
X122786666Y-127250000D02*
X122753333Y-127283333D01*
X122653333Y-127316666D01*
X122586666Y-127316666D01*
X122486666Y-127283333D01*
X122420000Y-127216666D01*
X122386666Y-127150000D01*
X122353333Y-127016666D01*
X122353333Y-126916666D01*
X122386666Y-126783333D01*
X122420000Y-126716666D01*
X122486666Y-126650000D01*
X122586666Y-126616666D01*
X122653333Y-126616666D01*
X122753333Y-126650000D01*
X122786666Y-126683333D01*
X117730000Y-119663333D02*
X117830000Y-119696666D01*
X117996666Y-119696666D01*
X118063333Y-119663333D01*
X118096666Y-119630000D01*
X118130000Y-119563333D01*
X118130000Y-119496666D01*
X118096666Y-119430000D01*
X118063333Y-119396666D01*
X117996666Y-119363333D01*
X117863333Y-119330000D01*
X117796666Y-119296666D01*
X117763333Y-119263333D01*
X117730000Y-119196666D01*
X117730000Y-119130000D01*
X117763333Y-119063333D01*
X117796666Y-119030000D01*
X117863333Y-118996666D01*
X118030000Y-118996666D01*
X118130000Y-119030000D01*
X118830000Y-119696666D02*
X118596666Y-119363333D01*
X118430000Y-119696666D02*
X118430000Y-118996666D01*
X118696666Y-118996666D01*
X118763333Y-119030000D01*
X118796666Y-119063333D01*
X118830000Y-119130000D01*
X118830000Y-119230000D01*
X118796666Y-119296666D01*
X118763333Y-119330000D01*
X118696666Y-119363333D01*
X118430000Y-119363333D01*
X119130000Y-119430000D02*
X119663333Y-119430000D01*
X120130000Y-118996666D02*
X120196666Y-118996666D01*
X120263333Y-119030000D01*
X120296666Y-119063333D01*
X120330000Y-119130000D01*
X120363333Y-119263333D01*
X120363333Y-119430000D01*
X120330000Y-119563333D01*
X120296666Y-119630000D01*
X120263333Y-119663333D01*
X120196666Y-119696666D01*
X120130000Y-119696666D01*
X120063333Y-119663333D01*
X120030000Y-119630000D01*
X119996666Y-119563333D01*
X119963333Y-119430000D01*
X119963333Y-119263333D01*
X119996666Y-119130000D01*
X120030000Y-119063333D01*
X120063333Y-119030000D01*
X120130000Y-118996666D01*
X120963333Y-119230000D02*
X120963333Y-119696666D01*
X120796666Y-118963333D02*
X120630000Y-119463333D01*
X121063333Y-119463333D01*
X123943333Y-127316666D02*
X123943333Y-126616666D01*
X124110000Y-126616666D01*
X124210000Y-126650000D01*
X124276666Y-126716666D01*
X124310000Y-126783333D01*
X124343333Y-126916666D01*
X124343333Y-127016666D01*
X124310000Y-127150000D01*
X124276666Y-127216666D01*
X124210000Y-127283333D01*
X124110000Y-127316666D01*
X123943333Y-127316666D01*
X124776666Y-126616666D02*
X124843333Y-126616666D01*
X124910000Y-126650000D01*
X124943333Y-126683333D01*
X124976666Y-126750000D01*
X125010000Y-126883333D01*
X125010000Y-127050000D01*
X124976666Y-127183333D01*
X124943333Y-127250000D01*
X124910000Y-127283333D01*
X124843333Y-127316666D01*
X124776666Y-127316666D01*
X124710000Y-127283333D01*
X124676666Y-127250000D01*
X124643333Y-127183333D01*
X124610000Y-127050000D01*
X124610000Y-126883333D01*
X124643333Y-126750000D01*
X124676666Y-126683333D01*
X124710000Y-126650000D01*
X124776666Y-126616666D01*
X126500000Y-121870000D02*
X126733333Y-121870000D01*
X126833333Y-122236666D02*
X126500000Y-122236666D01*
X126500000Y-121536666D01*
X126833333Y-121536666D01*
X127533333Y-122170000D02*
X127500000Y-122203333D01*
X127400000Y-122236666D01*
X127333333Y-122236666D01*
X127233333Y-122203333D01*
X127166666Y-122136666D01*
X127133333Y-122070000D01*
X127100000Y-121936666D01*
X127100000Y-121836666D01*
X127133333Y-121703333D01*
X127166666Y-121636666D01*
X127233333Y-121570000D01*
X127333333Y-121536666D01*
X127400000Y-121536666D01*
X127500000Y-121570000D01*
X127533333Y-121603333D01*
X120986666Y-121536666D02*
X121220000Y-122236666D01*
X121453333Y-121536666D01*
X122086666Y-122170000D02*
X122053333Y-122203333D01*
X121953333Y-122236666D01*
X121886666Y-122236666D01*
X121786666Y-122203333D01*
X121720000Y-122136666D01*
X121686666Y-122070000D01*
X121653333Y-121936666D01*
X121653333Y-121836666D01*
X121686666Y-121703333D01*
X121720000Y-121636666D01*
X121786666Y-121570000D01*
X121886666Y-121536666D01*
X121953333Y-121536666D01*
X122053333Y-121570000D01*
X122086666Y-121603333D01*
X122786666Y-122170000D02*
X122753333Y-122203333D01*
X122653333Y-122236666D01*
X122586666Y-122236666D01*
X122486666Y-122203333D01*
X122420000Y-122136666D01*
X122386666Y-122070000D01*
X122353333Y-121936666D01*
X122353333Y-121836666D01*
X122386666Y-121703333D01*
X122420000Y-121636666D01*
X122486666Y-121570000D01*
X122586666Y-121536666D01*
X122653333Y-121536666D01*
X122753333Y-121570000D01*
X122786666Y-121603333D01*
X129006666Y-121570000D02*
X128940000Y-121536666D01*
X128840000Y-121536666D01*
X128740000Y-121570000D01*
X128673333Y-121636666D01*
X128640000Y-121703333D01*
X128606666Y-121836666D01*
X128606666Y-121936666D01*
X128640000Y-122070000D01*
X128673333Y-122136666D01*
X128740000Y-122203333D01*
X128840000Y-122236666D01*
X128906666Y-122236666D01*
X129006666Y-122203333D01*
X129040000Y-122170000D01*
X129040000Y-121936666D01*
X128906666Y-121936666D01*
X129340000Y-122236666D02*
X129340000Y-121536666D01*
X129740000Y-122236666D01*
X129740000Y-121536666D01*
X130073333Y-122236666D02*
X130073333Y-121536666D01*
X130240000Y-121536666D01*
X130340000Y-121570000D01*
X130406666Y-121636666D01*
X130440000Y-121703333D01*
X130473333Y-121836666D01*
X130473333Y-121936666D01*
X130440000Y-122070000D01*
X130406666Y-122136666D01*
X130340000Y-122203333D01*
X130240000Y-122236666D01*
X130073333Y-122236666D01*
D10*
X134620000Y-104140000D02*
X116840000Y-104140000D01*
X134620000Y-128270000D02*
X134620000Y-104140000D01*
X116840000Y-128270000D02*
X134620000Y-128270000D01*
X116840000Y-104140000D02*
X116840000Y-128270000D01*
D11*
X146820000Y-127116666D02*
X147153333Y-127116666D01*
X146753333Y-127316666D02*
X146986666Y-126616666D01*
X147220000Y-127316666D01*
X147586666Y-126616666D02*
X147653333Y-126616666D01*
X147720000Y-126650000D01*
X147753333Y-126683333D01*
X147786666Y-126750000D01*
X147820000Y-126883333D01*
X147820000Y-127050000D01*
X147786666Y-127183333D01*
X147753333Y-127250000D01*
X147720000Y-127283333D01*
X147653333Y-127316666D01*
X147586666Y-127316666D01*
X147520000Y-127283333D01*
X147486666Y-127250000D01*
X147453333Y-127183333D01*
X147420000Y-127050000D01*
X147420000Y-126883333D01*
X147453333Y-126750000D01*
X147486666Y-126683333D01*
X147520000Y-126650000D01*
X147586666Y-126616666D01*
X144263333Y-127316666D02*
X144263333Y-126616666D01*
X144430000Y-126616666D01*
X144530000Y-126650000D01*
X144596666Y-126716666D01*
X144630000Y-126783333D01*
X144663333Y-126916666D01*
X144663333Y-127016666D01*
X144630000Y-127150000D01*
X144596666Y-127216666D01*
X144530000Y-127283333D01*
X144430000Y-127316666D01*
X144263333Y-127316666D01*
X145096666Y-126616666D02*
X145163333Y-126616666D01*
X145230000Y-126650000D01*
X145263333Y-126683333D01*
X145296666Y-126750000D01*
X145330000Y-126883333D01*
X145330000Y-127050000D01*
X145296666Y-127183333D01*
X145263333Y-127250000D01*
X145230000Y-127283333D01*
X145163333Y-127316666D01*
X145096666Y-127316666D01*
X145030000Y-127283333D01*
X144996666Y-127250000D01*
X144963333Y-127183333D01*
X144930000Y-127050000D01*
X144930000Y-126883333D01*
X144963333Y-126750000D01*
X144996666Y-126683333D01*
X145030000Y-126650000D01*
X145096666Y-126616666D01*
X141706666Y-126650000D02*
X141640000Y-126616666D01*
X141540000Y-126616666D01*
X141440000Y-126650000D01*
X141373333Y-126716666D01*
X141340000Y-126783333D01*
X141306666Y-126916666D01*
X141306666Y-127016666D01*
X141340000Y-127150000D01*
X141373333Y-127216666D01*
X141440000Y-127283333D01*
X141540000Y-127316666D01*
X141606666Y-127316666D01*
X141706666Y-127283333D01*
X141740000Y-127250000D01*
X141740000Y-127016666D01*
X141606666Y-127016666D01*
X142040000Y-127316666D02*
X142040000Y-126616666D01*
X142440000Y-127316666D01*
X142440000Y-126616666D01*
X142773333Y-127316666D02*
X142773333Y-126616666D01*
X142940000Y-126616666D01*
X143040000Y-126650000D01*
X143106666Y-126716666D01*
X143140000Y-126783333D01*
X143173333Y-126916666D01*
X143173333Y-127016666D01*
X143140000Y-127150000D01*
X143106666Y-127216666D01*
X143040000Y-127283333D01*
X142940000Y-127316666D01*
X142773333Y-127316666D01*
X138766666Y-126616666D02*
X139000000Y-127316666D01*
X139233333Y-126616666D01*
X139866666Y-127250000D02*
X139833333Y-127283333D01*
X139733333Y-127316666D01*
X139666666Y-127316666D01*
X139566666Y-127283333D01*
X139500000Y-127216666D01*
X139466666Y-127150000D01*
X139433333Y-127016666D01*
X139433333Y-126916666D01*
X139466666Y-126783333D01*
X139500000Y-126716666D01*
X139566666Y-126650000D01*
X139666666Y-126616666D01*
X139733333Y-126616666D01*
X139833333Y-126650000D01*
X139866666Y-126683333D01*
X140566666Y-127250000D02*
X140533333Y-127283333D01*
X140433333Y-127316666D01*
X140366666Y-127316666D01*
X140266666Y-127283333D01*
X140200000Y-127216666D01*
X140166666Y-127150000D01*
X140133333Y-127016666D01*
X140133333Y-126916666D01*
X140166666Y-126783333D01*
X140200000Y-126716666D01*
X140266666Y-126650000D01*
X140366666Y-126616666D01*
X140433333Y-126616666D01*
X140533333Y-126650000D01*
X140566666Y-126683333D01*
X141860000Y-120966666D02*
X141860000Y-120266666D01*
X141860000Y-120600000D02*
X142260000Y-120600000D01*
X142260000Y-120966666D02*
X142260000Y-120266666D01*
X142993333Y-120900000D02*
X142960000Y-120933333D01*
X142860000Y-120966666D01*
X142793333Y-120966666D01*
X142693333Y-120933333D01*
X142626666Y-120866666D01*
X142593333Y-120800000D01*
X142560000Y-120666666D01*
X142560000Y-120566666D01*
X142593333Y-120433333D01*
X142626666Y-120366666D01*
X142693333Y-120300000D01*
X142793333Y-120266666D01*
X142860000Y-120266666D01*
X142960000Y-120300000D01*
X142993333Y-120333333D01*
X143293333Y-120700000D02*
X143826666Y-120700000D01*
X144293333Y-120266666D02*
X144360000Y-120266666D01*
X144426666Y-120300000D01*
X144460000Y-120333333D01*
X144493333Y-120400000D01*
X144526666Y-120533333D01*
X144526666Y-120700000D01*
X144493333Y-120833333D01*
X144460000Y-120900000D01*
X144426666Y-120933333D01*
X144360000Y-120966666D01*
X144293333Y-120966666D01*
X144226666Y-120933333D01*
X144193333Y-120900000D01*
X144160000Y-120833333D01*
X144126666Y-120700000D01*
X144126666Y-120533333D01*
X144160000Y-120400000D01*
X144193333Y-120333333D01*
X144226666Y-120300000D01*
X144293333Y-120266666D01*
X145160000Y-120266666D02*
X144826666Y-120266666D01*
X144793333Y-120600000D01*
X144826666Y-120566666D01*
X144893333Y-120533333D01*
X145060000Y-120533333D01*
X145126666Y-120566666D01*
X145160000Y-120600000D01*
X145193333Y-120666666D01*
X145193333Y-120833333D01*
X145160000Y-120900000D01*
X145126666Y-120933333D01*
X145060000Y-120966666D01*
X144893333Y-120966666D01*
X144826666Y-120933333D01*
X144793333Y-120900000D01*
X147203333Y-122236666D02*
X146970000Y-121903333D01*
X146803333Y-122236666D02*
X146803333Y-121536666D01*
X147070000Y-121536666D01*
X147136666Y-121570000D01*
X147170000Y-121603333D01*
X147203333Y-121670000D01*
X147203333Y-121770000D01*
X147170000Y-121836666D01*
X147136666Y-121870000D01*
X147070000Y-121903333D01*
X146803333Y-121903333D01*
X147436666Y-121536666D02*
X147903333Y-122236666D01*
X147903333Y-121536666D02*
X147436666Y-122236666D01*
X144246666Y-121536666D02*
X144646666Y-121536666D01*
X144446666Y-122236666D02*
X144446666Y-121536666D01*
X144813333Y-121536666D02*
X145280000Y-122236666D01*
X145280000Y-121536666D02*
X144813333Y-122236666D01*
X138766666Y-121536666D02*
X139000000Y-122236666D01*
X139233333Y-121536666D01*
X139866666Y-122170000D02*
X139833333Y-122203333D01*
X139733333Y-122236666D01*
X139666666Y-122236666D01*
X139566666Y-122203333D01*
X139500000Y-122136666D01*
X139466666Y-122070000D01*
X139433333Y-121936666D01*
X139433333Y-121836666D01*
X139466666Y-121703333D01*
X139500000Y-121636666D01*
X139566666Y-121570000D01*
X139666666Y-121536666D01*
X139733333Y-121536666D01*
X139833333Y-121570000D01*
X139866666Y-121603333D01*
X140566666Y-122170000D02*
X140533333Y-122203333D01*
X140433333Y-122236666D01*
X140366666Y-122236666D01*
X140266666Y-122203333D01*
X140200000Y-122136666D01*
X140166666Y-122070000D01*
X140133333Y-121936666D01*
X140133333Y-121836666D01*
X140166666Y-121703333D01*
X140200000Y-121636666D01*
X140266666Y-121570000D01*
X140366666Y-121536666D01*
X140433333Y-121536666D01*
X140533333Y-121570000D01*
X140566666Y-121603333D01*
X141706666Y-121570000D02*
X141640000Y-121536666D01*
X141540000Y-121536666D01*
X141440000Y-121570000D01*
X141373333Y-121636666D01*
X141340000Y-121703333D01*
X141306666Y-121836666D01*
X141306666Y-121936666D01*
X141340000Y-122070000D01*
X141373333Y-122136666D01*
X141440000Y-122203333D01*
X141540000Y-122236666D01*
X141606666Y-122236666D01*
X141706666Y-122203333D01*
X141740000Y-122170000D01*
X141740000Y-121936666D01*
X141606666Y-121936666D01*
X142040000Y-122236666D02*
X142040000Y-121536666D01*
X142440000Y-122236666D01*
X142440000Y-121536666D01*
X142773333Y-122236666D02*
X142773333Y-121536666D01*
X142940000Y-121536666D01*
X143040000Y-121570000D01*
X143106666Y-121636666D01*
X143140000Y-121703333D01*
X143173333Y-121836666D01*
X143173333Y-121936666D01*
X143140000Y-122070000D01*
X143106666Y-122136666D01*
X143040000Y-122203333D01*
X142940000Y-122236666D01*
X142773333Y-122236666D01*
D10*
X152400000Y-104140000D02*
X134620000Y-104140000D01*
X152400000Y-128270000D02*
X152400000Y-104140000D01*
X134620000Y-128270000D02*
X152400000Y-128270000D01*
X134620000Y-104140000D02*
X134620000Y-128270000D01*
D12*
X151190000Y-149920000D02*
X151190000Y-147260000D01*
X138430000Y-149920000D02*
X151190000Y-149920000D01*
X138430000Y-147260000D02*
X151190000Y-147260000D01*
X138430000Y-149920000D02*
X138430000Y-147260000D01*
X137160000Y-149920000D02*
X135830000Y-149920000D01*
X135830000Y-149920000D02*
X135830000Y-148590000D01*
X149730000Y-141970000D02*
X149730000Y-136230000D01*
X137310000Y-141970000D02*
X137310000Y-136230000D01*
X149730000Y-128750000D02*
X137310000Y-128750000D01*
X149730000Y-141970000D02*
X137310000Y-141970000D01*
X149730000Y-133480000D02*
X149730000Y-128750000D01*
X137310000Y-133480000D02*
X137310000Y-128750000D01*
X137150000Y-139700000D02*
X136650000Y-139200000D01*
X136650000Y-140200000D02*
X137150000Y-139700000D01*
X136650000Y-140200000D02*
X136650000Y-139200000D01*
X131950000Y-141970000D02*
X131950000Y-136230000D01*
X119530000Y-141970000D02*
X119530000Y-136230000D01*
X131950000Y-128750000D02*
X119530000Y-128750000D01*
X131950000Y-141970000D02*
X119530000Y-141970000D01*
X131950000Y-133480000D02*
X131950000Y-128750000D01*
X119530000Y-133480000D02*
X119530000Y-128750000D01*
X119370000Y-139700000D02*
X118870000Y-139200000D01*
X118870000Y-140200000D02*
X119370000Y-139700000D01*
X118870000Y-140200000D02*
X118870000Y-139200000D01*
X130870000Y-149920000D02*
X130870000Y-147260000D01*
X123190000Y-149920000D02*
X130870000Y-149920000D01*
X123190000Y-147260000D02*
X130870000Y-147260000D01*
X123190000Y-149920000D02*
X123190000Y-147260000D01*
X121920000Y-149920000D02*
X120590000Y-149920000D01*
X120590000Y-149920000D02*
X120590000Y-148590000D01*
X122986531Y-142826812D02*
X122986531Y-145486812D01*
X125586531Y-142826812D02*
X122986531Y-142826812D01*
X125586531Y-145486812D02*
X122986531Y-145486812D01*
X125586531Y-142826812D02*
X125586531Y-145486812D01*
X126856531Y-142826812D02*
X128186531Y-142826812D01*
X128186531Y-142826812D02*
X128186531Y-144156812D01*
X138370000Y-99120000D02*
X138370000Y-97790000D01*
X139700000Y-99120000D02*
X138370000Y-99120000D01*
X140970000Y-99120000D02*
X140970000Y-96460000D01*
X140970000Y-96460000D02*
X148650000Y-96460000D01*
X140970000Y-99120000D02*
X148650000Y-99120000D01*
X148650000Y-99120000D02*
X148650000Y-96460000D01*
X136650000Y-91940000D02*
X136650000Y-90940000D01*
X136650000Y-91940000D02*
X137150000Y-91440000D01*
X137150000Y-91440000D02*
X136650000Y-90940000D01*
X137310000Y-85220000D02*
X137310000Y-80490000D01*
X149730000Y-85220000D02*
X149730000Y-80490000D01*
X149730000Y-93710000D02*
X137310000Y-93710000D01*
X149730000Y-80490000D02*
X137310000Y-80490000D01*
X137310000Y-93710000D02*
X137310000Y-87970000D01*
X149730000Y-93710000D02*
X149730000Y-87970000D01*
X138370000Y-101660000D02*
X138370000Y-100330000D01*
X139700000Y-101660000D02*
X138370000Y-101660000D01*
X140970000Y-101660000D02*
X140970000Y-99000000D01*
X140970000Y-99000000D02*
X148650000Y-99000000D01*
X140970000Y-101660000D02*
X148650000Y-101660000D01*
X148650000Y-101660000D02*
X148650000Y-99000000D01*
X130870000Y-101660000D02*
X130870000Y-99000000D01*
X123190000Y-101660000D02*
X130870000Y-101660000D01*
X123190000Y-99000000D02*
X130870000Y-99000000D01*
X123190000Y-101660000D02*
X123190000Y-99000000D01*
X121920000Y-101660000D02*
X120590000Y-101660000D01*
X120590000Y-101660000D02*
X120590000Y-100330000D01*
X130870000Y-99120000D02*
X130870000Y-96460000D01*
X123190000Y-99120000D02*
X130870000Y-99120000D01*
X123190000Y-96460000D02*
X130870000Y-96460000D01*
X123190000Y-99120000D02*
X123190000Y-96460000D01*
X121920000Y-99120000D02*
X120590000Y-99120000D01*
X120590000Y-99120000D02*
X120590000Y-97790000D01*
X131950000Y-93710000D02*
X131950000Y-87970000D01*
X119530000Y-93710000D02*
X119530000Y-87970000D01*
X131950000Y-80490000D02*
X119530000Y-80490000D01*
X131950000Y-93710000D02*
X119530000Y-93710000D01*
X131950000Y-85220000D02*
X131950000Y-80490000D01*
X119530000Y-85220000D02*
X119530000Y-80490000D01*
X119370000Y-91440000D02*
X118870000Y-90940000D01*
X118870000Y-91940000D02*
X119370000Y-91440000D01*
X118870000Y-91940000D02*
X118870000Y-90940000D01*
X136650000Y-67810000D02*
X136650000Y-66810000D01*
X136650000Y-67810000D02*
X137150000Y-67310000D01*
X137150000Y-67310000D02*
X136650000Y-66810000D01*
X137310000Y-61090000D02*
X137310000Y-56360000D01*
X149730000Y-61090000D02*
X149730000Y-56360000D01*
X149730000Y-69580000D02*
X137310000Y-69580000D01*
X149730000Y-56360000D02*
X137310000Y-56360000D01*
X137310000Y-69580000D02*
X137310000Y-63840000D01*
X149730000Y-69580000D02*
X149730000Y-63840000D01*
X138370000Y-77530000D02*
X138370000Y-76200000D01*
X139700000Y-77530000D02*
X138370000Y-77530000D01*
X140970000Y-77530000D02*
X140970000Y-74870000D01*
X140970000Y-74870000D02*
X148650000Y-74870000D01*
X140970000Y-77530000D02*
X148650000Y-77530000D01*
X148650000Y-77530000D02*
X148650000Y-74870000D01*
X138370000Y-74990000D02*
X138370000Y-73660000D01*
X139700000Y-74990000D02*
X138370000Y-74990000D01*
X140970000Y-74990000D02*
X140970000Y-72330000D01*
X140970000Y-72330000D02*
X148650000Y-72330000D01*
X140970000Y-74990000D02*
X148650000Y-74990000D01*
X148650000Y-74990000D02*
X148650000Y-72330000D01*
X130870000Y-74990000D02*
X130870000Y-72330000D01*
X123190000Y-74990000D02*
X130870000Y-74990000D01*
X123190000Y-72330000D02*
X130870000Y-72330000D01*
X123190000Y-74990000D02*
X123190000Y-72330000D01*
X121920000Y-74990000D02*
X120590000Y-74990000D01*
X120590000Y-74990000D02*
X120590000Y-73660000D01*
X130870000Y-77530000D02*
X130870000Y-74870000D01*
X123190000Y-77530000D02*
X130870000Y-77530000D01*
X123190000Y-74870000D02*
X130870000Y-74870000D01*
X123190000Y-77530000D02*
X123190000Y-74870000D01*
X121920000Y-77530000D02*
X120590000Y-77530000D01*
X120590000Y-77530000D02*
X120590000Y-76200000D01*
X131950000Y-69580000D02*
X131950000Y-63840000D01*
X119530000Y-69580000D02*
X119530000Y-63840000D01*
X131950000Y-56360000D02*
X119530000Y-56360000D01*
X131950000Y-69580000D02*
X119530000Y-69580000D01*
X131950000Y-61090000D02*
X131950000Y-56360000D01*
X119530000Y-61090000D02*
X119530000Y-56360000D01*
X119370000Y-67310000D02*
X118870000Y-66810000D01*
X118870000Y-67810000D02*
X119370000Y-67310000D01*
X118870000Y-67810000D02*
X118870000Y-66810000D01*
X104080000Y-147380000D02*
X104080000Y-146050000D01*
X105410000Y-147380000D02*
X104080000Y-147380000D01*
X106680000Y-147380000D02*
X106680000Y-144720000D01*
X106680000Y-144720000D02*
X111820000Y-144720000D01*
X106680000Y-147380000D02*
X111820000Y-147380000D01*
X111820000Y-147380000D02*
X111820000Y-144720000D01*
X101090000Y-140200000D02*
X101090000Y-139200000D01*
X101090000Y-140200000D02*
X101590000Y-139700000D01*
X101590000Y-139700000D02*
X101090000Y-139200000D01*
X101750000Y-133480000D02*
X101750000Y-128750000D01*
X114170000Y-133480000D02*
X114170000Y-128750000D01*
X114170000Y-141970000D02*
X101750000Y-141970000D01*
X114170000Y-128750000D02*
X101750000Y-128750000D01*
X101750000Y-141970000D02*
X101750000Y-136230000D01*
X114170000Y-141970000D02*
X114170000Y-136230000D01*
X104080000Y-149920000D02*
X104080000Y-148590000D01*
X105410000Y-149920000D02*
X104080000Y-149920000D01*
X106680000Y-149920000D02*
X106680000Y-147260000D01*
X106680000Y-147260000D02*
X111820000Y-147260000D01*
X106680000Y-149920000D02*
X111820000Y-149920000D01*
X111820000Y-149920000D02*
X111820000Y-147260000D01*
X94040000Y-147380000D02*
X94040000Y-144720000D01*
X88900000Y-147380000D02*
X94040000Y-147380000D01*
X88900000Y-144720000D02*
X94040000Y-144720000D01*
X88900000Y-147380000D02*
X88900000Y-144720000D01*
X87630000Y-147380000D02*
X86300000Y-147380000D01*
X86300000Y-147380000D02*
X86300000Y-146050000D01*
X96390000Y-141970000D02*
X96390000Y-136230000D01*
X83970000Y-141970000D02*
X83970000Y-136230000D01*
X96390000Y-128750000D02*
X83970000Y-128750000D01*
X96390000Y-141970000D02*
X83970000Y-141970000D01*
X96390000Y-133480000D02*
X96390000Y-128750000D01*
X83970000Y-133480000D02*
X83970000Y-128750000D01*
X83810000Y-139700000D02*
X83310000Y-139200000D01*
X83310000Y-140200000D02*
X83810000Y-139700000D01*
X83310000Y-140200000D02*
X83310000Y-139200000D01*
X94040000Y-149920000D02*
X94040000Y-147260000D01*
X88900000Y-149920000D02*
X94040000Y-149920000D01*
X88900000Y-147260000D02*
X94040000Y-147260000D01*
X88900000Y-149920000D02*
X88900000Y-147260000D01*
X87630000Y-149920000D02*
X86300000Y-149920000D01*
X86300000Y-149920000D02*
X86300000Y-148590000D01*
X101090000Y-116070000D02*
X101090000Y-115070000D01*
X101090000Y-116070000D02*
X101590000Y-115570000D01*
X101590000Y-115570000D02*
X101090000Y-115070000D01*
X101750000Y-109350000D02*
X101750000Y-104620000D01*
X114170000Y-109350000D02*
X114170000Y-104620000D01*
X114170000Y-117840000D02*
X101750000Y-117840000D01*
X114170000Y-104620000D02*
X101750000Y-104620000D01*
X101750000Y-117840000D02*
X101750000Y-112100000D01*
X114170000Y-117840000D02*
X114170000Y-112100000D01*
X104080000Y-123250000D02*
X104080000Y-121920000D01*
X105410000Y-123250000D02*
X104080000Y-123250000D01*
X106680000Y-123250000D02*
X106680000Y-120590000D01*
X106680000Y-120590000D02*
X111820000Y-120590000D01*
X106680000Y-123250000D02*
X111820000Y-123250000D01*
X111820000Y-123250000D02*
X111820000Y-120590000D01*
X104080000Y-125790000D02*
X104080000Y-124460000D01*
X105410000Y-125790000D02*
X104080000Y-125790000D01*
X106680000Y-125790000D02*
X106680000Y-123130000D01*
X106680000Y-123130000D02*
X111820000Y-123130000D01*
X106680000Y-125790000D02*
X111820000Y-125790000D01*
X111820000Y-125790000D02*
X111820000Y-123130000D01*
X94040000Y-123250000D02*
X94040000Y-120590000D01*
X88900000Y-123250000D02*
X94040000Y-123250000D01*
X88900000Y-120590000D02*
X94040000Y-120590000D01*
X88900000Y-123250000D02*
X88900000Y-120590000D01*
X87630000Y-123250000D02*
X86300000Y-123250000D01*
X86300000Y-123250000D02*
X86300000Y-121920000D01*
X94040000Y-125790000D02*
X94040000Y-123130000D01*
X88900000Y-125790000D02*
X94040000Y-125790000D01*
X88900000Y-123130000D02*
X94040000Y-123130000D01*
X88900000Y-125790000D02*
X88900000Y-123130000D01*
X87630000Y-125790000D02*
X86300000Y-125790000D01*
X86300000Y-125790000D02*
X86300000Y-124460000D01*
X96390000Y-117840000D02*
X96390000Y-112100000D01*
X83970000Y-117840000D02*
X83970000Y-112100000D01*
X96390000Y-104620000D02*
X83970000Y-104620000D01*
X96390000Y-117840000D02*
X83970000Y-117840000D01*
X96390000Y-109350000D02*
X96390000Y-104620000D01*
X83970000Y-109350000D02*
X83970000Y-104620000D01*
X83810000Y-115570000D02*
X83310000Y-115070000D01*
X83310000Y-116070000D02*
X83810000Y-115570000D01*
X83310000Y-116070000D02*
X83310000Y-115070000D01*
X104080000Y-101660000D02*
X104080000Y-100330000D01*
X105410000Y-101660000D02*
X104080000Y-101660000D01*
X106680000Y-101660000D02*
X106680000Y-99000000D01*
X106680000Y-99000000D02*
X111820000Y-99000000D01*
X106680000Y-101660000D02*
X111820000Y-101660000D01*
X111820000Y-101660000D02*
X111820000Y-99000000D01*
X101090000Y-91940000D02*
X101090000Y-90940000D01*
X101090000Y-91940000D02*
X101590000Y-91440000D01*
X101590000Y-91440000D02*
X101090000Y-90940000D01*
X101750000Y-85220000D02*
X101750000Y-80490000D01*
X114170000Y-85220000D02*
X114170000Y-80490000D01*
X114170000Y-93710000D02*
X101750000Y-93710000D01*
X114170000Y-80490000D02*
X101750000Y-80490000D01*
X101750000Y-93710000D02*
X101750000Y-87970000D01*
X114170000Y-93710000D02*
X114170000Y-87970000D01*
X104080000Y-99120000D02*
X104080000Y-97790000D01*
X105410000Y-99120000D02*
X104080000Y-99120000D01*
X106680000Y-99120000D02*
X106680000Y-96460000D01*
X106680000Y-96460000D02*
X111820000Y-96460000D01*
X106680000Y-99120000D02*
X111820000Y-99120000D01*
X111820000Y-99120000D02*
X111820000Y-96460000D01*
X111820000Y-77530000D02*
X111820000Y-74870000D01*
X106680000Y-77530000D02*
X111820000Y-77530000D01*
X106680000Y-74870000D02*
X111820000Y-74870000D01*
X106680000Y-77530000D02*
X106680000Y-74870000D01*
X105410000Y-77530000D02*
X104080000Y-77530000D01*
X104080000Y-77530000D02*
X104080000Y-76200000D01*
X111820000Y-74990000D02*
X111820000Y-72330000D01*
X106680000Y-74990000D02*
X111820000Y-74990000D01*
X106680000Y-72330000D02*
X111820000Y-72330000D01*
X106680000Y-74990000D02*
X106680000Y-72330000D01*
X105410000Y-74990000D02*
X104080000Y-74990000D01*
X104080000Y-74990000D02*
X104080000Y-73660000D01*
X114170000Y-69580000D02*
X114170000Y-63840000D01*
X101750000Y-69580000D02*
X101750000Y-63840000D01*
X114170000Y-56360000D02*
X101750000Y-56360000D01*
X114170000Y-69580000D02*
X101750000Y-69580000D01*
X114170000Y-61090000D02*
X114170000Y-56360000D01*
X101750000Y-61090000D02*
X101750000Y-56360000D01*
X101590000Y-67310000D02*
X101090000Y-66810000D01*
X101090000Y-67810000D02*
X101590000Y-67310000D01*
X101090000Y-67810000D02*
X101090000Y-66810000D01*
X95310000Y-99120000D02*
X95310000Y-96460000D01*
X87630000Y-99120000D02*
X95310000Y-99120000D01*
X87630000Y-96460000D02*
X95310000Y-96460000D01*
X87630000Y-99120000D02*
X87630000Y-96460000D01*
X86360000Y-99120000D02*
X85030000Y-99120000D01*
X85030000Y-99120000D02*
X85030000Y-97790000D01*
X96390000Y-93710000D02*
X96390000Y-87970000D01*
X83970000Y-93710000D02*
X83970000Y-87970000D01*
X96390000Y-80490000D02*
X83970000Y-80490000D01*
X96390000Y-93710000D02*
X83970000Y-93710000D01*
X96390000Y-85220000D02*
X96390000Y-80490000D01*
X83970000Y-85220000D02*
X83970000Y-80490000D01*
X83810000Y-91440000D02*
X83310000Y-90940000D01*
X83310000Y-91940000D02*
X83810000Y-91440000D01*
X83310000Y-91940000D02*
X83310000Y-90940000D01*
X95310000Y-101660000D02*
X95310000Y-99000000D01*
X87630000Y-101660000D02*
X95310000Y-101660000D01*
X87630000Y-99000000D02*
X95310000Y-99000000D01*
X87630000Y-101660000D02*
X87630000Y-99000000D01*
X86360000Y-101660000D02*
X85030000Y-101660000D01*
X85030000Y-101660000D02*
X85030000Y-100330000D01*
X67250000Y-149920000D02*
X67250000Y-148590000D01*
X68580000Y-149920000D02*
X67250000Y-149920000D01*
X69850000Y-149920000D02*
X69850000Y-147260000D01*
X69850000Y-147260000D02*
X77530000Y-147260000D01*
X69850000Y-149920000D02*
X77530000Y-149920000D01*
X77530000Y-149920000D02*
X77530000Y-147260000D01*
X65530000Y-140200000D02*
X65530000Y-139200000D01*
X65530000Y-140200000D02*
X66030000Y-139700000D01*
X66030000Y-139700000D02*
X65530000Y-139200000D01*
X66190000Y-133480000D02*
X66190000Y-128750000D01*
X78610000Y-133480000D02*
X78610000Y-128750000D01*
X78610000Y-141970000D02*
X66190000Y-141970000D01*
X78610000Y-128750000D02*
X66190000Y-128750000D01*
X66190000Y-141970000D02*
X66190000Y-136230000D01*
X78610000Y-141970000D02*
X78610000Y-136230000D01*
X67250000Y-147380000D02*
X67250000Y-146050000D01*
X68580000Y-147380000D02*
X67250000Y-147380000D01*
X69850000Y-147380000D02*
X69850000Y-144720000D01*
X69850000Y-144720000D02*
X77530000Y-144720000D01*
X69850000Y-147380000D02*
X77530000Y-147380000D01*
X77530000Y-147380000D02*
X77530000Y-144720000D01*
X77530000Y-125790000D02*
X77530000Y-123130000D01*
X69850000Y-125790000D02*
X77530000Y-125790000D01*
X69850000Y-123130000D02*
X77530000Y-123130000D01*
X69850000Y-125790000D02*
X69850000Y-123130000D01*
X68580000Y-125790000D02*
X67250000Y-125790000D01*
X67250000Y-125790000D02*
X67250000Y-124460000D01*
X77530000Y-123250000D02*
X77530000Y-120590000D01*
X69850000Y-123250000D02*
X77530000Y-123250000D01*
X69850000Y-120590000D02*
X77530000Y-120590000D01*
X69850000Y-123250000D02*
X69850000Y-120590000D01*
X68580000Y-123250000D02*
X67250000Y-123250000D01*
X67250000Y-123250000D02*
X67250000Y-121920000D01*
X78610000Y-117840000D02*
X78610000Y-112100000D01*
X66190000Y-117840000D02*
X66190000Y-112100000D01*
X78610000Y-104620000D02*
X66190000Y-104620000D01*
X78610000Y-117840000D02*
X66190000Y-117840000D01*
X78610000Y-109350000D02*
X78610000Y-104620000D01*
X66190000Y-109350000D02*
X66190000Y-104620000D01*
X66030000Y-115570000D02*
X65530000Y-115070000D01*
X65530000Y-116070000D02*
X66030000Y-115570000D01*
X65530000Y-116070000D02*
X65530000Y-115070000D01*
X67250000Y-101660000D02*
X67250000Y-100330000D01*
X68580000Y-101660000D02*
X67250000Y-101660000D01*
X69850000Y-101660000D02*
X69850000Y-99000000D01*
X69850000Y-99000000D02*
X77530000Y-99000000D01*
X69850000Y-101660000D02*
X77530000Y-101660000D01*
X77530000Y-101660000D02*
X77530000Y-99000000D01*
X65530000Y-91940000D02*
X65530000Y-90940000D01*
X65530000Y-91940000D02*
X66030000Y-91440000D01*
X66030000Y-91440000D02*
X65530000Y-90940000D01*
X66190000Y-85220000D02*
X66190000Y-80490000D01*
X78610000Y-85220000D02*
X78610000Y-80490000D01*
X78610000Y-93710000D02*
X66190000Y-93710000D01*
X78610000Y-80490000D02*
X66190000Y-80490000D01*
X66190000Y-93710000D02*
X66190000Y-87970000D01*
X78610000Y-93710000D02*
X78610000Y-87970000D01*
X67250000Y-99120000D02*
X67250000Y-97790000D01*
X68580000Y-99120000D02*
X67250000Y-99120000D01*
X69850000Y-99120000D02*
X69850000Y-96460000D01*
X69850000Y-96460000D02*
X77530000Y-96460000D01*
X69850000Y-99120000D02*
X77530000Y-99120000D01*
X77530000Y-99120000D02*
X77530000Y-96460000D01*
X95310000Y-74990000D02*
X95310000Y-72330000D01*
X87630000Y-74990000D02*
X95310000Y-74990000D01*
X87630000Y-72330000D02*
X95310000Y-72330000D01*
X87630000Y-74990000D02*
X87630000Y-72330000D01*
X86360000Y-74990000D02*
X85030000Y-74990000D01*
X85030000Y-74990000D02*
X85030000Y-73660000D01*
X96390000Y-69580000D02*
X96390000Y-63840000D01*
X83970000Y-69580000D02*
X83970000Y-63840000D01*
X96390000Y-56360000D02*
X83970000Y-56360000D01*
X96390000Y-69580000D02*
X83970000Y-69580000D01*
X96390000Y-61090000D02*
X96390000Y-56360000D01*
X83970000Y-61090000D02*
X83970000Y-56360000D01*
X83810000Y-67310000D02*
X83310000Y-66810000D01*
X83310000Y-67810000D02*
X83810000Y-67310000D01*
X83310000Y-67810000D02*
X83310000Y-66810000D01*
X95310000Y-77530000D02*
X95310000Y-74870000D01*
X87630000Y-77530000D02*
X95310000Y-77530000D01*
X87630000Y-74870000D02*
X95310000Y-74870000D01*
X87630000Y-77530000D02*
X87630000Y-74870000D01*
X86360000Y-77530000D02*
X85030000Y-77530000D01*
X85030000Y-77530000D02*
X85030000Y-76200000D01*
X67250000Y-77530000D02*
X67250000Y-76200000D01*
X68580000Y-77530000D02*
X67250000Y-77530000D01*
X69850000Y-77530000D02*
X69850000Y-74870000D01*
X69850000Y-74870000D02*
X77530000Y-74870000D01*
X69850000Y-77530000D02*
X77530000Y-77530000D01*
X77530000Y-77530000D02*
X77530000Y-74870000D01*
X67250000Y-74990000D02*
X67250000Y-73660000D01*
X68580000Y-74990000D02*
X67250000Y-74990000D01*
X69850000Y-74990000D02*
X69850000Y-72330000D01*
X69850000Y-72330000D02*
X77530000Y-72330000D01*
X69850000Y-74990000D02*
X77530000Y-74990000D01*
X77530000Y-74990000D02*
X77530000Y-72330000D01*
X65530000Y-67810000D02*
X65530000Y-66810000D01*
X65530000Y-67810000D02*
X66030000Y-67310000D01*
X66030000Y-67310000D02*
X65530000Y-66810000D01*
X66190000Y-61090000D02*
X66190000Y-56360000D01*
X78610000Y-61090000D02*
X78610000Y-56360000D01*
X78610000Y-69580000D02*
X66190000Y-69580000D01*
X78610000Y-56360000D02*
X66190000Y-56360000D01*
X66190000Y-69580000D02*
X66190000Y-63840000D01*
X78610000Y-69580000D02*
X78610000Y-63840000D01*
X128186531Y-118696812D02*
X128186531Y-120026812D01*
X126856531Y-118696812D02*
X128186531Y-118696812D01*
X125586531Y-118696812D02*
X125586531Y-121356812D01*
X125586531Y-121356812D02*
X122986531Y-121356812D01*
X125586531Y-118696812D02*
X122986531Y-118696812D01*
X122986531Y-118696812D02*
X122986531Y-121356812D01*
X120590000Y-125790000D02*
X120590000Y-124460000D01*
X121920000Y-125790000D02*
X120590000Y-125790000D01*
X123190000Y-125790000D02*
X123190000Y-123130000D01*
X123190000Y-123130000D02*
X130870000Y-123130000D01*
X123190000Y-125790000D02*
X130870000Y-125790000D01*
X130870000Y-125790000D02*
X130870000Y-123130000D01*
X118870000Y-116070000D02*
X118870000Y-115070000D01*
X118870000Y-116070000D02*
X119370000Y-115570000D01*
X119370000Y-115570000D02*
X118870000Y-115070000D01*
X119530000Y-109350000D02*
X119530000Y-104620000D01*
X131950000Y-109350000D02*
X131950000Y-104620000D01*
X131950000Y-117840000D02*
X119530000Y-117840000D01*
X131950000Y-104620000D02*
X119530000Y-104620000D01*
X119530000Y-117840000D02*
X119530000Y-112100000D01*
X131950000Y-117840000D02*
X131950000Y-112100000D01*
X135830000Y-125790000D02*
X135830000Y-124460000D01*
X137160000Y-125790000D02*
X135830000Y-125790000D01*
X138430000Y-125790000D02*
X138430000Y-123130000D01*
X138430000Y-123130000D02*
X151190000Y-123130000D01*
X138430000Y-125790000D02*
X151190000Y-125790000D01*
X151190000Y-125790000D02*
X151190000Y-123130000D01*
X136650000Y-116070000D02*
X136650000Y-115070000D01*
X136650000Y-116070000D02*
X137150000Y-115570000D01*
X137150000Y-115570000D02*
X136650000Y-115070000D01*
X137310000Y-109350000D02*
X137310000Y-104620000D01*
X149730000Y-109350000D02*
X149730000Y-104620000D01*
X149730000Y-117840000D02*
X137310000Y-117840000D01*
X149730000Y-104620000D02*
X137310000Y-104620000D01*
X137310000Y-117840000D02*
X137310000Y-112100000D01*
X149730000Y-117840000D02*
X149730000Y-112100000D01*
M02*
